M48
; DRILL file {KiCad 7.0.6-0} date 2024 April 21, Sunday 20:32:30
; FORMAT={-:-/ absolute / inch / decimal}
; #@! TF.CreationDate,2024-04-21T20:32:30+02:00
; #@! TF.GenerationSoftware,Kicad,Pcbnew,7.0.6-0
; #@! TF.FileFunction,Plated,1,2,PTH
FMAT,2
INCH
; #@! TA.AperFunction,Plated,PTH,ComponentDrill
T1C0.0079
; #@! TA.AperFunction,Plated,PTH,ViaDrill
T2C0.0157
; #@! TA.AperFunction,Plated,PTH,ComponentDrill
T3C0.0157
; #@! TA.AperFunction,Plated,PTH,ComponentDrill
T4C0.0236
; #@! TA.AperFunction,Plated,PTH,ComponentDrill
T5C0.0315
; #@! TA.AperFunction,Plated,PTH,ComponentDrill
T6C0.0394
; #@! TA.AperFunction,Plated,PTH,ComponentDrill
T7C0.0433
; #@! TA.AperFunction,Plated,PTH,ComponentDrill
T8C0.0472
; #@! TA.AperFunction,Plated,PTH,ComponentDrill
T9C0.0591
; #@! TA.AperFunction,Plated,PTH,ComponentDrill
T10C0.1260
%
G90
G05
T1
X5.5441Y-3.8602
X5.5441Y-3.9154
X5.5717Y-3.8327
X5.5717Y-3.8878
X5.5717Y-3.9429
X5.5992Y-3.8602
X5.5992Y-3.9154
X5.6268Y-3.8327
X5.6268Y-3.8878
X5.6268Y-3.9429
X5.6543Y-3.8602
X5.6543Y-3.9154
T2
X4.7795Y-4.3543
X5.2992Y-4.4331
X5.3386Y-4.2047
X5.3465Y-3.685
X5.3543Y-4.7165
X5.4016Y-4.2047
X5.4331Y-5.0787
X5.5354Y-4.5906
X5.5827Y-5.1339
X5.6063Y-5.0079
X5.6436Y-4.9954
X5.8268Y-3.7608
X5.8858Y-4.9606
X5.8898Y-4.1496
X5.9291Y-4.1496
X6.0551Y-5.2691
X6.0787Y-3.6299
X6.0866Y-5.1496
X6.126Y-4.9606
X6.3465Y-4.8898
X6.5669Y-5.1496
X6.7323Y-5.3307
X6.7559Y-4.9685
X6.7559Y-5.2283
X6.9291Y-5.1654
X7.0Y-5.2283
X7.0236Y-5.1575
X7.0315Y-5.0
X7.2205Y-5.1575
X7.3307Y-3.7608
X7.5669Y-4.9606
X7.5748Y-4.8661
T5
X6.6142Y-5.4134
X6.6929Y-5.4134
X6.7717Y-5.4134
T6
X4.1642Y-3.8878
X4.1642Y-3.9862
X4.1642Y-4.0846
X4.4094Y-3.6425
X4.5079Y-3.6425
X4.6063Y-3.6425
X5.3102Y-5.2307
X5.3102Y-5.3307
X5.4102Y-5.2307
X5.4102Y-5.3307
X5.5102Y-5.2307
X5.5102Y-5.3307
X5.6102Y-5.2307
X5.6102Y-5.3307
X6.3173Y-3.6614
X6.4173Y-3.6614
X6.5173Y-3.6614
X6.6173Y-3.6614
X7.3138Y-3.8878
X7.3138Y-3.9862
X7.3138Y-4.0846
X7.5591Y-3.6425
X7.6575Y-3.6425
X7.7559Y-3.6425
T7
X7.687Y-4.4193
X7.687Y-4.6752
X7.8642Y-4.4193
X7.8642Y-4.6752
T8
X4.7343Y-3.8583
X4.7343Y-4.1142
X4.9114Y-3.8583
X4.9114Y-4.1142
X7.8839Y-3.8583
X7.8839Y-4.1142
X8.061Y-3.8583
X8.061Y-4.1142
T9
X6.5315Y-5.4134
X6.8543Y-5.4134
T10
X4.0748Y-3.7008
X4.0748Y-5.3543
X8.0906Y-3.7008
X8.0906Y-5.3543
T3
G00X4.626Y-4.7676
M15
G01X4.626Y-4.7204
M16
G05
G00X7.4803Y-4.7204
M15
G01X7.4803Y-4.7676
M16
G05
T4
G00X5.9126Y-5.2219
M15
G01X5.9126Y-5.2652
M16
G05
G00X5.9126Y-5.3923
M15
G01X5.9126Y-5.4238
M16
G05
G00X6.2528Y-5.2219
M15
G01X6.2528Y-5.2652
M16
G05
G00X6.2528Y-5.3923
M15
G01X6.2528Y-5.4238
M16
G05
T0
M30
