%TF.GenerationSoftware,KiCad,Pcbnew,7.0.6-0*%
%TF.CreationDate,2024-04-21T20:48:41+02:00*%
%TF.ProjectId,3mode_controller,336d6f64-655f-4636-9f6e-74726f6c6c65,rev?*%
%TF.SameCoordinates,Original*%
%TF.FileFunction,Soldermask,Top*%
%TF.FilePolarity,Negative*%
%FSLAX46Y46*%
G04 Gerber Fmt 4.6, Leading zero omitted, Abs format (unit mm)*
G04 Created by KiCad (PCBNEW 7.0.6-0) date 2024-04-21 20:48:41*
%MOMM*%
%LPD*%
G01*
G04 APERTURE LIST*
G04 Aperture macros list*
%AMRoundRect*
0 Rectangle with rounded corners*
0 $1 Rounding radius*
0 $2 $3 $4 $5 $6 $7 $8 $9 X,Y pos of 4 corners*
0 Add a 4 corners polygon primitive as box body*
4,1,4,$2,$3,$4,$5,$6,$7,$8,$9,$2,$3,0*
0 Add four circle primitives for the rounded corners*
1,1,$1+$1,$2,$3*
1,1,$1+$1,$4,$5*
1,1,$1+$1,$6,$7*
1,1,$1+$1,$8,$9*
0 Add four rect primitives between the rounded corners*
20,1,$1+$1,$2,$3,$4,$5,0*
20,1,$1+$1,$4,$5,$6,$7,0*
20,1,$1+$1,$6,$7,$8,$9,0*
20,1,$1+$1,$8,$9,$2,$3,0*%
G04 Aperture macros list end*
%ADD10RoundRect,0.237500X-0.237500X0.250000X-0.237500X-0.250000X0.237500X-0.250000X0.237500X0.250000X0*%
%ADD11R,1.500000X1.500000*%
%ADD12R,1.560000X0.650000*%
%ADD13RoundRect,0.250000X-0.425000X0.537500X-0.425000X-0.537500X0.425000X-0.537500X0.425000X0.537500X0*%
%ADD14RoundRect,0.150000X0.150000X-0.587500X0.150000X0.587500X-0.150000X0.587500X-0.150000X-0.587500X0*%
%ADD15C,5.500000*%
%ADD16RoundRect,0.237500X-0.237500X0.287500X-0.237500X-0.287500X0.237500X-0.287500X0.237500X0.287500X0*%
%ADD17RoundRect,0.250000X0.450000X-0.350000X0.450000X0.350000X-0.450000X0.350000X-0.450000X-0.350000X0*%
%ADD18RoundRect,0.237500X0.237500X-0.250000X0.237500X0.250000X-0.237500X0.250000X-0.237500X-0.250000X0*%
%ADD19O,2.200000X3.500000*%
%ADD20R,1.500000X2.500000*%
%ADD21O,1.500000X2.500000*%
%ADD22RoundRect,0.150000X-0.150000X0.675000X-0.150000X-0.675000X0.150000X-0.675000X0.150000X0.675000X0*%
%ADD23C,2.000000*%
%ADD24C,2.200000*%
%ADD25RoundRect,0.237500X-0.300000X-0.237500X0.300000X-0.237500X0.300000X0.237500X-0.300000X0.237500X0*%
%ADD26RoundRect,0.237500X0.237500X-0.287500X0.237500X0.287500X-0.237500X0.287500X-0.237500X-0.287500X0*%
%ADD27RoundRect,0.250000X1.000000X0.650000X-1.000000X0.650000X-1.000000X-0.650000X1.000000X-0.650000X0*%
%ADD28RoundRect,0.237500X0.237500X-0.300000X0.237500X0.300000X-0.237500X0.300000X-0.237500X-0.300000X0*%
%ADD29C,0.650000*%
%ADD30R,0.600000X1.150000*%
%ADD31R,0.300000X1.150000*%
%ADD32O,1.000000X2.100000*%
%ADD33O,1.000000X1.800000*%
%ADD34R,2.000000X1.500000*%
%ADD35R,2.000000X3.800000*%
%ADD36RoundRect,0.237500X-0.250000X-0.237500X0.250000X-0.237500X0.250000X0.237500X-0.250000X0.237500X0*%
%ADD37R,1.700000X1.700000*%
%ADD38O,1.700000X1.700000*%
%ADD39C,1.700000*%
%ADD40R,1.500000X3.000000*%
G04 APERTURE END LIST*
D10*
%TO.C,R2*%
X184105000Y-123462500D03*
X184105000Y-125287500D03*
%TD*%
D11*
%TO.C,SW1*%
X121000000Y-112700000D03*
X121000000Y-120500000D03*
%TD*%
D12*
%TO.C,IC1*%
X186105000Y-123575000D03*
X186105000Y-124525000D03*
X186105000Y-125475000D03*
X188805000Y-125475000D03*
X188805000Y-124525000D03*
X188805000Y-123575000D03*
%TD*%
D13*
%TO.C,C8*%
X158000000Y-126190000D03*
X158000000Y-129065000D03*
%TD*%
D14*
%TO.C,Q1*%
X174300000Y-129125000D03*
X176200000Y-129125000D03*
X175250000Y-127250000D03*
%TD*%
D15*
%TO.C,H3*%
X103500000Y-136000000D03*
%TD*%
D12*
%TO.C,U4*%
X188805000Y-129475000D03*
X188805000Y-128525000D03*
X188805000Y-127575000D03*
X186105000Y-127575000D03*
X186105000Y-128525000D03*
X186105000Y-129475000D03*
%TD*%
D16*
%TO.C,D3*%
X181100000Y-136350000D03*
X181100000Y-138100000D03*
%TD*%
D17*
%TO.C,R5*%
X191105000Y-129475000D03*
X191105000Y-127475000D03*
%TD*%
D18*
%TO.C,R6*%
X181100000Y-134450000D03*
X181100000Y-132625000D03*
%TD*%
D19*
%TO.C,SW4*%
X165900000Y-137500000D03*
X174100000Y-137500000D03*
D20*
X168000000Y-137500000D03*
D21*
X170000000Y-137500000D03*
X172000000Y-137500000D03*
%TD*%
D22*
%TO.C,U1*%
X182010000Y-123800000D03*
X180740000Y-123800000D03*
X179470000Y-123800000D03*
X178200000Y-123800000D03*
X178200000Y-129050000D03*
X179470000Y-129050000D03*
X180740000Y-129050000D03*
X182010000Y-129050000D03*
%TD*%
D23*
%TO.C,U7*%
X109500000Y-107575000D03*
X119500000Y-107575000D03*
X114500000Y-105550000D03*
X114500000Y-96950000D03*
X109500000Y-94925000D03*
X119500000Y-94925000D03*
X117000000Y-92520000D03*
X114500000Y-92520000D03*
X112000000Y-92520000D03*
X105770000Y-98750000D03*
X105770000Y-101250000D03*
X105770000Y-103750000D03*
D24*
X120250000Y-104500000D03*
X124750000Y-104500000D03*
X120250000Y-98000000D03*
X124750000Y-98000000D03*
%TD*%
D25*
%TO.C,C6*%
X194537500Y-121500000D03*
X196262500Y-121500000D03*
%TD*%
D23*
%TO.C,SW3*%
X195250000Y-118750000D03*
X195250000Y-112250000D03*
X199750000Y-118750000D03*
X199750000Y-112250000D03*
%TD*%
D26*
%TO.C,D1*%
X162750000Y-129287500D03*
X162750000Y-127537500D03*
%TD*%
D27*
%TO.C,D4*%
X171500000Y-128357500D03*
X167500000Y-128357500D03*
%TD*%
D28*
%TO.C,C2*%
X184105000Y-129337500D03*
X184105000Y-127612500D03*
%TD*%
D10*
%TO.C,R7*%
X164750000Y-127545000D03*
X164750000Y-129370000D03*
%TD*%
D15*
%TO.C,H2*%
X205500000Y-94000000D03*
%TD*%
D11*
%TO.C,SW2*%
X126500000Y-112700000D03*
X126500000Y-120500000D03*
%TD*%
D23*
%TO.C,U8*%
X189500000Y-107575000D03*
X199500000Y-107575000D03*
X194500000Y-105550000D03*
X194500000Y-96950000D03*
X189500000Y-94925000D03*
X199500000Y-94925000D03*
X197000000Y-92520000D03*
X194500000Y-92520000D03*
X192000000Y-92520000D03*
X185770000Y-98750000D03*
X185770000Y-101250000D03*
X185770000Y-103750000D03*
D24*
X200250000Y-104500000D03*
X204750000Y-104500000D03*
X200250000Y-98000000D03*
X204750000Y-98000000D03*
%TD*%
D15*
%TO.C,H1*%
X103500000Y-94000000D03*
%TD*%
D29*
%TO.C,J2*%
X151610000Y-133685000D03*
X157390000Y-133685000D03*
D30*
X151300000Y-132610000D03*
X152100000Y-132610000D03*
D31*
X153250000Y-132610000D03*
X154250000Y-132610000D03*
X154750000Y-132610000D03*
X155750000Y-132610000D03*
D30*
X156900000Y-132610000D03*
X157700000Y-132610000D03*
X157700000Y-132610000D03*
X156900000Y-132610000D03*
D31*
X156250000Y-132610000D03*
X155250000Y-132610000D03*
X153750000Y-132610000D03*
X152750000Y-132610000D03*
D30*
X152100000Y-132610000D03*
X151300000Y-132610000D03*
D32*
X150180000Y-133185000D03*
D33*
X150180000Y-137365000D03*
D32*
X158820000Y-133185000D03*
D33*
X158820000Y-137365000D03*
%TD*%
D18*
%TO.C,R4*%
X155750000Y-129370000D03*
X155750000Y-127545000D03*
%TD*%
D15*
%TO.C,H4*%
X205500000Y-136000000D03*
%TD*%
D34*
%TO.C,U5*%
X163350000Y-119700000D03*
X163350000Y-122000000D03*
D35*
X169650000Y-122000000D03*
D34*
X163350000Y-124300000D03*
%TD*%
D36*
%TO.C,R9*%
X184080000Y-121775000D03*
X185905000Y-121775000D03*
%TD*%
D16*
%TO.C,D2*%
X182900000Y-136350000D03*
X182900000Y-138100000D03*
%TD*%
D37*
%TO.C,J1*%
X160460000Y-93000000D03*
D38*
X163000000Y-93000000D03*
X165540000Y-93000000D03*
X168080000Y-93000000D03*
%TD*%
D13*
%TO.C,C7*%
X160500000Y-126190000D03*
X160500000Y-129065000D03*
%TD*%
D18*
%TO.C,R10*%
X182900000Y-134450000D03*
X182900000Y-132625000D03*
%TD*%
D28*
%TO.C,C4*%
X190805000Y-125237500D03*
X190805000Y-123512500D03*
%TD*%
D37*
%TO.C,U6*%
X134880000Y-135400000D03*
D39*
X134880000Y-132860000D03*
X137420000Y-135400000D03*
X137420000Y-132860000D03*
X139960000Y-135400000D03*
X139960000Y-132860000D03*
X142500000Y-135400000D03*
X142500000Y-132860000D03*
%TD*%
D10*
%TO.C,R3*%
X154000000Y-127545000D03*
X154000000Y-129370000D03*
%TD*%
D40*
%TO.C,U3*%
X190000000Y-120498224D03*
X117500000Y-120498224D03*
%TD*%
M02*
