%TF.GenerationSoftware,KiCad,Pcbnew,7.0.6-0*%
%TF.CreationDate,2024-04-21T20:32:30+02:00*%
%TF.ProjectId,3mode_controller,336d6f64-655f-4636-9f6e-74726f6c6c65,rev?*%
%TF.SameCoordinates,Original*%
%TF.FileFunction,Paste,Bot*%
%TF.FilePolarity,Positive*%
%FSLAX46Y46*%
G04 Gerber Fmt 4.6, Leading zero omitted, Abs format (unit mm)*
G04 Created by KiCad (PCBNEW 7.0.6-0) date 2024-04-21 20:32:30*
%MOMM*%
%LPD*%
G01*
G04 APERTURE LIST*
G04 Aperture macros list*
%AMRoundRect*
0 Rectangle with rounded corners*
0 $1 Rounding radius*
0 $2 $3 $4 $5 $6 $7 $8 $9 X,Y pos of 4 corners*
0 Add a 4 corners polygon primitive as box body*
4,1,4,$2,$3,$4,$5,$6,$7,$8,$9,$2,$3,0*
0 Add four circle primitives for the rounded corners*
1,1,$1+$1,$2,$3*
1,1,$1+$1,$4,$5*
1,1,$1+$1,$6,$7*
1,1,$1+$1,$8,$9*
0 Add four rect primitives between the rounded corners*
20,1,$1+$1,$2,$3,$4,$5,0*
20,1,$1+$1,$4,$5,$6,$7,0*
20,1,$1+$1,$6,$7,$8,$9,0*
20,1,$1+$1,$8,$9,$2,$3,0*%
G04 Aperture macros list end*
%ADD10RoundRect,0.237500X0.300000X0.237500X-0.300000X0.237500X-0.300000X-0.237500X0.300000X-0.237500X0*%
%ADD11R,0.900000X0.900000*%
%ADD12R,0.900000X1.500000*%
%ADD13R,1.500000X0.900000*%
%ADD14RoundRect,0.237500X0.250000X0.237500X-0.250000X0.237500X-0.250000X-0.237500X0.250000X-0.237500X0*%
%ADD15RoundRect,0.237500X0.237500X-0.300000X0.237500X0.300000X-0.237500X0.300000X-0.237500X-0.300000X0*%
G04 APERTURE END LIST*
D10*
%TO.C,C3*%
X125462500Y-93792000D03*
X123737500Y-93792000D03*
%TD*%
D11*
%TO.C,U2*%
X143620000Y-97350000D03*
X142220000Y-97350000D03*
X140820000Y-97350000D03*
X143620000Y-98750000D03*
X142220000Y-98750000D03*
X140820000Y-98750000D03*
X143620000Y-100150000D03*
X142220000Y-100150000D03*
X140820000Y-100150000D03*
D12*
X134500000Y-91500000D03*
X135770000Y-91500000D03*
X137040000Y-91500000D03*
X138310000Y-91500000D03*
X139580000Y-91500000D03*
X140850000Y-91500000D03*
X142120000Y-91500000D03*
X143390000Y-91500000D03*
X144660000Y-91500000D03*
X145930000Y-91500000D03*
X147200000Y-91500000D03*
X148470000Y-91500000D03*
X149740000Y-91500000D03*
X151010000Y-91500000D03*
D13*
X152260000Y-93265000D03*
X152260000Y-94535000D03*
X152260000Y-95805000D03*
X152260000Y-97075000D03*
X152260000Y-98345000D03*
X152260000Y-99615000D03*
X152260000Y-100885000D03*
X152260000Y-102155000D03*
X152260000Y-103425000D03*
X152260000Y-104695000D03*
X152260000Y-105965000D03*
X152260000Y-107235000D03*
D12*
X151010000Y-109000000D03*
X149740000Y-109000000D03*
X148470000Y-109000000D03*
X147200000Y-109000000D03*
X145930000Y-109000000D03*
X144660000Y-109000000D03*
X143390000Y-109000000D03*
X142120000Y-109000000D03*
X140850000Y-109000000D03*
X139580000Y-109000000D03*
X138310000Y-109000000D03*
X137040000Y-109000000D03*
X135770000Y-109000000D03*
X134500000Y-109000000D03*
%TD*%
D10*
%TO.C,C5*%
X125462500Y-92000000D03*
X123737500Y-92000000D03*
%TD*%
D14*
%TO.C,R1*%
X125512500Y-95392000D03*
X123687500Y-95392000D03*
%TD*%
D15*
%TO.C,C1*%
X122000000Y-95262500D03*
X122000000Y-93537500D03*
%TD*%
M02*
