%TF.GenerationSoftware,KiCad,Pcbnew,7.0.6-0*%
%TF.CreationDate,2024-04-21T20:48:41+02:00*%
%TF.ProjectId,3mode_controller,336d6f64-655f-4636-9f6e-74726f6c6c65,rev?*%
%TF.SameCoordinates,Original*%
%TF.FileFunction,Other,Comment*%
%FSLAX46Y46*%
G04 Gerber Fmt 4.6, Leading zero omitted, Abs format (unit mm)*
G04 Created by KiCad (PCBNEW 7.0.6-0) date 2024-04-21 20:48:41*
%MOMM*%
%LPD*%
G01*
G04 APERTURE LIST*
%ADD10C,0.150000*%
G04 APERTURE END LIST*
D10*
X121757438Y-112392857D02*
X119757438Y-112392857D01*
X121757438Y-111250000D02*
X120614580Y-112107143D01*
X119757438Y-111250000D02*
X120900295Y-112392857D01*
X120709819Y-110392857D02*
X120709819Y-109726190D01*
X121757438Y-109440476D02*
X121757438Y-110392857D01*
X121757438Y-110392857D02*
X119757438Y-110392857D01*
X119757438Y-110392857D02*
X119757438Y-109440476D01*
X120709819Y-108583333D02*
X120709819Y-107916666D01*
X121757438Y-107630952D02*
X121757438Y-108583333D01*
X121757438Y-108583333D02*
X119757438Y-108583333D01*
X119757438Y-108583333D02*
X119757438Y-107630952D01*
X121757438Y-106773809D02*
X119757438Y-106773809D01*
X119757438Y-106773809D02*
X119757438Y-106011904D01*
X119757438Y-106011904D02*
X119852676Y-105821428D01*
X119852676Y-105821428D02*
X119947914Y-105726190D01*
X119947914Y-105726190D02*
X120138390Y-105630952D01*
X120138390Y-105630952D02*
X120424104Y-105630952D01*
X120424104Y-105630952D02*
X120614580Y-105726190D01*
X120614580Y-105726190D02*
X120709819Y-105821428D01*
X120709819Y-105821428D02*
X120805057Y-106011904D01*
X120805057Y-106011904D02*
X120805057Y-106773809D01*
X120995533Y-104773809D02*
X120995533Y-103250000D01*
X119757438Y-101916667D02*
X119757438Y-101535714D01*
X119757438Y-101535714D02*
X119852676Y-101345238D01*
X119852676Y-101345238D02*
X120043152Y-101154762D01*
X120043152Y-101154762D02*
X120424104Y-101059524D01*
X120424104Y-101059524D02*
X121090771Y-101059524D01*
X121090771Y-101059524D02*
X121471723Y-101154762D01*
X121471723Y-101154762D02*
X121662200Y-101345238D01*
X121662200Y-101345238D02*
X121757438Y-101535714D01*
X121757438Y-101535714D02*
X121757438Y-101916667D01*
X121757438Y-101916667D02*
X121662200Y-102107143D01*
X121662200Y-102107143D02*
X121471723Y-102297619D01*
X121471723Y-102297619D02*
X121090771Y-102392857D01*
X121090771Y-102392857D02*
X120424104Y-102392857D01*
X120424104Y-102392857D02*
X120043152Y-102297619D01*
X120043152Y-102297619D02*
X119852676Y-102107143D01*
X119852676Y-102107143D02*
X119757438Y-101916667D01*
X119757438Y-100202381D02*
X121376485Y-100202381D01*
X121376485Y-100202381D02*
X121566961Y-100107143D01*
X121566961Y-100107143D02*
X121662200Y-100011905D01*
X121662200Y-100011905D02*
X121757438Y-99821429D01*
X121757438Y-99821429D02*
X121757438Y-99440476D01*
X121757438Y-99440476D02*
X121662200Y-99250000D01*
X121662200Y-99250000D02*
X121566961Y-99154762D01*
X121566961Y-99154762D02*
X121376485Y-99059524D01*
X121376485Y-99059524D02*
X119757438Y-99059524D01*
X119757438Y-98392857D02*
X119757438Y-97250000D01*
X121757438Y-97821429D02*
X119757438Y-97821429D01*
X119757438Y-95249999D02*
X119757438Y-93916666D01*
X119757438Y-93916666D02*
X121757438Y-95249999D01*
X121757438Y-95249999D02*
X121757438Y-93916666D01*
X119757438Y-92773809D02*
X119757438Y-92392856D01*
X119757438Y-92392856D02*
X119852676Y-92202380D01*
X119852676Y-92202380D02*
X120043152Y-92011904D01*
X120043152Y-92011904D02*
X120424104Y-91916666D01*
X120424104Y-91916666D02*
X121090771Y-91916666D01*
X121090771Y-91916666D02*
X121471723Y-92011904D01*
X121471723Y-92011904D02*
X121662200Y-92202380D01*
X121662200Y-92202380D02*
X121757438Y-92392856D01*
X121757438Y-92392856D02*
X121757438Y-92773809D01*
X121757438Y-92773809D02*
X121662200Y-92964285D01*
X121662200Y-92964285D02*
X121471723Y-93154761D01*
X121471723Y-93154761D02*
X121090771Y-93249999D01*
X121090771Y-93249999D02*
X120424104Y-93249999D01*
X120424104Y-93249999D02*
X120043152Y-93154761D01*
X120043152Y-93154761D02*
X119852676Y-92964285D01*
X119852676Y-92964285D02*
X119757438Y-92773809D01*
X121757438Y-91059523D02*
X119757438Y-91059523D01*
X119757438Y-91059523D02*
X121757438Y-89916666D01*
X121757438Y-89916666D02*
X119757438Y-89916666D01*
X120709819Y-88964285D02*
X120709819Y-88297618D01*
X121757438Y-88011904D02*
X121757438Y-88964285D01*
X121757438Y-88964285D02*
X119757438Y-88964285D01*
X119757438Y-88964285D02*
X119757438Y-88011904D01*
X130489104Y-102961904D02*
X130489104Y-102485714D01*
X130774819Y-103057142D02*
X129774819Y-102723809D01*
X129774819Y-102723809D02*
X130774819Y-102390476D01*
X130108152Y-102057142D02*
X130774819Y-102057142D01*
X130203390Y-102057142D02*
X130155771Y-102009523D01*
X130155771Y-102009523D02*
X130108152Y-101914285D01*
X130108152Y-101914285D02*
X130108152Y-101771428D01*
X130108152Y-101771428D02*
X130155771Y-101676190D01*
X130155771Y-101676190D02*
X130251009Y-101628571D01*
X130251009Y-101628571D02*
X130774819Y-101628571D01*
X130108152Y-101295237D02*
X130108152Y-100914285D01*
X129774819Y-101152380D02*
X130631961Y-101152380D01*
X130631961Y-101152380D02*
X130727200Y-101104761D01*
X130727200Y-101104761D02*
X130774819Y-101009523D01*
X130774819Y-101009523D02*
X130774819Y-100914285D01*
X130727200Y-100199999D02*
X130774819Y-100295237D01*
X130774819Y-100295237D02*
X130774819Y-100485713D01*
X130774819Y-100485713D02*
X130727200Y-100580951D01*
X130727200Y-100580951D02*
X130631961Y-100628570D01*
X130631961Y-100628570D02*
X130251009Y-100628570D01*
X130251009Y-100628570D02*
X130155771Y-100580951D01*
X130155771Y-100580951D02*
X130108152Y-100485713D01*
X130108152Y-100485713D02*
X130108152Y-100295237D01*
X130108152Y-100295237D02*
X130155771Y-100199999D01*
X130155771Y-100199999D02*
X130251009Y-100152380D01*
X130251009Y-100152380D02*
X130346247Y-100152380D01*
X130346247Y-100152380D02*
X130441485Y-100628570D01*
X130108152Y-99723808D02*
X130774819Y-99723808D01*
X130203390Y-99723808D02*
X130155771Y-99676189D01*
X130155771Y-99676189D02*
X130108152Y-99580951D01*
X130108152Y-99580951D02*
X130108152Y-99438094D01*
X130108152Y-99438094D02*
X130155771Y-99342856D01*
X130155771Y-99342856D02*
X130251009Y-99295237D01*
X130251009Y-99295237D02*
X130774819Y-99295237D01*
X130108152Y-98819046D02*
X130774819Y-98819046D01*
X130203390Y-98819046D02*
X130155771Y-98771427D01*
X130155771Y-98771427D02*
X130108152Y-98676189D01*
X130108152Y-98676189D02*
X130108152Y-98533332D01*
X130108152Y-98533332D02*
X130155771Y-98438094D01*
X130155771Y-98438094D02*
X130251009Y-98390475D01*
X130251009Y-98390475D02*
X130774819Y-98390475D01*
X130774819Y-97485713D02*
X130251009Y-97485713D01*
X130251009Y-97485713D02*
X130155771Y-97533332D01*
X130155771Y-97533332D02*
X130108152Y-97628570D01*
X130108152Y-97628570D02*
X130108152Y-97819046D01*
X130108152Y-97819046D02*
X130155771Y-97914284D01*
X130727200Y-97485713D02*
X130774819Y-97580951D01*
X130774819Y-97580951D02*
X130774819Y-97819046D01*
X130774819Y-97819046D02*
X130727200Y-97914284D01*
X130727200Y-97914284D02*
X130631961Y-97961903D01*
X130631961Y-97961903D02*
X130536723Y-97961903D01*
X130536723Y-97961903D02*
X130441485Y-97914284D01*
X130441485Y-97914284D02*
X130393866Y-97819046D01*
X130393866Y-97819046D02*
X130393866Y-97580951D01*
X130393866Y-97580951D02*
X130346247Y-97485713D01*
%TO.C,H3*%
X106250000Y-136000000D02*
G75*
G03*
X106250000Y-136000000I-2750000J0D01*
G01*
%TO.C,H2*%
X208250000Y-94000000D02*
G75*
G03*
X208250000Y-94000000I-2750000J0D01*
G01*
%TO.C,H1*%
X106250000Y-94000000D02*
G75*
G03*
X106250000Y-94000000I-2750000J0D01*
G01*
%TO.C,H4*%
X208250000Y-136000000D02*
G75*
G03*
X208250000Y-136000000I-2750000J0D01*
G01*
%TD*%
M02*
