%TF.GenerationSoftware,KiCad,Pcbnew,7.0.6-0*%
%TF.CreationDate,2024-04-21T20:32:30+02:00*%
%TF.ProjectId,3mode_controller,336d6f64-655f-4636-9f6e-74726f6c6c65,rev?*%
%TF.SameCoordinates,Original*%
%TF.FileFunction,Legend,Bot*%
%TF.FilePolarity,Positive*%
%FSLAX46Y46*%
G04 Gerber Fmt 4.6, Leading zero omitted, Abs format (unit mm)*
G04 Created by KiCad (PCBNEW 7.0.6-0) date 2024-04-21 20:32:30*
%MOMM*%
%LPD*%
G01*
G04 APERTURE LIST*
G04 Aperture macros list*
%AMRoundRect*
0 Rectangle with rounded corners*
0 $1 Rounding radius*
0 $2 $3 $4 $5 $6 $7 $8 $9 X,Y pos of 4 corners*
0 Add a 4 corners polygon primitive as box body*
4,1,4,$2,$3,$4,$5,$6,$7,$8,$9,$2,$3,0*
0 Add four circle primitives for the rounded corners*
1,1,$1+$1,$2,$3*
1,1,$1+$1,$4,$5*
1,1,$1+$1,$6,$7*
1,1,$1+$1,$8,$9*
0 Add four rect primitives between the rounded corners*
20,1,$1+$1,$2,$3,$4,$5,0*
20,1,$1+$1,$4,$5,$6,$7,0*
20,1,$1+$1,$6,$7,$8,$9,0*
20,1,$1+$1,$8,$9,$2,$3,0*%
G04 Aperture macros list end*
%ADD10C,0.150000*%
%ADD11C,0.120000*%
%ADD12C,5.500000*%
%ADD13O,2.200000X3.500000*%
%ADD14R,1.500000X2.500000*%
%ADD15O,1.500000X2.500000*%
%ADD16C,2.000000*%
%ADD17C,2.200000*%
%ADD18C,0.650000*%
%ADD19O,1.000000X2.100000*%
%ADD20O,1.000000X1.800000*%
%ADD21R,1.700000X1.700000*%
%ADD22O,1.700000X1.700000*%
%ADD23C,1.700000*%
%ADD24RoundRect,0.237500X0.300000X0.237500X-0.300000X0.237500X-0.300000X-0.237500X0.300000X-0.237500X0*%
%ADD25R,0.900000X1.500000*%
%ADD26R,1.500000X0.900000*%
%ADD27C,0.600000*%
%ADD28R,3.900000X3.900000*%
%ADD29R,1.500000X3.000000*%
%ADD30RoundRect,0.237500X0.250000X0.237500X-0.250000X0.237500X-0.250000X-0.237500X0.250000X-0.237500X0*%
%ADD31RoundRect,0.237500X0.237500X-0.300000X0.237500X0.300000X-0.237500X0.300000X-0.237500X-0.300000X0*%
G04 APERTURE END LIST*
D10*
X121743042Y-120503757D02*
X120219233Y-120503757D01*
X187243042Y-120472619D02*
X185719233Y-120472619D01*
X186481137Y-121234524D02*
X186481137Y-119710714D01*
X165180953Y-121053043D02*
X165752381Y-121053043D01*
X165466667Y-121053043D02*
X165466667Y-120053043D01*
X165466667Y-120053043D02*
X165561905Y-120195900D01*
X165561905Y-120195900D02*
X165657143Y-120291138D01*
X165657143Y-120291138D02*
X165752381Y-120338757D01*
X164609524Y-120481614D02*
X164704762Y-120433995D01*
X164704762Y-120433995D02*
X164752381Y-120386376D01*
X164752381Y-120386376D02*
X164800000Y-120291138D01*
X164800000Y-120291138D02*
X164800000Y-120243519D01*
X164800000Y-120243519D02*
X164752381Y-120148281D01*
X164752381Y-120148281D02*
X164704762Y-120100662D01*
X164704762Y-120100662D02*
X164609524Y-120053043D01*
X164609524Y-120053043D02*
X164419048Y-120053043D01*
X164419048Y-120053043D02*
X164323810Y-120100662D01*
X164323810Y-120100662D02*
X164276191Y-120148281D01*
X164276191Y-120148281D02*
X164228572Y-120243519D01*
X164228572Y-120243519D02*
X164228572Y-120291138D01*
X164228572Y-120291138D02*
X164276191Y-120386376D01*
X164276191Y-120386376D02*
X164323810Y-120433995D01*
X164323810Y-120433995D02*
X164419048Y-120481614D01*
X164419048Y-120481614D02*
X164609524Y-120481614D01*
X164609524Y-120481614D02*
X164704762Y-120529233D01*
X164704762Y-120529233D02*
X164752381Y-120576852D01*
X164752381Y-120576852D02*
X164800000Y-120672090D01*
X164800000Y-120672090D02*
X164800000Y-120862566D01*
X164800000Y-120862566D02*
X164752381Y-120957804D01*
X164752381Y-120957804D02*
X164704762Y-121005424D01*
X164704762Y-121005424D02*
X164609524Y-121053043D01*
X164609524Y-121053043D02*
X164419048Y-121053043D01*
X164419048Y-121053043D02*
X164323810Y-121005424D01*
X164323810Y-121005424D02*
X164276191Y-120957804D01*
X164276191Y-120957804D02*
X164228572Y-120862566D01*
X164228572Y-120862566D02*
X164228572Y-120672090D01*
X164228572Y-120672090D02*
X164276191Y-120576852D01*
X164276191Y-120576852D02*
X164323810Y-120529233D01*
X164323810Y-120529233D02*
X164419048Y-120481614D01*
X163895238Y-120053043D02*
X163276191Y-120053043D01*
X163276191Y-120053043D02*
X163609524Y-120433995D01*
X163609524Y-120433995D02*
X163466667Y-120433995D01*
X163466667Y-120433995D02*
X163371429Y-120481614D01*
X163371429Y-120481614D02*
X163323810Y-120529233D01*
X163323810Y-120529233D02*
X163276191Y-120624471D01*
X163276191Y-120624471D02*
X163276191Y-120862566D01*
X163276191Y-120862566D02*
X163323810Y-120957804D01*
X163323810Y-120957804D02*
X163371429Y-121005424D01*
X163371429Y-121005424D02*
X163466667Y-121053043D01*
X163466667Y-121053043D02*
X163752381Y-121053043D01*
X163752381Y-121053043D02*
X163847619Y-121005424D01*
X163847619Y-121005424D02*
X163895238Y-120957804D01*
X162371429Y-120053043D02*
X162847619Y-120053043D01*
X162847619Y-120053043D02*
X162895238Y-120529233D01*
X162895238Y-120529233D02*
X162847619Y-120481614D01*
X162847619Y-120481614D02*
X162752381Y-120433995D01*
X162752381Y-120433995D02*
X162514286Y-120433995D01*
X162514286Y-120433995D02*
X162419048Y-120481614D01*
X162419048Y-120481614D02*
X162371429Y-120529233D01*
X162371429Y-120529233D02*
X162323810Y-120624471D01*
X162323810Y-120624471D02*
X162323810Y-120862566D01*
X162323810Y-120862566D02*
X162371429Y-120957804D01*
X162371429Y-120957804D02*
X162419048Y-121005424D01*
X162419048Y-121005424D02*
X162514286Y-121053043D01*
X162514286Y-121053043D02*
X162752381Y-121053043D01*
X162752381Y-121053043D02*
X162847619Y-121005424D01*
X162847619Y-121005424D02*
X162895238Y-120957804D01*
X161704762Y-120053043D02*
X161609524Y-120053043D01*
X161609524Y-120053043D02*
X161514286Y-120100662D01*
X161514286Y-120100662D02*
X161466667Y-120148281D01*
X161466667Y-120148281D02*
X161419048Y-120243519D01*
X161419048Y-120243519D02*
X161371429Y-120433995D01*
X161371429Y-120433995D02*
X161371429Y-120672090D01*
X161371429Y-120672090D02*
X161419048Y-120862566D01*
X161419048Y-120862566D02*
X161466667Y-120957804D01*
X161466667Y-120957804D02*
X161514286Y-121005424D01*
X161514286Y-121005424D02*
X161609524Y-121053043D01*
X161609524Y-121053043D02*
X161704762Y-121053043D01*
X161704762Y-121053043D02*
X161800000Y-121005424D01*
X161800000Y-121005424D02*
X161847619Y-120957804D01*
X161847619Y-120957804D02*
X161895238Y-120862566D01*
X161895238Y-120862566D02*
X161942857Y-120672090D01*
X161942857Y-120672090D02*
X161942857Y-120433995D01*
X161942857Y-120433995D02*
X161895238Y-120243519D01*
X161895238Y-120243519D02*
X161847619Y-120148281D01*
X161847619Y-120148281D02*
X161800000Y-120100662D01*
X161800000Y-120100662D02*
X161704762Y-120053043D01*
X159704762Y-121053043D02*
X160180952Y-121053043D01*
X160180952Y-121053043D02*
X160180952Y-120053043D01*
X159371428Y-121053043D02*
X159371428Y-120386376D01*
X159371428Y-120053043D02*
X159419047Y-120100662D01*
X159419047Y-120100662D02*
X159371428Y-120148281D01*
X159371428Y-120148281D02*
X159323809Y-120100662D01*
X159323809Y-120100662D02*
X159371428Y-120053043D01*
X159371428Y-120053043D02*
X159371428Y-120148281D01*
X159038095Y-120386376D02*
X158657143Y-120386376D01*
X158895238Y-120053043D02*
X158895238Y-120910185D01*
X158895238Y-120910185D02*
X158847619Y-121005424D01*
X158847619Y-121005424D02*
X158752381Y-121053043D01*
X158752381Y-121053043D02*
X158657143Y-121053043D01*
X158323809Y-121053043D02*
X158323809Y-120053043D01*
X157895238Y-121053043D02*
X157895238Y-120529233D01*
X157895238Y-120529233D02*
X157942857Y-120433995D01*
X157942857Y-120433995D02*
X158038095Y-120386376D01*
X158038095Y-120386376D02*
X158180952Y-120386376D01*
X158180952Y-120386376D02*
X158276190Y-120433995D01*
X158276190Y-120433995D02*
X158323809Y-120481614D01*
X157419047Y-121053043D02*
X157419047Y-120386376D01*
X157419047Y-120053043D02*
X157466666Y-120100662D01*
X157466666Y-120100662D02*
X157419047Y-120148281D01*
X157419047Y-120148281D02*
X157371428Y-120100662D01*
X157371428Y-120100662D02*
X157419047Y-120053043D01*
X157419047Y-120053043D02*
X157419047Y-120148281D01*
X156514286Y-120386376D02*
X156514286Y-121053043D01*
X156942857Y-120386376D02*
X156942857Y-120910185D01*
X156942857Y-120910185D02*
X156895238Y-121005424D01*
X156895238Y-121005424D02*
X156800000Y-121053043D01*
X156800000Y-121053043D02*
X156657143Y-121053043D01*
X156657143Y-121053043D02*
X156561905Y-121005424D01*
X156561905Y-121005424D02*
X156514286Y-120957804D01*
X156038095Y-121053043D02*
X156038095Y-120386376D01*
X156038095Y-120481614D02*
X155990476Y-120433995D01*
X155990476Y-120433995D02*
X155895238Y-120386376D01*
X155895238Y-120386376D02*
X155752381Y-120386376D01*
X155752381Y-120386376D02*
X155657143Y-120433995D01*
X155657143Y-120433995D02*
X155609524Y-120529233D01*
X155609524Y-120529233D02*
X155609524Y-121053043D01*
X155609524Y-120529233D02*
X155561905Y-120433995D01*
X155561905Y-120433995D02*
X155466667Y-120386376D01*
X155466667Y-120386376D02*
X155323810Y-120386376D01*
X155323810Y-120386376D02*
X155228571Y-120433995D01*
X155228571Y-120433995D02*
X155180952Y-120529233D01*
X155180952Y-120529233D02*
X155180952Y-121053043D01*
X154038095Y-120053043D02*
X153419048Y-120053043D01*
X153419048Y-120053043D02*
X153752381Y-120433995D01*
X153752381Y-120433995D02*
X153609524Y-120433995D01*
X153609524Y-120433995D02*
X153514286Y-120481614D01*
X153514286Y-120481614D02*
X153466667Y-120529233D01*
X153466667Y-120529233D02*
X153419048Y-120624471D01*
X153419048Y-120624471D02*
X153419048Y-120862566D01*
X153419048Y-120862566D02*
X153466667Y-120957804D01*
X153466667Y-120957804D02*
X153514286Y-121005424D01*
X153514286Y-121005424D02*
X153609524Y-121053043D01*
X153609524Y-121053043D02*
X153895238Y-121053043D01*
X153895238Y-121053043D02*
X153990476Y-121005424D01*
X153990476Y-121005424D02*
X154038095Y-120957804D01*
X152990476Y-120957804D02*
X152942857Y-121005424D01*
X152942857Y-121005424D02*
X152990476Y-121053043D01*
X152990476Y-121053043D02*
X153038095Y-121005424D01*
X153038095Y-121005424D02*
X152990476Y-120957804D01*
X152990476Y-120957804D02*
X152990476Y-121053043D01*
X152609524Y-120053043D02*
X151942858Y-120053043D01*
X151942858Y-120053043D02*
X152371429Y-121053043D01*
X151704762Y-120053043D02*
X151371429Y-121053043D01*
X151371429Y-121053043D02*
X151038096Y-120053043D01*
X149371429Y-120957804D02*
X149419048Y-121005424D01*
X149419048Y-121005424D02*
X149561905Y-121053043D01*
X149561905Y-121053043D02*
X149657143Y-121053043D01*
X149657143Y-121053043D02*
X149800000Y-121005424D01*
X149800000Y-121005424D02*
X149895238Y-120910185D01*
X149895238Y-120910185D02*
X149942857Y-120814947D01*
X149942857Y-120814947D02*
X149990476Y-120624471D01*
X149990476Y-120624471D02*
X149990476Y-120481614D01*
X149990476Y-120481614D02*
X149942857Y-120291138D01*
X149942857Y-120291138D02*
X149895238Y-120195900D01*
X149895238Y-120195900D02*
X149800000Y-120100662D01*
X149800000Y-120100662D02*
X149657143Y-120053043D01*
X149657143Y-120053043D02*
X149561905Y-120053043D01*
X149561905Y-120053043D02*
X149419048Y-120100662D01*
X149419048Y-120100662D02*
X149371429Y-120148281D01*
X148561905Y-121005424D02*
X148657143Y-121053043D01*
X148657143Y-121053043D02*
X148847619Y-121053043D01*
X148847619Y-121053043D02*
X148942857Y-121005424D01*
X148942857Y-121005424D02*
X148990476Y-120910185D01*
X148990476Y-120910185D02*
X148990476Y-120529233D01*
X148990476Y-120529233D02*
X148942857Y-120433995D01*
X148942857Y-120433995D02*
X148847619Y-120386376D01*
X148847619Y-120386376D02*
X148657143Y-120386376D01*
X148657143Y-120386376D02*
X148561905Y-120433995D01*
X148561905Y-120433995D02*
X148514286Y-120529233D01*
X148514286Y-120529233D02*
X148514286Y-120624471D01*
X148514286Y-120624471D02*
X148990476Y-120719709D01*
X147942857Y-121053043D02*
X148038095Y-121005424D01*
X148038095Y-121005424D02*
X148085714Y-120910185D01*
X148085714Y-120910185D02*
X148085714Y-120053043D01*
X147419047Y-121053043D02*
X147514285Y-121005424D01*
X147514285Y-121005424D02*
X147561904Y-120910185D01*
X147561904Y-120910185D02*
X147561904Y-120053043D01*
X146276189Y-121053043D02*
X146276189Y-120053043D01*
X146276189Y-120529233D02*
X145704761Y-120529233D01*
X145704761Y-121053043D02*
X145704761Y-120053043D01*
X145085713Y-121053043D02*
X145180951Y-121005424D01*
X145180951Y-121005424D02*
X145228570Y-120957804D01*
X145228570Y-120957804D02*
X145276189Y-120862566D01*
X145276189Y-120862566D02*
X145276189Y-120576852D01*
X145276189Y-120576852D02*
X145228570Y-120481614D01*
X145228570Y-120481614D02*
X145180951Y-120433995D01*
X145180951Y-120433995D02*
X145085713Y-120386376D01*
X145085713Y-120386376D02*
X144942856Y-120386376D01*
X144942856Y-120386376D02*
X144847618Y-120433995D01*
X144847618Y-120433995D02*
X144799999Y-120481614D01*
X144799999Y-120481614D02*
X144752380Y-120576852D01*
X144752380Y-120576852D02*
X144752380Y-120862566D01*
X144752380Y-120862566D02*
X144799999Y-120957804D01*
X144799999Y-120957804D02*
X144847618Y-121005424D01*
X144847618Y-121005424D02*
X144942856Y-121053043D01*
X144942856Y-121053043D02*
X145085713Y-121053043D01*
X144180951Y-121053043D02*
X144276189Y-121005424D01*
X144276189Y-121005424D02*
X144323808Y-120910185D01*
X144323808Y-120910185D02*
X144323808Y-120053043D01*
X143371427Y-121053043D02*
X143371427Y-120053043D01*
X143371427Y-121005424D02*
X143466665Y-121053043D01*
X143466665Y-121053043D02*
X143657141Y-121053043D01*
X143657141Y-121053043D02*
X143752379Y-121005424D01*
X143752379Y-121005424D02*
X143799998Y-120957804D01*
X143799998Y-120957804D02*
X143847617Y-120862566D01*
X143847617Y-120862566D02*
X143847617Y-120576852D01*
X143847617Y-120576852D02*
X143799998Y-120481614D01*
X143799998Y-120481614D02*
X143752379Y-120433995D01*
X143752379Y-120433995D02*
X143657141Y-120386376D01*
X143657141Y-120386376D02*
X143466665Y-120386376D01*
X143466665Y-120386376D02*
X143371427Y-120433995D01*
X142514284Y-121005424D02*
X142609522Y-121053043D01*
X142609522Y-121053043D02*
X142799998Y-121053043D01*
X142799998Y-121053043D02*
X142895236Y-121005424D01*
X142895236Y-121005424D02*
X142942855Y-120910185D01*
X142942855Y-120910185D02*
X142942855Y-120529233D01*
X142942855Y-120529233D02*
X142895236Y-120433995D01*
X142895236Y-120433995D02*
X142799998Y-120386376D01*
X142799998Y-120386376D02*
X142609522Y-120386376D01*
X142609522Y-120386376D02*
X142514284Y-120433995D01*
X142514284Y-120433995D02*
X142466665Y-120529233D01*
X142466665Y-120529233D02*
X142466665Y-120624471D01*
X142466665Y-120624471D02*
X142942855Y-120719709D01*
X142038093Y-121053043D02*
X142038093Y-120386376D01*
X142038093Y-120576852D02*
X141990474Y-120481614D01*
X141990474Y-120481614D02*
X141942855Y-120433995D01*
X141942855Y-120433995D02*
X141847617Y-120386376D01*
X141847617Y-120386376D02*
X141752379Y-120386376D01*
D11*
%TO.C,C3*%
X124746267Y-94302000D02*
X124453733Y-94302000D01*
X124746267Y-93282000D02*
X124453733Y-93282000D01*
%TO.C,U2*%
X152710000Y-91050000D02*
X152710000Y-92550000D01*
X151710000Y-91050000D02*
X152710000Y-91050000D01*
X133660000Y-91050000D02*
X133660000Y-90650000D01*
X133660000Y-91050000D02*
X126860000Y-91050000D01*
X126860000Y-91050000D02*
X126860000Y-109450000D01*
X152710000Y-109450000D02*
X152710000Y-107950000D01*
X152710000Y-109450000D02*
X151710000Y-109450000D01*
X126860000Y-109450000D02*
X133060000Y-109450000D01*
%TO.C,U3*%
X192511091Y-111287133D02*
X192514644Y-129712868D01*
X191964644Y-130262868D02*
X115538909Y-130259315D01*
X191961091Y-110737133D02*
X115538909Y-110737133D01*
X115000000Y-120498224D02*
X114988909Y-111287133D01*
X114988909Y-129709315D02*
X115000000Y-120498224D01*
X191964644Y-130262868D02*
G75*
G03*
X192514644Y-129712868I1J549999D01*
G01*
X192511091Y-111287133D02*
G75*
G03*
X191961091Y-110737133I-549999J1D01*
G01*
X114988909Y-129709315D02*
G75*
G03*
X115538909Y-130259315I549991J-9D01*
G01*
X115538909Y-110737133D02*
G75*
G03*
X114988909Y-111287133I-9J-549991D01*
G01*
X188062277Y-120467086D02*
G75*
G03*
X188062277Y-120467086I-1581139J0D01*
G01*
X122562277Y-120530208D02*
G75*
G03*
X122562277Y-120530208I-1581139J0D01*
G01*
%TO.C,C5*%
X124746267Y-92510000D02*
X124453733Y-92510000D01*
X124746267Y-91490000D02*
X124453733Y-91490000D01*
%TO.C,R1*%
X124854724Y-95914500D02*
X124345276Y-95914500D01*
X124854724Y-94869500D02*
X124345276Y-94869500D01*
%TO.C,C1*%
X121490000Y-94546267D02*
X121490000Y-94253733D01*
X122510000Y-94546267D02*
X122510000Y-94253733D01*
%TD*%
%LPC*%
D12*
%TO.C,H3*%
X103500000Y-136000000D03*
%TD*%
D13*
%TO.C,SW4*%
X165900000Y-137500000D03*
X174100000Y-137500000D03*
D14*
X168000000Y-137500000D03*
D15*
X170000000Y-137500000D03*
X172000000Y-137500000D03*
%TD*%
D16*
%TO.C,U7*%
X109500000Y-107575000D03*
X119500000Y-107575000D03*
X114500000Y-105550000D03*
X114500000Y-96950000D03*
X109500000Y-94925000D03*
X119500000Y-94925000D03*
X117000000Y-92520000D03*
X114500000Y-92520000D03*
X112000000Y-92520000D03*
X105770000Y-98750000D03*
X105770000Y-101250000D03*
X105770000Y-103750000D03*
D17*
X120250000Y-104500000D03*
X124750000Y-104500000D03*
X120250000Y-98000000D03*
X124750000Y-98000000D03*
%TD*%
D16*
%TO.C,SW3*%
X195250000Y-118750000D03*
X195250000Y-112250000D03*
X199750000Y-118750000D03*
X199750000Y-112250000D03*
%TD*%
D12*
%TO.C,H2*%
X205500000Y-94000000D03*
%TD*%
D16*
%TO.C,U8*%
X189500000Y-107575000D03*
X199500000Y-107575000D03*
X194500000Y-105550000D03*
X194500000Y-96950000D03*
X189500000Y-94925000D03*
X199500000Y-94925000D03*
X197000000Y-92520000D03*
X194500000Y-92520000D03*
X192000000Y-92520000D03*
X185770000Y-98750000D03*
X185770000Y-101250000D03*
X185770000Y-103750000D03*
D17*
X200250000Y-104500000D03*
X204750000Y-104500000D03*
X200250000Y-98000000D03*
X204750000Y-98000000D03*
%TD*%
D12*
%TO.C,H1*%
X103500000Y-94000000D03*
%TD*%
D18*
%TO.C,J2*%
X151610000Y-133685000D03*
X157390000Y-133685000D03*
D19*
X150180000Y-133185000D03*
D20*
X150180000Y-137365000D03*
D19*
X158820000Y-133185000D03*
D20*
X158820000Y-137365000D03*
%TD*%
D12*
%TO.C,H4*%
X205500000Y-136000000D03*
%TD*%
D21*
%TO.C,J1*%
X160460000Y-93000000D03*
D22*
X163000000Y-93000000D03*
X165540000Y-93000000D03*
X168080000Y-93000000D03*
%TD*%
D21*
%TO.C,U6*%
X134880000Y-135400000D03*
D23*
X134880000Y-132860000D03*
X137420000Y-135400000D03*
X137420000Y-132860000D03*
X139960000Y-135400000D03*
X139960000Y-132860000D03*
X142500000Y-135400000D03*
X142500000Y-132860000D03*
%TD*%
D24*
%TO.C,C3*%
X125462500Y-93792000D03*
X123737500Y-93792000D03*
%TD*%
D25*
%TO.C,U2*%
X134500000Y-91500000D03*
X135770000Y-91500000D03*
X137040000Y-91500000D03*
X138310000Y-91500000D03*
X139580000Y-91500000D03*
X140850000Y-91500000D03*
X142120000Y-91500000D03*
X143390000Y-91500000D03*
X144660000Y-91500000D03*
X145930000Y-91500000D03*
X147200000Y-91500000D03*
X148470000Y-91500000D03*
X149740000Y-91500000D03*
X151010000Y-91500000D03*
D26*
X152260000Y-93265000D03*
X152260000Y-94535000D03*
X152260000Y-95805000D03*
X152260000Y-97075000D03*
X152260000Y-98345000D03*
X152260000Y-99615000D03*
X152260000Y-100885000D03*
X152260000Y-102155000D03*
X152260000Y-103425000D03*
X152260000Y-104695000D03*
X152260000Y-105965000D03*
X152260000Y-107235000D03*
D25*
X151010000Y-109000000D03*
X149740000Y-109000000D03*
X148470000Y-109000000D03*
X147200000Y-109000000D03*
X145930000Y-109000000D03*
X144660000Y-109000000D03*
X143390000Y-109000000D03*
X142120000Y-109000000D03*
X140850000Y-109000000D03*
X139580000Y-109000000D03*
X138310000Y-109000000D03*
X137040000Y-109000000D03*
X135770000Y-109000000D03*
X134500000Y-109000000D03*
D27*
X142920000Y-97350000D03*
X141520000Y-97350000D03*
X143620000Y-98050000D03*
X142220000Y-98050000D03*
X140820000Y-98050000D03*
X142920000Y-98750000D03*
D28*
X142220000Y-98750000D03*
D27*
X141520000Y-98750000D03*
X143620000Y-99450000D03*
X142220000Y-99450000D03*
X140820000Y-99450000D03*
X142920000Y-100150000D03*
X141520000Y-100150000D03*
%TD*%
D29*
%TO.C,U3*%
X190000000Y-120498224D03*
X117500000Y-120498224D03*
%TD*%
D24*
%TO.C,C5*%
X125462500Y-92000000D03*
X123737500Y-92000000D03*
%TD*%
D30*
%TO.C,R1*%
X125512500Y-95392000D03*
X123687500Y-95392000D03*
%TD*%
D31*
%TO.C,C1*%
X122000000Y-95262500D03*
X122000000Y-93537500D03*
%TD*%
%LPD*%
M02*
