%TF.GenerationSoftware,KiCad,Pcbnew,7.0.6-0*%
%TF.CreationDate,2024-04-21T20:32:30+02:00*%
%TF.ProjectId,3mode_controller,336d6f64-655f-4636-9f6e-74726f6c6c65,rev?*%
%TF.SameCoordinates,Original*%
%TF.FileFunction,Copper,L2,Bot*%
%TF.FilePolarity,Positive*%
%FSLAX46Y46*%
G04 Gerber Fmt 4.6, Leading zero omitted, Abs format (unit mm)*
G04 Created by KiCad (PCBNEW 7.0.6-0) date 2024-04-21 20:32:30*
%MOMM*%
%LPD*%
G01*
G04 APERTURE LIST*
G04 Aperture macros list*
%AMRoundRect*
0 Rectangle with rounded corners*
0 $1 Rounding radius*
0 $2 $3 $4 $5 $6 $7 $8 $9 X,Y pos of 4 corners*
0 Add a 4 corners polygon primitive as box body*
4,1,4,$2,$3,$4,$5,$6,$7,$8,$9,$2,$3,0*
0 Add four circle primitives for the rounded corners*
1,1,$1+$1,$2,$3*
1,1,$1+$1,$4,$5*
1,1,$1+$1,$6,$7*
1,1,$1+$1,$8,$9*
0 Add four rect primitives between the rounded corners*
20,1,$1+$1,$2,$3,$4,$5,0*
20,1,$1+$1,$4,$5,$6,$7,0*
20,1,$1+$1,$6,$7,$8,$9,0*
20,1,$1+$1,$8,$9,$2,$3,0*%
G04 Aperture macros list end*
%TA.AperFunction,ComponentPad*%
%ADD10C,5.500000*%
%TD*%
%TA.AperFunction,ComponentPad*%
%ADD11O,2.200000X3.500000*%
%TD*%
%TA.AperFunction,ComponentPad*%
%ADD12R,1.500000X2.500000*%
%TD*%
%TA.AperFunction,ComponentPad*%
%ADD13O,1.500000X2.500000*%
%TD*%
%TA.AperFunction,WasherPad*%
%ADD14C,2.000000*%
%TD*%
%TA.AperFunction,ComponentPad*%
%ADD15C,2.000000*%
%TD*%
%TA.AperFunction,ComponentPad*%
%ADD16C,2.200000*%
%TD*%
%TA.AperFunction,ComponentPad*%
%ADD17O,1.000000X2.100000*%
%TD*%
%TA.AperFunction,ComponentPad*%
%ADD18O,1.000000X1.800000*%
%TD*%
%TA.AperFunction,ComponentPad*%
%ADD19R,1.700000X1.700000*%
%TD*%
%TA.AperFunction,ComponentPad*%
%ADD20O,1.700000X1.700000*%
%TD*%
%TA.AperFunction,ComponentPad*%
%ADD21C,1.700000*%
%TD*%
%TA.AperFunction,SMDPad,CuDef*%
%ADD22RoundRect,0.237500X0.300000X0.237500X-0.300000X0.237500X-0.300000X-0.237500X0.300000X-0.237500X0*%
%TD*%
%TA.AperFunction,SMDPad,CuDef*%
%ADD23R,0.900000X1.500000*%
%TD*%
%TA.AperFunction,SMDPad,CuDef*%
%ADD24R,1.500000X0.900000*%
%TD*%
%TA.AperFunction,HeatsinkPad*%
%ADD25C,0.600000*%
%TD*%
%TA.AperFunction,SMDPad,CuDef*%
%ADD26R,3.900000X3.900000*%
%TD*%
%TA.AperFunction,ComponentPad*%
%ADD27R,1.500000X3.000000*%
%TD*%
%TA.AperFunction,SMDPad,CuDef*%
%ADD28RoundRect,0.237500X0.250000X0.237500X-0.250000X0.237500X-0.250000X-0.237500X0.250000X-0.237500X0*%
%TD*%
%TA.AperFunction,SMDPad,CuDef*%
%ADD29RoundRect,0.237500X0.237500X-0.300000X0.237500X0.300000X-0.237500X0.300000X-0.237500X-0.300000X0*%
%TD*%
%TA.AperFunction,ViaPad*%
%ADD30C,0.800000*%
%TD*%
%TA.AperFunction,Conductor*%
%ADD31C,0.250000*%
%TD*%
%TA.AperFunction,Conductor*%
%ADD32C,0.200000*%
%TD*%
G04 APERTURE END LIST*
D10*
%TO.P,H3,1*%
%TO.N,N/C*%
X103500000Y-136000000D03*
%TD*%
D11*
%TO.P,SW4,*%
%TO.N,*%
X165900000Y-137500000D03*
X174100000Y-137500000D03*
D12*
%TO.P,SW4,1,A*%
%TO.N,unconnected-(SW4-A-Pad1)*%
X168000000Y-137500000D03*
D13*
%TO.P,SW4,2,B*%
%TO.N,VSPLY*%
X170000000Y-137500000D03*
%TO.P,SW4,3,C*%
%TO.N,Net-(SW4-C)*%
X172000000Y-137500000D03*
%TD*%
D14*
%TO.P,U7,*%
%TO.N,*%
X109500000Y-107575000D03*
X119500000Y-107575000D03*
X114500000Y-105550000D03*
X114500000Y-96950000D03*
X109500000Y-94925000D03*
X119500000Y-94925000D03*
D15*
%TO.P,U7,1,LR1*%
%TO.N,+3.3V*%
X117000000Y-92520000D03*
%TO.P,U7,2,LR2*%
%TO.N,unconnected-(U7-LR2-Pad2)*%
X114500000Y-92520000D03*
%TO.P,U7,3,LR3*%
%TO.N,GND*%
X112000000Y-92520000D03*
%TO.P,U7,4,UD1*%
%TO.N,+3.3V*%
X105770000Y-98750000D03*
%TO.P,U7,5,UD2*%
%TO.N,ESP32_JOYSTICK_Y*%
X105770000Y-101250000D03*
%TO.P,U7,6,UD3*%
%TO.N,GND*%
X105770000Y-103750000D03*
D16*
%TO.P,U7,7,SWa*%
%TO.N,unconnected-(U7-SWa-Pad7)*%
X120250000Y-104500000D03*
%TO.P,U7,8,SWb*%
%TO.N,unconnected-(U7-SWb-Pad8)*%
X124750000Y-104500000D03*
%TO.P,U7,9,SWc*%
%TO.N,GND*%
X120250000Y-98000000D03*
%TO.P,U7,10,SWd*%
%TO.N,unconnected-(U7-SWd-Pad10)*%
X124750000Y-98000000D03*
%TD*%
D15*
%TO.P,SW3,1,1*%
%TO.N,ESP32_BUTTON*%
X195250000Y-118750000D03*
X195250000Y-112250000D03*
%TO.P,SW3,2,2*%
%TO.N,GND*%
X199750000Y-118750000D03*
X199750000Y-112250000D03*
%TD*%
D10*
%TO.P,H2,1*%
%TO.N,N/C*%
X205500000Y-94000000D03*
%TD*%
D14*
%TO.P,U8,*%
%TO.N,*%
X189500000Y-107575000D03*
X199500000Y-107575000D03*
X194500000Y-105550000D03*
X194500000Y-96950000D03*
X189500000Y-94925000D03*
X199500000Y-94925000D03*
D15*
%TO.P,U8,1,LR1*%
%TO.N,+3.3V*%
X197000000Y-92520000D03*
%TO.P,U8,2,LR2*%
%TO.N,ESP32_JOYSTICK_X*%
X194500000Y-92520000D03*
%TO.P,U8,3,LR3*%
%TO.N,GND*%
X192000000Y-92520000D03*
%TO.P,U8,4,UD1*%
%TO.N,+3.3V*%
X185770000Y-98750000D03*
%TO.P,U8,5,UD2*%
%TO.N,unconnected-(U8-UD2-Pad5)*%
X185770000Y-101250000D03*
%TO.P,U8,6,UD3*%
%TO.N,GND*%
X185770000Y-103750000D03*
D16*
%TO.P,U8,7,SWa*%
%TO.N,unconnected-(U8-SWa-Pad7)*%
X200250000Y-104500000D03*
%TO.P,U8,8,SWb*%
%TO.N,unconnected-(U8-SWb-Pad8)*%
X204750000Y-104500000D03*
%TO.P,U8,9,SWc*%
%TO.N,GND*%
X200250000Y-98000000D03*
%TO.P,U8,10,SWd*%
%TO.N,unconnected-(U8-SWd-Pad10)*%
X204750000Y-98000000D03*
%TD*%
D10*
%TO.P,H1,1*%
%TO.N,N/C*%
X103500000Y-94000000D03*
%TD*%
D17*
%TO.P,J2,S1,SHIELD*%
%TO.N,GND*%
X150180000Y-133185000D03*
D18*
X150180000Y-137365000D03*
D17*
X158820000Y-133185000D03*
D18*
X158820000Y-137365000D03*
%TD*%
D10*
%TO.P,H4,1*%
%TO.N,N/C*%
X205500000Y-136000000D03*
%TD*%
D19*
%TO.P,J1,1,Pin_1*%
%TO.N,GND*%
X160460000Y-93000000D03*
D20*
%TO.P,J1,2,Pin_2*%
%TO.N,+3.3V*%
X163000000Y-93000000D03*
%TO.P,J1,3,Pin_3*%
%TO.N,ESP32_SCREEN_SCK*%
X165540000Y-93000000D03*
%TO.P,J1,4,Pin_4*%
%TO.N,ESP32_SCREEN_SDA*%
X168080000Y-93000000D03*
%TD*%
D19*
%TO.P,U6,1,GND*%
%TO.N,GND*%
X134880000Y-135400000D03*
D21*
%TO.P,U6,2,VCC*%
%TO.N,+3.3V*%
X134880000Y-132860000D03*
%TO.P,U6,3,CE*%
%TO.N,ESP32_RF_SPI_CE*%
X137420000Y-135400000D03*
%TO.P,U6,4,~{CSN}*%
%TO.N,ESP32_RF_SPI_CNS*%
X137420000Y-132860000D03*
%TO.P,U6,5,SCK*%
%TO.N,ESP32_RF_SPI_SCK*%
X139960000Y-135400000D03*
%TO.P,U6,6,MOSI*%
%TO.N,ESP32_RF_SPI_MOSI*%
X139960000Y-132860000D03*
%TO.P,U6,7,MISO*%
%TO.N,ESP32_RF_SPI_MISO*%
X142500000Y-135400000D03*
%TO.P,U6,8,IRQ*%
%TO.N,unconnected-(U6-IRQ-Pad8)*%
X142500000Y-132860000D03*
%TD*%
D22*
%TO.P,C3,1*%
%TO.N,+3.3V*%
X125462500Y-93792000D03*
%TO.P,C3,2*%
%TO.N,GND*%
X123737500Y-93792000D03*
%TD*%
D23*
%TO.P,U2,1,GND*%
%TO.N,GND*%
X134500000Y-91500000D03*
%TO.P,U2,2,3V3*%
%TO.N,+3.3V*%
X135770000Y-91500000D03*
%TO.P,U2,3,EN*%
%TO.N,ESP32-RESET*%
X137040000Y-91500000D03*
%TO.P,U2,4,GPIO4/TOUCH4/ADC1_CH3*%
%TO.N,ESP32_RF_SPI_CE*%
X138310000Y-91500000D03*
%TO.P,U2,5,GPIO5/TOUCH5/ADC1_CH4*%
%TO.N,ESP32_BUTTON*%
X139580000Y-91500000D03*
%TO.P,U2,6,GPIO6/TOUCH6/ADC1_CH5*%
%TO.N,unconnected-(U2-GPIO6{slash}TOUCH6{slash}ADC1_CH5-Pad6)*%
X140850000Y-91500000D03*
%TO.P,U2,7,GPIO7/TOUCH7/ADC1_CH6*%
%TO.N,unconnected-(U2-GPIO7{slash}TOUCH7{slash}ADC1_CH6-Pad7)*%
X142120000Y-91500000D03*
%TO.P,U2,8,GPIO15/U0RTS/ADC2_CH4/XTAL_32K_P*%
%TO.N,unconnected-(U2-GPIO15{slash}U0RTS{slash}ADC2_CH4{slash}XTAL_32K_P-Pad8)*%
X143390000Y-91500000D03*
%TO.P,U2,9,GPIO16/U0CTS/ADC2_CH5/XTAL_32K_N*%
%TO.N,unconnected-(U2-GPIO16{slash}U0CTS{slash}ADC2_CH5{slash}XTAL_32K_N-Pad9)*%
X144660000Y-91500000D03*
%TO.P,U2,10,GPIO17/U1TXD/ADC2_CH6*%
%TO.N,unconnected-(U2-GPIO17{slash}U1TXD{slash}ADC2_CH6-Pad10)*%
X145930000Y-91500000D03*
%TO.P,U2,11,GPIO18/U1RXD/ADC2_CH7/CLK_OUT3*%
%TO.N,unconnected-(U2-GPIO18{slash}U1RXD{slash}ADC2_CH7{slash}CLK_OUT3-Pad11)*%
X147200000Y-91500000D03*
%TO.P,U2,12,GPIO8/TOUCH8/ADC1_CH7/SUBSPICS1*%
%TO.N,ESP32_SCREEN_SCK*%
X148470000Y-91500000D03*
%TO.P,U2,13,GPIO19/U1RTS/ADC2_CH8/CLK_OUT2/USB_D-*%
%TO.N,ESP32-D-*%
X149740000Y-91500000D03*
%TO.P,U2,14,GPIO20/U1CTS/ADC2_CH9/CLK_OUT1/USB_D+*%
%TO.N,ESP32-D+*%
X151010000Y-91500000D03*
D24*
%TO.P,U2,15,GPIO3/TOUCH3/ADC1_CH2*%
%TO.N,unconnected-(U2-GPIO3{slash}TOUCH3{slash}ADC1_CH2-Pad15)*%
X152260000Y-93265000D03*
%TO.P,U2,16,GPIO46*%
%TO.N,unconnected-(U2-GPIO46-Pad16)*%
X152260000Y-94535000D03*
%TO.P,U2,17,GPIO9/TOUCH9/ADC1_CH8/FSPIHD/SUBSPIHD*%
%TO.N,ESP32_SCREEN_SDA*%
X152260000Y-95805000D03*
%TO.P,U2,18,GPIO10/TOUCH10/ADC1_CH9/FSPICS0/FSPIIO4/SUBSPICS0*%
%TO.N,ESP32_RF_SPI_CNS*%
X152260000Y-97075000D03*
%TO.P,U2,19,GPIO11/TOUCH11/ADC2_CH0/FSPID/FSPIIO5/SUBSPID*%
%TO.N,ESP32_RF_SPI_MOSI*%
X152260000Y-98345000D03*
%TO.P,U2,20,GPIO12/TOUCH12/ADC2_CH1/FSPICLK/FSPIIO6/SUBSPICLK*%
%TO.N,ESP32_RF_SPI_SCK*%
X152260000Y-99615000D03*
%TO.P,U2,21,GPIO13/TOUCH13/ADC2_CH2/FSPIQ/FSPIIO7/SUBSPIQ*%
%TO.N,ESP32_RF_SPI_MISO*%
X152260000Y-100885000D03*
%TO.P,U2,22,GPIO14/TOUCH14/ADC2_CH3/FSPIWP/FSPIDQS/SUBSPIWP*%
%TO.N,unconnected-(U2-GPIO14{slash}TOUCH14{slash}ADC2_CH3{slash}FSPIWP{slash}FSPIDQS{slash}SUBSPIWP-Pad22)*%
X152260000Y-102155000D03*
%TO.P,U2,23,GPIO21*%
%TO.N,unconnected-(U2-GPIO21-Pad23)*%
X152260000Y-103425000D03*
%TO.P,U2,24,GPIO47/SPICLK_P/SUBSPICLK_P_DIFF*%
%TO.N,unconnected-(U2-GPIO47{slash}SPICLK_P{slash}SUBSPICLK_P_DIFF-Pad24)*%
X152260000Y-104695000D03*
%TO.P,U2,25,GPIO48/SPICLK_N/SUBSPICLK_N_DIFF*%
%TO.N,unconnected-(U2-GPIO48{slash}SPICLK_N{slash}SUBSPICLK_N_DIFF-Pad25)*%
X152260000Y-105965000D03*
%TO.P,U2,26,GPIO45*%
%TO.N,unconnected-(U2-GPIO45-Pad26)*%
X152260000Y-107235000D03*
D23*
%TO.P,U2,27,GPIO0/BOOT*%
%TO.N,ESP32-BOOT0*%
X151010000Y-109000000D03*
%TO.P,U2,28,SPIIO6/GPIO35/FSPID/SUBSPID*%
%TO.N,unconnected-(U2-SPIIO6{slash}GPIO35{slash}FSPID{slash}SUBSPID-Pad28)*%
X149740000Y-109000000D03*
%TO.P,U2,29,SPIIO7/GPIO36/FSPICLK/SUBSPICLK*%
%TO.N,unconnected-(U2-SPIIO7{slash}GPIO36{slash}FSPICLK{slash}SUBSPICLK-Pad29)*%
X148470000Y-109000000D03*
%TO.P,U2,30,SPIDQS/GPIO37/FSPIQ/SUBSPIQ*%
%TO.N,unconnected-(U2-SPIDQS{slash}GPIO37{slash}FSPIQ{slash}SUBSPIQ-Pad30)*%
X147200000Y-109000000D03*
%TO.P,U2,31,GPIO38/FSPIWP/SUBSPIWP*%
%TO.N,unconnected-(U2-GPIO38{slash}FSPIWP{slash}SUBSPIWP-Pad31)*%
X145930000Y-109000000D03*
%TO.P,U2,32,MTCK/GPIO39/CLK_OUT3/SUBSPICS1*%
%TO.N,unconnected-(U2-MTCK{slash}GPIO39{slash}CLK_OUT3{slash}SUBSPICS1-Pad32)*%
X144660000Y-109000000D03*
%TO.P,U2,33,MTDO/GPIO40/CLK_OUT2*%
%TO.N,unconnected-(U2-MTDO{slash}GPIO40{slash}CLK_OUT2-Pad33)*%
X143390000Y-109000000D03*
%TO.P,U2,34,MTDI/GPIO41/CLK_OUT1*%
%TO.N,unconnected-(U2-MTDI{slash}GPIO41{slash}CLK_OUT1-Pad34)*%
X142120000Y-109000000D03*
%TO.P,U2,35,MTMS/GPIO42*%
%TO.N,unconnected-(U2-MTMS{slash}GPIO42-Pad35)*%
X140850000Y-109000000D03*
%TO.P,U2,36,U0RXD/GPIO44/CLK_OUT2*%
%TO.N,unconnected-(U2-U0RXD{slash}GPIO44{slash}CLK_OUT2-Pad36)*%
X139580000Y-109000000D03*
%TO.P,U2,37,U0TXD/GPIO43/CLK_OUT1*%
%TO.N,unconnected-(U2-U0TXD{slash}GPIO43{slash}CLK_OUT1-Pad37)*%
X138310000Y-109000000D03*
%TO.P,U2,38,GPIO2/TOUCH2/ADC1_CH1*%
%TO.N,ESP32_JOYSTICK_X*%
X137040000Y-109000000D03*
%TO.P,U2,39,GPIO1/TOUCH1/ADC1_CH0*%
%TO.N,ESP32_JOYSTICK_Y*%
X135770000Y-109000000D03*
%TO.P,U2,40,GND*%
%TO.N,GND*%
X134500000Y-109000000D03*
D25*
%TO.P,U2,41,GND*%
X142920000Y-97350000D03*
X141520000Y-97350000D03*
X143620000Y-98050000D03*
X142220000Y-98050000D03*
X140820000Y-98050000D03*
X142920000Y-98750000D03*
D26*
X142220000Y-98750000D03*
D25*
X141520000Y-98750000D03*
X143620000Y-99450000D03*
X142220000Y-99450000D03*
X140820000Y-99450000D03*
X142920000Y-100150000D03*
X141520000Y-100150000D03*
%TD*%
D27*
%TO.P,U3,1,V+*%
%TO.N,VBAT+PROTECT*%
X190000000Y-120498224D03*
%TO.P,U3,2,V-*%
%TO.N,Net-(IC1-GND)*%
X117500000Y-120498224D03*
%TD*%
D22*
%TO.P,C5,1*%
%TO.N,+3.3V*%
X125462500Y-92000000D03*
%TO.P,C5,2*%
%TO.N,GND*%
X123737500Y-92000000D03*
%TD*%
D28*
%TO.P,R1,1*%
%TO.N,+3.3V*%
X125512500Y-95392000D03*
%TO.P,R1,2*%
%TO.N,ESP32-RESET*%
X123687500Y-95392000D03*
%TD*%
D29*
%TO.P,C1,1*%
%TO.N,ESP32-RESET*%
X122000000Y-95262500D03*
%TO.P,C1,2*%
%TO.N,GND*%
X122000000Y-93537500D03*
%TD*%
D30*
%TO.N,ESP32-RESET*%
X121400000Y-110600000D03*
%TO.N,GND*%
X136000000Y-119800000D03*
X138000000Y-129000000D03*
X192200000Y-126000000D03*
X171000000Y-135400000D03*
X140600000Y-116600000D03*
X176000000Y-131200000D03*
X178600000Y-127000000D03*
X177800000Y-132800000D03*
X154400000Y-92200000D03*
%TO.N,+3.3V*%
X149500500Y-126000000D03*
X135800000Y-93600000D03*
X155600000Y-126000000D03*
X141800000Y-130400000D03*
%TO.N,Net-(IC1-GND)*%
X192400000Y-123600000D03*
%TO.N,ESP32_BUTTON*%
X186200000Y-95525500D03*
X148000000Y-95525500D03*
%TO.N,Net-(SW4-C)*%
X161200000Y-124200000D03*
X166800000Y-130800000D03*
%TO.N,VSPLY*%
X171600000Y-126200000D03*
X171600000Y-132800000D03*
%TO.N,Net-(J2-CC1)*%
X154600000Y-130800000D03*
X153800000Y-133835500D03*
%TO.N,ESP32-D+*%
X150600000Y-105400000D03*
%TO.N,ESP32-D-*%
X149600000Y-105400000D03*
%TO.N,VBAT+PROTECT*%
X183400000Y-131000000D03*
X178400000Y-131000000D03*
%TO.N,ESP32-BOOT0*%
X134600000Y-112600000D03*
%TO.N,ESP32_RF_SPI_CNS*%
X143348212Y-126883930D03*
%TO.N,ESP32_RF_SPI_MOSI*%
X142400000Y-127200000D03*
%TO.N,ESP32_JOYSTICK_X*%
X137200000Y-106800000D03*
%TO.N,ESP32_JOYSTICK_Y*%
X135600000Y-106800000D03*
%TD*%
D31*
%TO.N,ESP32-RESET*%
X135808000Y-96192000D02*
X137040000Y-94960000D01*
X122000000Y-95262500D02*
X123558000Y-95262500D01*
X124487500Y-96192000D02*
X135808000Y-96192000D01*
X137040000Y-94960000D02*
X137040000Y-91500000D01*
X121400000Y-110600000D02*
X137040000Y-94960000D01*
X123687500Y-95392000D02*
X124487500Y-96192000D01*
X123558000Y-95262500D02*
X123687500Y-95392000D01*
%TO.N,+3.3V*%
X168750000Y-98750000D02*
X185770000Y-98750000D01*
X125512500Y-95392000D02*
X125512500Y-92050000D01*
X134880000Y-132860000D02*
X136005000Y-131735000D01*
X135800000Y-91530000D02*
X135770000Y-91500000D01*
X136005000Y-131735000D02*
X140465000Y-131735000D01*
X135800000Y-93600000D02*
X135800000Y-91530000D01*
X140465000Y-131735000D02*
X141800000Y-130400000D01*
X149500500Y-126000000D02*
X155600000Y-126000000D01*
X163000000Y-93000000D02*
X168750000Y-98750000D01*
X125512500Y-92050000D02*
X125462500Y-92000000D01*
%TO.N,Net-(IC1-GND)*%
X117500000Y-121248224D02*
X133451776Y-137200000D01*
X117500000Y-120498224D02*
X117500000Y-121248224D01*
X151418274Y-134560000D02*
X181440000Y-134560000D01*
X181440000Y-134560000D02*
X192400000Y-123600000D01*
X133451776Y-137200000D02*
X148778274Y-137200000D01*
X148778274Y-137200000D02*
X151418274Y-134560000D01*
%TO.N,ESP32_BUTTON*%
X139580000Y-92500000D02*
X142605500Y-95525500D01*
X142605500Y-95525500D02*
X148000000Y-95525500D01*
X187095000Y-96420500D02*
X187095000Y-102695000D01*
X139580000Y-91500000D02*
X139580000Y-92500000D01*
X187095000Y-102695000D02*
X195250000Y-110850000D01*
X186200000Y-95525500D02*
X187095000Y-96420500D01*
X195250000Y-110850000D02*
X195250000Y-112250000D01*
%TO.N,Net-(SW4-C)*%
X166800000Y-130800000D02*
X166800000Y-129800000D01*
X166800000Y-129800000D02*
X161200000Y-124200000D01*
%TO.N,VSPLY*%
X171600000Y-132800000D02*
X171600000Y-126200000D01*
%TO.N,Net-(J2-CC1)*%
X153800000Y-133835500D02*
X154600000Y-133035500D01*
X154600000Y-133035500D02*
X154600000Y-130800000D01*
D32*
%TO.N,ESP32-D+*%
X151010000Y-91500000D02*
X151010000Y-104990000D01*
X151010000Y-104990000D02*
X150600000Y-105400000D01*
%TO.N,ESP32-D-*%
X150610000Y-94420000D02*
X150610000Y-102400000D01*
X150600000Y-94410000D02*
X150610000Y-94420000D01*
X150610000Y-102400000D02*
X150610000Y-104390000D01*
X149740000Y-93530000D02*
X150610000Y-94400000D01*
X150610000Y-94400000D02*
X150600000Y-94410000D01*
X150610000Y-104390000D02*
X149600000Y-105400000D01*
X149740000Y-91500000D02*
X149740000Y-93530000D01*
D31*
%TO.N,VBAT+PROTECT*%
X178400000Y-131000000D02*
X183400000Y-131000000D01*
%TO.N,ESP32_SCREEN_SCK*%
X148470000Y-90500000D02*
X148470000Y-91500000D01*
X163015000Y-90475000D02*
X148495000Y-90475000D01*
X165540000Y-93000000D02*
X163015000Y-90475000D01*
X148495000Y-90475000D02*
X148470000Y-90500000D01*
%TO.N,ESP32_SCREEN_SDA*%
X157670000Y-90875000D02*
X152740000Y-95805000D01*
X162849314Y-90875000D02*
X157670000Y-90875000D01*
X168080000Y-93000000D02*
X168080000Y-94202081D01*
X164125000Y-93465991D02*
X164125000Y-92150686D01*
X164861090Y-94202081D02*
X164125000Y-93465991D01*
X164125000Y-92150686D02*
X162849314Y-90875000D01*
X168080000Y-94202081D02*
X164861090Y-94202081D01*
X152740000Y-95805000D02*
X152260000Y-95805000D01*
%TO.N,ESP32-BOOT0*%
X151010000Y-109000000D02*
X151010000Y-110000000D01*
X151010000Y-110000000D02*
X148410000Y-112600000D01*
X148410000Y-112600000D02*
X134600000Y-112600000D01*
%TO.N,ESP32_RF_SPI_CE*%
X138310000Y-94326396D02*
X133118198Y-99518198D01*
X138310000Y-91500000D02*
X138310000Y-94326396D01*
X133118198Y-99518198D02*
X133118198Y-135988198D01*
X136245000Y-136575000D02*
X137420000Y-135400000D01*
X133705000Y-136575000D02*
X136245000Y-136575000D01*
X133118198Y-135988198D02*
X133705000Y-136575000D01*
%TO.N,ESP32_RF_SPI_CNS*%
X153260000Y-97075000D02*
X154700000Y-98515000D01*
X154700000Y-112200000D02*
X154700000Y-112409188D01*
X142850000Y-126385718D02*
X143348212Y-126883930D01*
X144054594Y-123054594D02*
X142850000Y-124259188D01*
X154700000Y-112409188D02*
X144054594Y-123054594D01*
X152260000Y-97075000D02*
X153260000Y-97075000D01*
X142850000Y-124259188D02*
X142850000Y-126385718D01*
X154700000Y-98515000D02*
X154700000Y-112200000D01*
%TO.N,ESP32_RF_SPI_MOSI*%
X154250000Y-112222792D02*
X145536396Y-120936396D01*
X145536396Y-120936396D02*
X142400000Y-124072792D01*
X154250000Y-99335000D02*
X154250000Y-112222792D01*
X152260000Y-98345000D02*
X153260000Y-98345000D01*
X142400000Y-124072792D02*
X142400000Y-127200000D01*
X153260000Y-98345000D02*
X154250000Y-99335000D01*
%TO.N,ESP32_RF_SPI_SCK*%
X153260000Y-99615000D02*
X153800000Y-100155000D01*
X141135000Y-136575000D02*
X139960000Y-135400000D01*
X141675000Y-128875000D02*
X141675000Y-124161396D01*
X153800000Y-100155000D02*
X153800000Y-112036396D01*
X141675000Y-124161396D02*
X153800000Y-112036396D01*
X143225000Y-136575000D02*
X141135000Y-136575000D01*
X143675000Y-130875000D02*
X141675000Y-128875000D01*
X143675000Y-136125000D02*
X143225000Y-136575000D01*
X143675000Y-130875000D02*
X143675000Y-136125000D01*
X152260000Y-99615000D02*
X153260000Y-99615000D01*
%TO.N,ESP32_RF_SPI_MISO*%
X141300000Y-134200000D02*
X134558299Y-134200000D01*
X133600000Y-133241701D02*
X133600000Y-131600000D01*
X153335000Y-100960000D02*
X153260000Y-100885000D01*
X133600000Y-131600000D02*
X153335000Y-111865000D01*
X142500000Y-135400000D02*
X141300000Y-134200000D01*
X134558299Y-134200000D02*
X133600000Y-133241701D01*
X153260000Y-100885000D02*
X152260000Y-100885000D01*
X153335000Y-111865000D02*
X153335000Y-100960000D01*
%TO.N,ESP32_JOYSTICK_X*%
X137040000Y-109000000D02*
X137040000Y-106960000D01*
X137040000Y-106960000D02*
X137200000Y-106800000D01*
%TO.N,ESP32_JOYSTICK_Y*%
X135600000Y-108830000D02*
X135770000Y-109000000D01*
X135600000Y-106800000D02*
X135600000Y-108830000D01*
%TD*%
%TA.AperFunction,Conductor*%
%TO.N,GND*%
G36*
X148367519Y-90020185D02*
G01*
X148413274Y-90072989D01*
X148423218Y-90142147D01*
X148394193Y-90205703D01*
X148369372Y-90227600D01*
X148319378Y-90261006D01*
X148319376Y-90261007D01*
X148296376Y-90276376D01*
X148296375Y-90276377D01*
X148287739Y-90285013D01*
X148286825Y-90284099D01*
X148279096Y-90291828D01*
X148280010Y-90292742D01*
X148271375Y-90301376D01*
X148217268Y-90382352D01*
X148201848Y-90401141D01*
X148200860Y-90402128D01*
X148203559Y-90427224D01*
X148203146Y-90429399D01*
X148189164Y-90499691D01*
X148156779Y-90561602D01*
X148096064Y-90596176D01*
X148067547Y-90599500D01*
X148005178Y-90599500D01*
X147961282Y-90608231D01*
X147961279Y-90608232D01*
X147903890Y-90646578D01*
X147837212Y-90667455D01*
X147769832Y-90648970D01*
X147766110Y-90646578D01*
X147708723Y-90608234D01*
X147708722Y-90608233D01*
X147708721Y-90608232D01*
X147708720Y-90608232D01*
X147708717Y-90608231D01*
X147664822Y-90599500D01*
X147664820Y-90599500D01*
X146735180Y-90599500D01*
X146735178Y-90599500D01*
X146691282Y-90608231D01*
X146691279Y-90608232D01*
X146633890Y-90646578D01*
X146567212Y-90667455D01*
X146499832Y-90648970D01*
X146496110Y-90646578D01*
X146438723Y-90608234D01*
X146438722Y-90608233D01*
X146438721Y-90608232D01*
X146438720Y-90608232D01*
X146438717Y-90608231D01*
X146394822Y-90599500D01*
X146394820Y-90599500D01*
X145465180Y-90599500D01*
X145465178Y-90599500D01*
X145421282Y-90608231D01*
X145421279Y-90608232D01*
X145363890Y-90646578D01*
X145297212Y-90667455D01*
X145229832Y-90648970D01*
X145226110Y-90646578D01*
X145168723Y-90608234D01*
X145168722Y-90608233D01*
X145168721Y-90608232D01*
X145168720Y-90608232D01*
X145168717Y-90608231D01*
X145124822Y-90599500D01*
X145124820Y-90599500D01*
X144195180Y-90599500D01*
X144195178Y-90599500D01*
X144151282Y-90608231D01*
X144151279Y-90608232D01*
X144093890Y-90646578D01*
X144027212Y-90667455D01*
X143959832Y-90648970D01*
X143956110Y-90646578D01*
X143898723Y-90608234D01*
X143898722Y-90608233D01*
X143898721Y-90608232D01*
X143898720Y-90608232D01*
X143898717Y-90608231D01*
X143854822Y-90599500D01*
X143854820Y-90599500D01*
X142925180Y-90599500D01*
X142925178Y-90599500D01*
X142881282Y-90608231D01*
X142881279Y-90608232D01*
X142823890Y-90646578D01*
X142757212Y-90667455D01*
X142689832Y-90648970D01*
X142686110Y-90646578D01*
X142628723Y-90608234D01*
X142628722Y-90608233D01*
X142628721Y-90608232D01*
X142628720Y-90608232D01*
X142628717Y-90608231D01*
X142584822Y-90599500D01*
X142584820Y-90599500D01*
X141655180Y-90599500D01*
X141655178Y-90599500D01*
X141611282Y-90608231D01*
X141611279Y-90608232D01*
X141553890Y-90646578D01*
X141487212Y-90667455D01*
X141419832Y-90648970D01*
X141416110Y-90646578D01*
X141358723Y-90608234D01*
X141358722Y-90608233D01*
X141358721Y-90608232D01*
X141358720Y-90608232D01*
X141358717Y-90608231D01*
X141314822Y-90599500D01*
X141314820Y-90599500D01*
X140385180Y-90599500D01*
X140385178Y-90599500D01*
X140341282Y-90608231D01*
X140341279Y-90608232D01*
X140283890Y-90646578D01*
X140217212Y-90667455D01*
X140149832Y-90648970D01*
X140146110Y-90646578D01*
X140088723Y-90608234D01*
X140088722Y-90608233D01*
X140088721Y-90608232D01*
X140088720Y-90608232D01*
X140088717Y-90608231D01*
X140044822Y-90599500D01*
X140044820Y-90599500D01*
X139115180Y-90599500D01*
X139115178Y-90599500D01*
X139071282Y-90608231D01*
X139071279Y-90608232D01*
X139013890Y-90646578D01*
X138947212Y-90667455D01*
X138879832Y-90648970D01*
X138876110Y-90646578D01*
X138818723Y-90608234D01*
X138818722Y-90608233D01*
X138818721Y-90608232D01*
X138818720Y-90608232D01*
X138818717Y-90608231D01*
X138774822Y-90599500D01*
X138774820Y-90599500D01*
X137845180Y-90599500D01*
X137845178Y-90599500D01*
X137801282Y-90608231D01*
X137801279Y-90608232D01*
X137743890Y-90646578D01*
X137677212Y-90667455D01*
X137609832Y-90648970D01*
X137606110Y-90646578D01*
X137548723Y-90608234D01*
X137548722Y-90608233D01*
X137548721Y-90608232D01*
X137548720Y-90608232D01*
X137548717Y-90608231D01*
X137504822Y-90599500D01*
X137504820Y-90599500D01*
X136575180Y-90599500D01*
X136575178Y-90599500D01*
X136531282Y-90608231D01*
X136531279Y-90608232D01*
X136473890Y-90646578D01*
X136407212Y-90667455D01*
X136339832Y-90648970D01*
X136336110Y-90646578D01*
X136278723Y-90608234D01*
X136278722Y-90608233D01*
X136278721Y-90608232D01*
X136278720Y-90608232D01*
X136278717Y-90608231D01*
X136234822Y-90599500D01*
X136234820Y-90599500D01*
X135305180Y-90599500D01*
X135305178Y-90599500D01*
X135261282Y-90608231D01*
X135261275Y-90608234D01*
X135211496Y-90641495D01*
X135211495Y-90641496D01*
X135178234Y-90691275D01*
X135178231Y-90691282D01*
X135169500Y-90735177D01*
X135169500Y-90735180D01*
X135169500Y-92264820D01*
X135169500Y-92264822D01*
X135169499Y-92264822D01*
X135178231Y-92308717D01*
X135178234Y-92308724D01*
X135194150Y-92332544D01*
X135211496Y-92358504D01*
X135261278Y-92391767D01*
X135261281Y-92391767D01*
X135261282Y-92391768D01*
X135305177Y-92400500D01*
X135305180Y-92400500D01*
X135400500Y-92400500D01*
X135467539Y-92420185D01*
X135513294Y-92472989D01*
X135524500Y-92524500D01*
X135524500Y-93056358D01*
X135504815Y-93123397D01*
X135475987Y-93154733D01*
X135407381Y-93207376D01*
X135319137Y-93322377D01*
X135263671Y-93456287D01*
X135263670Y-93456291D01*
X135250209Y-93558539D01*
X135244750Y-93600000D01*
X135261841Y-93729820D01*
X135263670Y-93743708D01*
X135263671Y-93743712D01*
X135319137Y-93877622D01*
X135319138Y-93877624D01*
X135319139Y-93877625D01*
X135407379Y-93992621D01*
X135522375Y-94080861D01*
X135656291Y-94136330D01*
X135783280Y-94153048D01*
X135799999Y-94155250D01*
X135800000Y-94155250D01*
X135800001Y-94155250D01*
X135814977Y-94153278D01*
X135943709Y-94136330D01*
X136077625Y-94080861D01*
X136192621Y-93992621D01*
X136280861Y-93877625D01*
X136336330Y-93743709D01*
X136355250Y-93600000D01*
X136336330Y-93456291D01*
X136280861Y-93322375D01*
X136192621Y-93207379D01*
X136192619Y-93207377D01*
X136192618Y-93207376D01*
X136124013Y-93154733D01*
X136082810Y-93098305D01*
X136075500Y-93056358D01*
X136075500Y-92524500D01*
X136095185Y-92457461D01*
X136147989Y-92411706D01*
X136199500Y-92400500D01*
X136234822Y-92400500D01*
X136278717Y-92391768D01*
X136278717Y-92391767D01*
X136278722Y-92391767D01*
X136328504Y-92358504D01*
X136328504Y-92358502D01*
X136336109Y-92353422D01*
X136402787Y-92332544D01*
X136470167Y-92351029D01*
X136473891Y-92353422D01*
X136481495Y-92358502D01*
X136481496Y-92358504D01*
X136531278Y-92391767D01*
X136531281Y-92391767D01*
X136531282Y-92391768D01*
X136575177Y-92400500D01*
X136575180Y-92400500D01*
X136640500Y-92400500D01*
X136707539Y-92420185D01*
X136753294Y-92472989D01*
X136764500Y-92524500D01*
X136764500Y-94794521D01*
X136744815Y-94861560D01*
X136728181Y-94882202D01*
X135730203Y-95880181D01*
X135668880Y-95913666D01*
X135642522Y-95916500D01*
X126252971Y-95916500D01*
X126185932Y-95896815D01*
X126140177Y-95844011D01*
X126130233Y-95774853D01*
X126135042Y-95754175D01*
X126136104Y-95750901D01*
X126136109Y-95750893D01*
X126150500Y-95660033D01*
X126150499Y-95123968D01*
X126150499Y-95123966D01*
X126150499Y-95123962D01*
X126136110Y-95033111D01*
X126136110Y-95033110D01*
X126136109Y-95033108D01*
X126136109Y-95033107D01*
X126080311Y-94923597D01*
X126080309Y-94923595D01*
X126080306Y-94923591D01*
X125993408Y-94836693D01*
X125993404Y-94836690D01*
X125993403Y-94836690D01*
X125993403Y-94836689D01*
X125883893Y-94780891D01*
X125883891Y-94780890D01*
X125883886Y-94780888D01*
X125874607Y-94777873D01*
X125875767Y-94774302D01*
X125829399Y-94752279D01*
X125792512Y-94692940D01*
X125788000Y-94659796D01*
X125788000Y-94524203D01*
X125807685Y-94457164D01*
X125860489Y-94411409D01*
X125874912Y-94407062D01*
X125874608Y-94406126D01*
X125883889Y-94403110D01*
X125883890Y-94403109D01*
X125883893Y-94403109D01*
X125993403Y-94347311D01*
X126080311Y-94260403D01*
X126136109Y-94150893D01*
X126150500Y-94060033D01*
X126150499Y-93523968D01*
X126150499Y-93523966D01*
X126150499Y-93523962D01*
X126136110Y-93433111D01*
X126136110Y-93433110D01*
X126136109Y-93433108D01*
X126136109Y-93433107D01*
X126080311Y-93323597D01*
X126080309Y-93323595D01*
X126080306Y-93323591D01*
X125993408Y-93236693D01*
X125993404Y-93236690D01*
X125993403Y-93236690D01*
X125993403Y-93236689D01*
X125883893Y-93180891D01*
X125883891Y-93180890D01*
X125883886Y-93180888D01*
X125874607Y-93177873D01*
X125875767Y-93174302D01*
X125829399Y-93152279D01*
X125792512Y-93092940D01*
X125788000Y-93059796D01*
X125788000Y-92732203D01*
X125807685Y-92665164D01*
X125860489Y-92619409D01*
X125874912Y-92615062D01*
X125874608Y-92614126D01*
X125883889Y-92611110D01*
X125883890Y-92611109D01*
X125883893Y-92611109D01*
X125993403Y-92555311D01*
X126080311Y-92468403D01*
X126136109Y-92358893D01*
X126150500Y-92268033D01*
X126150499Y-91731968D01*
X126150499Y-91731966D01*
X126150499Y-91731962D01*
X126136110Y-91641111D01*
X126136110Y-91641110D01*
X126136109Y-91641108D01*
X126136109Y-91641107D01*
X126080311Y-91531597D01*
X126080309Y-91531595D01*
X126080306Y-91531591D01*
X125993408Y-91444693D01*
X125993404Y-91444690D01*
X125993403Y-91444689D01*
X125883893Y-91388891D01*
X125883891Y-91388890D01*
X125883888Y-91388889D01*
X125793033Y-91374500D01*
X125131962Y-91374500D01*
X125131962Y-91374501D01*
X125041111Y-91388889D01*
X125041110Y-91388889D01*
X124931595Y-91444690D01*
X124931591Y-91444693D01*
X124844693Y-91531591D01*
X124844690Y-91531595D01*
X124788889Y-91641111D01*
X124774500Y-91731966D01*
X124774500Y-92268037D01*
X124788889Y-92358888D01*
X124788889Y-92358889D01*
X124788890Y-92358892D01*
X124788891Y-92358893D01*
X124839674Y-92458561D01*
X124844690Y-92468404D01*
X124844693Y-92468408D01*
X124931591Y-92555306D01*
X124931595Y-92555309D01*
X124931597Y-92555311D01*
X125041107Y-92611109D01*
X125041109Y-92611109D01*
X125041111Y-92611110D01*
X125132398Y-92625569D01*
X125195533Y-92655498D01*
X125232464Y-92714810D01*
X125237000Y-92748042D01*
X125237000Y-93043959D01*
X125217315Y-93110998D01*
X125164511Y-93156753D01*
X125132397Y-93166432D01*
X125041111Y-93180889D01*
X125041110Y-93180889D01*
X124931595Y-93236690D01*
X124931591Y-93236693D01*
X124844693Y-93323591D01*
X124844690Y-93323595D01*
X124788889Y-93433111D01*
X124774500Y-93523966D01*
X124774500Y-94060037D01*
X124788889Y-94150888D01*
X124788889Y-94150889D01*
X124788890Y-94150892D01*
X124788891Y-94150893D01*
X124838674Y-94248598D01*
X124844690Y-94260404D01*
X124844693Y-94260408D01*
X124931591Y-94347306D01*
X124931595Y-94347309D01*
X124931597Y-94347311D01*
X125041107Y-94403109D01*
X125041109Y-94403109D01*
X125041111Y-94403110D01*
X125132397Y-94417569D01*
X125195532Y-94447498D01*
X125232463Y-94506810D01*
X125236999Y-94540042D01*
X125236999Y-94659796D01*
X125217314Y-94726835D01*
X125164510Y-94772590D01*
X125150090Y-94776944D01*
X125150392Y-94777874D01*
X125141110Y-94780889D01*
X125031595Y-94836690D01*
X125031591Y-94836693D01*
X124944693Y-94923591D01*
X124944690Y-94923595D01*
X124888889Y-95033111D01*
X124874500Y-95123966D01*
X124874500Y-95660037D01*
X124888889Y-95750886D01*
X124889959Y-95754178D01*
X124890079Y-95758402D01*
X124890417Y-95760532D01*
X124890141Y-95760575D01*
X124891956Y-95824019D01*
X124855878Y-95883853D01*
X124793178Y-95914683D01*
X124772029Y-95916500D01*
X124652978Y-95916500D01*
X124585939Y-95896815D01*
X124565297Y-95880181D01*
X124361818Y-95676702D01*
X124328333Y-95615379D01*
X124325499Y-95589021D01*
X124325499Y-95381787D01*
X124325499Y-95123968D01*
X124320674Y-95093504D01*
X124311110Y-95033111D01*
X124311110Y-95033110D01*
X124311109Y-95033108D01*
X124311109Y-95033107D01*
X124255311Y-94923597D01*
X124255309Y-94923595D01*
X124255306Y-94923591D01*
X124168408Y-94836693D01*
X124168404Y-94836690D01*
X124168403Y-94836689D01*
X124058893Y-94780891D01*
X124058891Y-94780890D01*
X124058888Y-94780889D01*
X123968033Y-94766500D01*
X123406962Y-94766500D01*
X123406962Y-94766501D01*
X123316111Y-94780889D01*
X123316110Y-94780889D01*
X123206595Y-94836690D01*
X123119684Y-94923602D01*
X123113949Y-94931496D01*
X123111817Y-94929947D01*
X123073913Y-94970087D01*
X123011396Y-94987000D01*
X122740122Y-94987000D01*
X122673083Y-94967315D01*
X122627328Y-94914511D01*
X122617649Y-94882397D01*
X122611110Y-94841111D01*
X122611110Y-94841110D01*
X122611109Y-94841108D01*
X122611109Y-94841107D01*
X122555311Y-94731597D01*
X122555309Y-94731595D01*
X122555306Y-94731591D01*
X122468408Y-94644693D01*
X122468404Y-94644690D01*
X122468403Y-94644689D01*
X122358893Y-94588891D01*
X122358891Y-94588890D01*
X122358888Y-94588889D01*
X122268033Y-94574500D01*
X121731962Y-94574500D01*
X121731962Y-94574501D01*
X121641111Y-94588889D01*
X121641110Y-94588889D01*
X121531595Y-94644690D01*
X121531591Y-94644693D01*
X121444693Y-94731591D01*
X121444690Y-94731595D01*
X121388889Y-94841111D01*
X121374500Y-94931966D01*
X121374500Y-95593037D01*
X121388889Y-95683888D01*
X121388889Y-95683889D01*
X121388890Y-95683892D01*
X121388891Y-95683893D01*
X121440415Y-95785015D01*
X121444690Y-95793404D01*
X121444693Y-95793408D01*
X121531591Y-95880306D01*
X121531595Y-95880309D01*
X121531597Y-95880311D01*
X121641107Y-95936109D01*
X121641109Y-95936109D01*
X121641111Y-95936110D01*
X121668670Y-95940474D01*
X121731967Y-95950500D01*
X122268032Y-95950499D01*
X122268037Y-95950499D01*
X122268037Y-95950498D01*
X122313462Y-95943304D01*
X122358888Y-95936110D01*
X122358889Y-95936110D01*
X122358890Y-95936109D01*
X122358893Y-95936109D01*
X122468403Y-95880311D01*
X122555311Y-95793403D01*
X122611109Y-95683893D01*
X122617649Y-95642600D01*
X122647577Y-95579468D01*
X122706888Y-95542536D01*
X122740122Y-95538000D01*
X122925501Y-95538000D01*
X122992540Y-95557685D01*
X123038295Y-95610489D01*
X123048036Y-95655266D01*
X123049119Y-95655181D01*
X123049501Y-95660037D01*
X123063889Y-95750888D01*
X123063889Y-95750889D01*
X123063890Y-95750892D01*
X123063891Y-95750893D01*
X123114140Y-95849513D01*
X123119690Y-95860404D01*
X123119693Y-95860408D01*
X123206591Y-95947306D01*
X123206595Y-95947309D01*
X123206597Y-95947311D01*
X123316107Y-96003109D01*
X123316109Y-96003109D01*
X123316111Y-96003110D01*
X123336645Y-96006362D01*
X123406967Y-96017500D01*
X123872021Y-96017499D01*
X123939060Y-96037183D01*
X123959702Y-96053818D01*
X124264869Y-96358985D01*
X124280290Y-96377775D01*
X124288873Y-96390621D01*
X124288876Y-96390624D01*
X124308416Y-96403680D01*
X124308423Y-96403685D01*
X124311139Y-96405500D01*
X124311876Y-96405992D01*
X124311878Y-96405994D01*
X124333588Y-96420500D01*
X124380005Y-96451515D01*
X124380008Y-96451515D01*
X124380009Y-96451516D01*
X124466332Y-96468687D01*
X124466339Y-96468687D01*
X124487500Y-96472897D01*
X124502653Y-96469882D01*
X124526844Y-96467500D01*
X134843522Y-96467500D01*
X134910561Y-96487185D01*
X134956316Y-96539989D01*
X134966260Y-96609147D01*
X134937235Y-96672703D01*
X134931203Y-96679181D01*
X121589603Y-110020779D01*
X121528280Y-110054264D01*
X121485737Y-110056037D01*
X121400002Y-110044750D01*
X121399999Y-110044750D01*
X121256291Y-110063670D01*
X121256287Y-110063671D01*
X121122377Y-110119137D01*
X121007379Y-110207379D01*
X120919137Y-110322377D01*
X120863671Y-110456287D01*
X120863670Y-110456291D01*
X120844750Y-110600000D01*
X120849490Y-110636007D01*
X120863670Y-110743708D01*
X120863671Y-110743712D01*
X120919137Y-110877622D01*
X120919138Y-110877624D01*
X120919139Y-110877625D01*
X121007379Y-110992621D01*
X121122375Y-111080861D01*
X121256291Y-111136330D01*
X121383280Y-111153048D01*
X121399999Y-111155250D01*
X121400000Y-111155250D01*
X121400001Y-111155250D01*
X121414977Y-111153278D01*
X121543709Y-111136330D01*
X121677625Y-111080861D01*
X121792621Y-110992621D01*
X121880861Y-110877625D01*
X121936330Y-110743709D01*
X121955250Y-110600000D01*
X121943962Y-110514260D01*
X121954727Y-110445225D01*
X121979217Y-110410397D01*
X132631020Y-99758595D01*
X132692339Y-99725113D01*
X132762031Y-99730097D01*
X132817964Y-99771969D01*
X132842381Y-99837433D01*
X132842697Y-99846279D01*
X132842698Y-135901944D01*
X132823013Y-135968983D01*
X132770209Y-136014738D01*
X132701051Y-136024682D01*
X132637495Y-135995657D01*
X132631017Y-135989625D01*
X118436819Y-121795427D01*
X118403334Y-121734104D01*
X118400500Y-121707746D01*
X118400500Y-118983401D01*
X118391768Y-118939506D01*
X118391767Y-118939505D01*
X118391767Y-118939502D01*
X118358504Y-118889720D01*
X118358503Y-118889719D01*
X118308724Y-118856458D01*
X118308717Y-118856455D01*
X118264822Y-118847724D01*
X118264820Y-118847724D01*
X116735180Y-118847724D01*
X116735178Y-118847724D01*
X116691282Y-118856455D01*
X116691275Y-118856458D01*
X116641496Y-118889719D01*
X116641495Y-118889720D01*
X116608234Y-118939499D01*
X116608231Y-118939506D01*
X116599500Y-118983401D01*
X116599500Y-118983403D01*
X116599500Y-118983404D01*
X116599500Y-122013044D01*
X116599500Y-122013046D01*
X116599499Y-122013046D01*
X116608231Y-122056941D01*
X116608232Y-122056945D01*
X116608233Y-122056946D01*
X116641496Y-122106728D01*
X116691278Y-122139991D01*
X116691281Y-122139991D01*
X116691282Y-122139992D01*
X116735177Y-122148724D01*
X116735180Y-122148724D01*
X117959522Y-122148724D01*
X118026561Y-122168409D01*
X118047203Y-122185043D01*
X133229145Y-137366985D01*
X133244566Y-137385775D01*
X133253149Y-137398621D01*
X133253150Y-137398622D01*
X133253152Y-137398624D01*
X133276152Y-137413992D01*
X133276154Y-137413994D01*
X133302310Y-137431471D01*
X133344281Y-137459515D01*
X133344283Y-137459515D01*
X133344283Y-137459516D01*
X133430608Y-137476687D01*
X133430615Y-137476687D01*
X133451776Y-137480897D01*
X133466929Y-137477882D01*
X133491120Y-137475500D01*
X148738930Y-137475500D01*
X148763120Y-137477882D01*
X148778274Y-137480897D01*
X148805406Y-137475500D01*
X148805407Y-137475500D01*
X148829008Y-137470805D01*
X148885767Y-137459516D01*
X148885768Y-137459515D01*
X148885769Y-137459515D01*
X148927739Y-137431471D01*
X148953896Y-137413994D01*
X148953895Y-137413994D01*
X148967327Y-137405020D01*
X148967329Y-137405017D01*
X148976898Y-137398624D01*
X148985482Y-137385775D01*
X149000898Y-137366990D01*
X151496070Y-134871819D01*
X151557394Y-134838334D01*
X151583752Y-134835500D01*
X181400656Y-134835500D01*
X181424846Y-134837882D01*
X181440000Y-134840897D01*
X181467132Y-134835500D01*
X181467133Y-134835500D01*
X181490734Y-134830805D01*
X181547493Y-134819516D01*
X181547494Y-134819515D01*
X181547495Y-134819515D01*
X181589465Y-134791471D01*
X181615622Y-134773994D01*
X181615621Y-134773994D01*
X181629050Y-134765022D01*
X181629053Y-134765018D01*
X181638624Y-134758624D01*
X181647211Y-134745772D01*
X181662624Y-134726991D01*
X192210396Y-124179218D01*
X192271717Y-124145735D01*
X192314261Y-124143962D01*
X192399999Y-124155250D01*
X192400000Y-124155250D01*
X192400001Y-124155250D01*
X192414977Y-124153278D01*
X192543709Y-124136330D01*
X192677625Y-124080861D01*
X192792621Y-123992621D01*
X192880861Y-123877625D01*
X192936330Y-123743709D01*
X192955250Y-123600000D01*
X192936330Y-123456291D01*
X192880861Y-123322375D01*
X192792621Y-123207379D01*
X192677625Y-123119139D01*
X192677624Y-123119138D01*
X192677622Y-123119137D01*
X192543712Y-123063671D01*
X192543710Y-123063670D01*
X192543709Y-123063670D01*
X192471854Y-123054210D01*
X192400001Y-123044750D01*
X192399999Y-123044750D01*
X192256291Y-123063670D01*
X192256287Y-123063671D01*
X192122377Y-123119137D01*
X192007379Y-123207379D01*
X191919137Y-123322377D01*
X191863671Y-123456287D01*
X191863670Y-123456291D01*
X191844750Y-123599999D01*
X191844750Y-123600002D01*
X191856037Y-123685737D01*
X191845271Y-123754772D01*
X191820779Y-123789603D01*
X181362203Y-134248181D01*
X181300880Y-134281666D01*
X181274522Y-134284500D01*
X157906835Y-134284500D01*
X157839796Y-134264815D01*
X157794041Y-134212011D01*
X157784097Y-134142853D01*
X157808460Y-134085013D01*
X157872638Y-134001376D01*
X157892698Y-133975233D01*
X157950687Y-133835236D01*
X157970466Y-133685000D01*
X157950687Y-133534764D01*
X157892698Y-133394767D01*
X157800451Y-133274549D01*
X157680233Y-133182302D01*
X157680229Y-133182300D01*
X157585338Y-133142995D01*
X157540236Y-133124313D01*
X157526171Y-133122461D01*
X157427727Y-133109500D01*
X157427720Y-133109500D01*
X157352280Y-133109500D01*
X157352272Y-133109500D01*
X157239764Y-133124313D01*
X157239763Y-133124313D01*
X157099770Y-133182300D01*
X157099767Y-133182301D01*
X157099767Y-133182302D01*
X156979549Y-133274549D01*
X156918094Y-133354639D01*
X156887300Y-133394770D01*
X156829313Y-133534763D01*
X156829312Y-133534765D01*
X156809534Y-133684999D01*
X156809534Y-133685000D01*
X156829312Y-133835234D01*
X156829313Y-133835236D01*
X156887300Y-133975230D01*
X156887302Y-133975234D01*
X156971540Y-134085013D01*
X156996735Y-134150182D01*
X156982697Y-134218627D01*
X156933883Y-134268617D01*
X156873165Y-134284500D01*
X154395454Y-134284500D01*
X154328415Y-134264815D01*
X154282660Y-134212011D01*
X154272716Y-134142853D01*
X154280893Y-134113048D01*
X154292505Y-134085013D01*
X154336330Y-133979209D01*
X154355250Y-133835500D01*
X154343962Y-133749760D01*
X154354727Y-133680725D01*
X154379217Y-133645897D01*
X154766989Y-133258125D01*
X154785774Y-133242709D01*
X154798624Y-133234124D01*
X154859515Y-133142995D01*
X154875500Y-133062633D01*
X154875500Y-133062632D01*
X154880897Y-133035500D01*
X154877883Y-133020347D01*
X154875500Y-132996155D01*
X154875500Y-132800000D01*
X171044750Y-132800000D01*
X171062794Y-132937059D01*
X171063670Y-132943708D01*
X171063671Y-132943712D01*
X171119137Y-133077622D01*
X171119138Y-133077624D01*
X171119139Y-133077625D01*
X171207379Y-133192621D01*
X171322375Y-133280861D01*
X171322376Y-133280861D01*
X171322377Y-133280862D01*
X171366577Y-133299170D01*
X171456291Y-133336330D01*
X171583280Y-133353048D01*
X171599999Y-133355250D01*
X171600000Y-133355250D01*
X171600001Y-133355250D01*
X171614977Y-133353278D01*
X171743709Y-133336330D01*
X171877625Y-133280861D01*
X171992621Y-133192621D01*
X172080861Y-133077625D01*
X172136330Y-132943709D01*
X172155250Y-132800000D01*
X172136330Y-132656291D01*
X172080861Y-132522375D01*
X171992621Y-132407379D01*
X171992619Y-132407377D01*
X171992618Y-132407376D01*
X171924013Y-132354733D01*
X171882810Y-132298305D01*
X171875500Y-132256358D01*
X171875500Y-131000000D01*
X177844750Y-131000000D01*
X177863670Y-131143708D01*
X177863671Y-131143712D01*
X177919137Y-131277622D01*
X177919138Y-131277624D01*
X177919139Y-131277625D01*
X178007379Y-131392621D01*
X178122375Y-131480861D01*
X178256291Y-131536330D01*
X178383280Y-131553048D01*
X178399999Y-131555250D01*
X178400000Y-131555250D01*
X178400001Y-131555250D01*
X178414977Y-131553278D01*
X178543709Y-131536330D01*
X178677625Y-131480861D01*
X178792621Y-131392621D01*
X178845267Y-131324011D01*
X178901693Y-131282811D01*
X178943641Y-131275500D01*
X182856359Y-131275500D01*
X182923398Y-131295185D01*
X182954731Y-131324009D01*
X183007379Y-131392621D01*
X183122375Y-131480861D01*
X183256291Y-131536330D01*
X183383280Y-131553048D01*
X183399999Y-131555250D01*
X183400000Y-131555250D01*
X183400001Y-131555250D01*
X183414977Y-131553278D01*
X183543709Y-131536330D01*
X183677625Y-131480861D01*
X183792621Y-131392621D01*
X183880861Y-131277625D01*
X183936330Y-131143709D01*
X183955250Y-131000000D01*
X183936330Y-130856291D01*
X183880861Y-130722375D01*
X183792621Y-130607379D01*
X183677625Y-130519139D01*
X183677624Y-130519138D01*
X183677622Y-130519137D01*
X183543712Y-130463671D01*
X183543710Y-130463670D01*
X183543709Y-130463670D01*
X183471854Y-130454210D01*
X183400001Y-130444750D01*
X183399999Y-130444750D01*
X183256291Y-130463670D01*
X183256287Y-130463671D01*
X183122377Y-130519137D01*
X183075937Y-130554772D01*
X183007379Y-130607379D01*
X182954732Y-130675988D01*
X182898307Y-130717189D01*
X182856359Y-130724500D01*
X178943641Y-130724500D01*
X178876602Y-130704815D01*
X178845268Y-130675990D01*
X178792621Y-130607379D01*
X178677625Y-130519139D01*
X178677624Y-130519138D01*
X178677622Y-130519137D01*
X178543712Y-130463671D01*
X178543710Y-130463670D01*
X178543709Y-130463670D01*
X178471854Y-130454210D01*
X178400001Y-130444750D01*
X178399999Y-130444750D01*
X178256291Y-130463670D01*
X178256287Y-130463671D01*
X178122377Y-130519137D01*
X178007379Y-130607379D01*
X177919137Y-130722377D01*
X177863671Y-130856287D01*
X177863670Y-130856291D01*
X177844750Y-130999999D01*
X177844750Y-131000000D01*
X171875500Y-131000000D01*
X171875500Y-126743641D01*
X171895185Y-126676602D01*
X171924009Y-126645268D01*
X171992621Y-126592621D01*
X172080861Y-126477625D01*
X172136330Y-126343709D01*
X172155250Y-126200000D01*
X172136330Y-126056291D01*
X172080861Y-125922375D01*
X171992621Y-125807379D01*
X171877625Y-125719139D01*
X171877624Y-125719138D01*
X171877622Y-125719137D01*
X171743712Y-125663671D01*
X171743710Y-125663670D01*
X171743709Y-125663670D01*
X171671854Y-125654210D01*
X171600001Y-125644750D01*
X171599999Y-125644750D01*
X171456291Y-125663670D01*
X171456287Y-125663671D01*
X171322377Y-125719137D01*
X171207379Y-125807379D01*
X171119137Y-125922377D01*
X171063671Y-126056287D01*
X171063670Y-126056291D01*
X171044750Y-126200000D01*
X171055652Y-126282811D01*
X171063670Y-126343708D01*
X171063671Y-126343712D01*
X171119137Y-126477622D01*
X171119138Y-126477624D01*
X171119139Y-126477625D01*
X171207379Y-126592621D01*
X171275988Y-126645267D01*
X171317189Y-126701693D01*
X171324500Y-126743641D01*
X171324500Y-132256358D01*
X171304815Y-132323397D01*
X171275987Y-132354733D01*
X171207381Y-132407376D01*
X171119137Y-132522377D01*
X171063671Y-132656287D01*
X171063670Y-132656291D01*
X171044750Y-132800000D01*
X154875500Y-132800000D01*
X154875500Y-131343641D01*
X154895185Y-131276602D01*
X154924009Y-131245268D01*
X154992621Y-131192621D01*
X155080861Y-131077625D01*
X155136330Y-130943709D01*
X155155250Y-130800000D01*
X155136330Y-130656291D01*
X155094280Y-130554772D01*
X155080862Y-130522377D01*
X155080861Y-130522376D01*
X155080861Y-130522375D01*
X154992621Y-130407379D01*
X154877625Y-130319139D01*
X154877624Y-130319138D01*
X154877622Y-130319137D01*
X154743712Y-130263671D01*
X154743710Y-130263670D01*
X154743709Y-130263670D01*
X154671854Y-130254210D01*
X154600001Y-130244750D01*
X154599999Y-130244750D01*
X154456291Y-130263670D01*
X154456287Y-130263671D01*
X154322377Y-130319137D01*
X154207379Y-130407379D01*
X154119137Y-130522377D01*
X154063671Y-130656287D01*
X154063670Y-130656291D01*
X154045722Y-130792620D01*
X154044750Y-130800000D01*
X154062698Y-130936329D01*
X154063670Y-130943708D01*
X154063671Y-130943712D01*
X154119137Y-131077622D01*
X154119138Y-131077624D01*
X154119139Y-131077625D01*
X154207379Y-131192621D01*
X154275988Y-131245267D01*
X154317189Y-131301693D01*
X154324500Y-131343641D01*
X154324500Y-132870020D01*
X154304815Y-132937059D01*
X154288181Y-132957701D01*
X153989603Y-133256279D01*
X153928280Y-133289764D01*
X153885737Y-133291537D01*
X153800002Y-133280250D01*
X153799999Y-133280250D01*
X153656291Y-133299170D01*
X153656287Y-133299171D01*
X153522377Y-133354637D01*
X153407379Y-133442879D01*
X153319137Y-133557877D01*
X153263671Y-133691787D01*
X153263670Y-133691791D01*
X153244750Y-133835499D01*
X153244750Y-133835500D01*
X153263670Y-133979208D01*
X153263671Y-133979212D01*
X153319107Y-134113048D01*
X153326576Y-134182517D01*
X153295300Y-134244996D01*
X153235211Y-134280648D01*
X153204546Y-134284500D01*
X152126835Y-134284500D01*
X152059796Y-134264815D01*
X152014041Y-134212011D01*
X152004097Y-134142853D01*
X152028460Y-134085013D01*
X152092638Y-134001376D01*
X152112698Y-133975233D01*
X152170687Y-133835236D01*
X152190466Y-133685000D01*
X152170687Y-133534764D01*
X152112698Y-133394767D01*
X152020451Y-133274549D01*
X151900233Y-133182302D01*
X151900229Y-133182300D01*
X151805338Y-133142995D01*
X151760236Y-133124313D01*
X151746171Y-133122461D01*
X151647727Y-133109500D01*
X151647720Y-133109500D01*
X151572280Y-133109500D01*
X151572272Y-133109500D01*
X151459764Y-133124313D01*
X151459763Y-133124313D01*
X151319770Y-133182300D01*
X151319767Y-133182301D01*
X151319767Y-133182302D01*
X151199549Y-133274549D01*
X151138094Y-133354639D01*
X151107300Y-133394770D01*
X151049313Y-133534763D01*
X151049312Y-133534765D01*
X151029534Y-133684999D01*
X151029534Y-133685000D01*
X151049312Y-133835234D01*
X151049313Y-133835236D01*
X151102535Y-133963726D01*
X151107302Y-133975233D01*
X151191540Y-134085013D01*
X151199551Y-134095453D01*
X151256870Y-134139436D01*
X151298073Y-134195864D01*
X151302227Y-134265610D01*
X151268014Y-134326530D01*
X151250274Y-134340913D01*
X151247297Y-134342901D01*
X151247288Y-134342908D01*
X151242652Y-134346006D01*
X151242650Y-134346007D01*
X151227446Y-134356165D01*
X151219648Y-134361377D01*
X151211065Y-134374222D01*
X151195646Y-134393010D01*
X148700477Y-136888181D01*
X148639154Y-136921666D01*
X148612796Y-136924500D01*
X143564477Y-136924500D01*
X143497438Y-136904815D01*
X143451683Y-136852011D01*
X143441739Y-136782853D01*
X143470764Y-136719297D01*
X143476796Y-136712819D01*
X143636330Y-136553285D01*
X143841990Y-136347624D01*
X143860774Y-136332209D01*
X143873624Y-136323624D01*
X143889744Y-136299500D01*
X143901722Y-136281573D01*
X143910060Y-136269095D01*
X143922260Y-136250835D01*
X143934515Y-136232495D01*
X143937827Y-136215848D01*
X143951686Y-136146169D01*
X143955897Y-136125000D01*
X143952883Y-136109847D01*
X143950500Y-136085655D01*
X143950500Y-130914344D01*
X143952883Y-130890151D01*
X143955897Y-130875000D01*
X143941252Y-130801376D01*
X143934515Y-130767505D01*
X143874457Y-130677622D01*
X143873624Y-130676375D01*
X143860775Y-130667790D01*
X143841985Y-130652369D01*
X141986819Y-128797202D01*
X141953334Y-128735879D01*
X141950500Y-128709521D01*
X141950500Y-127795247D01*
X141970185Y-127728208D01*
X142022989Y-127682453D01*
X142092147Y-127672509D01*
X142121952Y-127680686D01*
X142122377Y-127680862D01*
X142256291Y-127736330D01*
X142383280Y-127753048D01*
X142399999Y-127755250D01*
X142400000Y-127755250D01*
X142400001Y-127755250D01*
X142414977Y-127753278D01*
X142543709Y-127736330D01*
X142677625Y-127680861D01*
X142792621Y-127592621D01*
X142880861Y-127477625D01*
X142901086Y-127428796D01*
X142944924Y-127374395D01*
X143011218Y-127352329D01*
X143063098Y-127361689D01*
X143070586Y-127364790D01*
X143070587Y-127364791D01*
X143204503Y-127420260D01*
X143331492Y-127436978D01*
X143348211Y-127439180D01*
X143348212Y-127439180D01*
X143348213Y-127439180D01*
X143363189Y-127437208D01*
X143491921Y-127420260D01*
X143625837Y-127364791D01*
X143740833Y-127276551D01*
X143829073Y-127161555D01*
X143884542Y-127027639D01*
X143903462Y-126883930D01*
X143884542Y-126740221D01*
X143829073Y-126606305D01*
X143740833Y-126491309D01*
X143625837Y-126403069D01*
X143625836Y-126403068D01*
X143625834Y-126403067D01*
X143491924Y-126347601D01*
X143491922Y-126347600D01*
X143491921Y-126347600D01*
X143420066Y-126338140D01*
X143348213Y-126328680D01*
X143348208Y-126328680D01*
X143265684Y-126339544D01*
X143196649Y-126328778D01*
X143144394Y-126282398D01*
X143125500Y-126216605D01*
X143125500Y-126000000D01*
X148945250Y-126000000D01*
X148952660Y-126056287D01*
X148964170Y-126143708D01*
X148964171Y-126143712D01*
X149019637Y-126277622D01*
X149019638Y-126277624D01*
X149019639Y-126277625D01*
X149107879Y-126392621D01*
X149222875Y-126480861D01*
X149356791Y-126536330D01*
X149483780Y-126553048D01*
X149500499Y-126555250D01*
X149500500Y-126555250D01*
X149500501Y-126555250D01*
X149515477Y-126553278D01*
X149644209Y-126536330D01*
X149778125Y-126480861D01*
X149893121Y-126392621D01*
X149945767Y-126324011D01*
X150002193Y-126282811D01*
X150044141Y-126275500D01*
X155056359Y-126275500D01*
X155123398Y-126295185D01*
X155154731Y-126324009D01*
X155207379Y-126392621D01*
X155322375Y-126480861D01*
X155456291Y-126536330D01*
X155583280Y-126553048D01*
X155599999Y-126555250D01*
X155600000Y-126555250D01*
X155600001Y-126555250D01*
X155614977Y-126553278D01*
X155743709Y-126536330D01*
X155877625Y-126480861D01*
X155992621Y-126392621D01*
X156080861Y-126277625D01*
X156136330Y-126143709D01*
X156155250Y-126000000D01*
X156136330Y-125856291D01*
X156080861Y-125722375D01*
X155992621Y-125607379D01*
X155877625Y-125519139D01*
X155877624Y-125519138D01*
X155877622Y-125519137D01*
X155743712Y-125463671D01*
X155743710Y-125463670D01*
X155743709Y-125463670D01*
X155671854Y-125454210D01*
X155600001Y-125444750D01*
X155599999Y-125444750D01*
X155456291Y-125463670D01*
X155456287Y-125463671D01*
X155322377Y-125519137D01*
X155207379Y-125607379D01*
X155154732Y-125675988D01*
X155098307Y-125717189D01*
X155056359Y-125724500D01*
X150044141Y-125724500D01*
X149977102Y-125704815D01*
X149945768Y-125675990D01*
X149893121Y-125607379D01*
X149778125Y-125519139D01*
X149778124Y-125519138D01*
X149778122Y-125519137D01*
X149644212Y-125463671D01*
X149644210Y-125463670D01*
X149644209Y-125463670D01*
X149572354Y-125454210D01*
X149500501Y-125444750D01*
X149500499Y-125444750D01*
X149356791Y-125463670D01*
X149356787Y-125463671D01*
X149222877Y-125519137D01*
X149107879Y-125607379D01*
X149019637Y-125722377D01*
X148964171Y-125856287D01*
X148964170Y-125856291D01*
X148945250Y-126000000D01*
X143125500Y-126000000D01*
X143125500Y-124424666D01*
X143145185Y-124357627D01*
X143161819Y-124336985D01*
X143298804Y-124200000D01*
X160644750Y-124200000D01*
X160663670Y-124343708D01*
X160663671Y-124343712D01*
X160719137Y-124477622D01*
X160719138Y-124477624D01*
X160719139Y-124477625D01*
X160807379Y-124592621D01*
X160922375Y-124680861D01*
X161056291Y-124736330D01*
X161183280Y-124753048D01*
X161199999Y-124755250D01*
X161200000Y-124755250D01*
X161200001Y-124755250D01*
X161226133Y-124751809D01*
X161285738Y-124743962D01*
X161354772Y-124754727D01*
X161389604Y-124779220D01*
X166488181Y-129877796D01*
X166521666Y-129939119D01*
X166524500Y-129965477D01*
X166524500Y-130256358D01*
X166504815Y-130323397D01*
X166475987Y-130354733D01*
X166407381Y-130407376D01*
X166319137Y-130522377D01*
X166263671Y-130656287D01*
X166263670Y-130656291D01*
X166245722Y-130792620D01*
X166244750Y-130800000D01*
X166262698Y-130936329D01*
X166263670Y-130943708D01*
X166263671Y-130943712D01*
X166319137Y-131077622D01*
X166319138Y-131077624D01*
X166319139Y-131077625D01*
X166407379Y-131192621D01*
X166522375Y-131280861D01*
X166522376Y-131280861D01*
X166522377Y-131280862D01*
X166556957Y-131295185D01*
X166656291Y-131336330D01*
X166783280Y-131353048D01*
X166799999Y-131355250D01*
X166800000Y-131355250D01*
X166800001Y-131355250D01*
X166814977Y-131353278D01*
X166943709Y-131336330D01*
X167077625Y-131280861D01*
X167192621Y-131192621D01*
X167280861Y-131077625D01*
X167336330Y-130943709D01*
X167355250Y-130800000D01*
X167336330Y-130656291D01*
X167294280Y-130554772D01*
X167280862Y-130522377D01*
X167280861Y-130522376D01*
X167280861Y-130522375D01*
X167192621Y-130407379D01*
X167192619Y-130407377D01*
X167192618Y-130407376D01*
X167124013Y-130354733D01*
X167082810Y-130298305D01*
X167075500Y-130256358D01*
X167075500Y-129839344D01*
X167077883Y-129815151D01*
X167080897Y-129800000D01*
X167061898Y-129704486D01*
X167061296Y-129698375D01*
X167059515Y-129692506D01*
X167059515Y-129692505D01*
X167029069Y-129646940D01*
X166998624Y-129601375D01*
X166985775Y-129592790D01*
X166966985Y-129577369D01*
X161779220Y-124389604D01*
X161745735Y-124328281D01*
X161743962Y-124285737D01*
X161755250Y-124200000D01*
X161755250Y-124199999D01*
X161749358Y-124155250D01*
X161736330Y-124056291D01*
X161680861Y-123922375D01*
X161592621Y-123807379D01*
X161477625Y-123719139D01*
X161477624Y-123719138D01*
X161477622Y-123719137D01*
X161343712Y-123663671D01*
X161343710Y-123663670D01*
X161343709Y-123663670D01*
X161271854Y-123654210D01*
X161200001Y-123644750D01*
X161199999Y-123644750D01*
X161056291Y-123663670D01*
X161056287Y-123663671D01*
X160922377Y-123719137D01*
X160807379Y-123807379D01*
X160719137Y-123922377D01*
X160663671Y-124056287D01*
X160663670Y-124056291D01*
X160644750Y-124199999D01*
X160644750Y-124200000D01*
X143298804Y-124200000D01*
X144327147Y-123171657D01*
X144327160Y-123171642D01*
X145485756Y-122013046D01*
X189099499Y-122013046D01*
X189108231Y-122056941D01*
X189108232Y-122056945D01*
X189108233Y-122056946D01*
X189141496Y-122106728D01*
X189191278Y-122139991D01*
X189191281Y-122139991D01*
X189191282Y-122139992D01*
X189235177Y-122148724D01*
X189235180Y-122148724D01*
X190764822Y-122148724D01*
X190808717Y-122139992D01*
X190808717Y-122139991D01*
X190808722Y-122139991D01*
X190858504Y-122106728D01*
X190891767Y-122056946D01*
X190900500Y-122013044D01*
X190900500Y-118983404D01*
X190900500Y-118983403D01*
X190900500Y-118983401D01*
X190891768Y-118939506D01*
X190891767Y-118939505D01*
X190891767Y-118939502D01*
X190858504Y-118889720D01*
X190858503Y-118889719D01*
X190808724Y-118856458D01*
X190808717Y-118856455D01*
X190764822Y-118847724D01*
X190764820Y-118847724D01*
X189235180Y-118847724D01*
X189235178Y-118847724D01*
X189191282Y-118856455D01*
X189191275Y-118856458D01*
X189141496Y-118889719D01*
X189141495Y-118889720D01*
X189108234Y-118939499D01*
X189108231Y-118939506D01*
X189099500Y-118983401D01*
X189099500Y-118983403D01*
X189099500Y-118983404D01*
X189099500Y-122013044D01*
X189099500Y-122013046D01*
X189099499Y-122013046D01*
X145485756Y-122013046D01*
X148748802Y-118750000D01*
X194094571Y-118750000D01*
X194114244Y-118962310D01*
X194172596Y-119167392D01*
X194172596Y-119167394D01*
X194267632Y-119358253D01*
X194267634Y-119358255D01*
X194396128Y-119528407D01*
X194553698Y-119672052D01*
X194734981Y-119784298D01*
X194933802Y-119861321D01*
X195143390Y-119900500D01*
X195143392Y-119900500D01*
X195356608Y-119900500D01*
X195356610Y-119900500D01*
X195566198Y-119861321D01*
X195765019Y-119784298D01*
X195946302Y-119672052D01*
X196103872Y-119528407D01*
X196232366Y-119358255D01*
X196327405Y-119167389D01*
X196385756Y-118962310D01*
X196405429Y-118750000D01*
X196385756Y-118537690D01*
X196327405Y-118332611D01*
X196327403Y-118332606D01*
X196327403Y-118332605D01*
X196232367Y-118141746D01*
X196103872Y-117971593D01*
X196103872Y-117971592D01*
X195946302Y-117827948D01*
X195765019Y-117715702D01*
X195765017Y-117715701D01*
X195665608Y-117677190D01*
X195566198Y-117638679D01*
X195356610Y-117599500D01*
X195143390Y-117599500D01*
X194933802Y-117638679D01*
X194933799Y-117638679D01*
X194933799Y-117638680D01*
X194734982Y-117715701D01*
X194734980Y-117715702D01*
X194553699Y-117827947D01*
X194396127Y-117971593D01*
X194267632Y-118141746D01*
X194172596Y-118332605D01*
X194172596Y-118332607D01*
X194114244Y-118537689D01*
X194094571Y-118749999D01*
X194094571Y-118750000D01*
X148748802Y-118750000D01*
X154866989Y-112631813D01*
X154885774Y-112616397D01*
X154898624Y-112607812D01*
X154950018Y-112530897D01*
X154959516Y-112516682D01*
X154980897Y-112409188D01*
X154977882Y-112394028D01*
X154975500Y-112369840D01*
X154975500Y-107575000D01*
X188344571Y-107575000D01*
X188364244Y-107787310D01*
X188377955Y-107835500D01*
X188422596Y-107992392D01*
X188422596Y-107992394D01*
X188517632Y-108183253D01*
X188556844Y-108235177D01*
X188646128Y-108353407D01*
X188803698Y-108497052D01*
X188984981Y-108609298D01*
X189183802Y-108686321D01*
X189393390Y-108725500D01*
X189393392Y-108725500D01*
X189606608Y-108725500D01*
X189606610Y-108725500D01*
X189816198Y-108686321D01*
X190015019Y-108609298D01*
X190196302Y-108497052D01*
X190353872Y-108353407D01*
X190482366Y-108183255D01*
X190519723Y-108108231D01*
X190577403Y-107992394D01*
X190577403Y-107992393D01*
X190577405Y-107992389D01*
X190635756Y-107787310D01*
X190655429Y-107575000D01*
X190635756Y-107362690D01*
X190577405Y-107157611D01*
X190577403Y-107157606D01*
X190577403Y-107157605D01*
X190482367Y-106966746D01*
X190353872Y-106796593D01*
X190353872Y-106796592D01*
X190196302Y-106652948D01*
X190015019Y-106540702D01*
X190015017Y-106540701D01*
X189837811Y-106472052D01*
X189816198Y-106463679D01*
X189606610Y-106424500D01*
X189393390Y-106424500D01*
X189183802Y-106463679D01*
X189183799Y-106463679D01*
X189183799Y-106463680D01*
X188984982Y-106540701D01*
X188984980Y-106540702D01*
X188803699Y-106652947D01*
X188646127Y-106796593D01*
X188517632Y-106966746D01*
X188422596Y-107157605D01*
X188422596Y-107157607D01*
X188370688Y-107340043D01*
X188364244Y-107362690D01*
X188344571Y-107575000D01*
X154975500Y-107575000D01*
X154975500Y-98554344D01*
X154977883Y-98530151D01*
X154980897Y-98515000D01*
X154959516Y-98407506D01*
X154913994Y-98339378D01*
X154912283Y-98336817D01*
X154912266Y-98336793D01*
X154909467Y-98332604D01*
X154898624Y-98316376D01*
X154898622Y-98316374D01*
X154898621Y-98316373D01*
X154885775Y-98307790D01*
X154866985Y-98292369D01*
X153482627Y-96908011D01*
X153467205Y-96889219D01*
X153458624Y-96876376D01*
X153458622Y-96876374D01*
X153446624Y-96868357D01*
X153435623Y-96861007D01*
X153435622Y-96861006D01*
X153409465Y-96843528D01*
X153367495Y-96815485D01*
X153367494Y-96815484D01*
X153367493Y-96815484D01*
X153282849Y-96798647D01*
X153282816Y-96798641D01*
X153270641Y-96796219D01*
X153260308Y-96794164D01*
X153198397Y-96761779D01*
X153163823Y-96701063D01*
X153160500Y-96672547D01*
X153160500Y-96610177D01*
X153151768Y-96566282D01*
X153151767Y-96566281D01*
X153151767Y-96566278D01*
X153118504Y-96516496D01*
X153118502Y-96516495D01*
X153113422Y-96508891D01*
X153092544Y-96442213D01*
X153111029Y-96374833D01*
X153113422Y-96371109D01*
X153118502Y-96363504D01*
X153118504Y-96363504D01*
X153151767Y-96313722D01*
X153160500Y-96269820D01*
X153160500Y-95825477D01*
X153180185Y-95758439D01*
X153196819Y-95737797D01*
X157747797Y-91186819D01*
X157809120Y-91153334D01*
X157835478Y-91150500D01*
X162683836Y-91150500D01*
X162750875Y-91170185D01*
X162771517Y-91186819D01*
X163423912Y-91839214D01*
X163457397Y-91900537D01*
X163452413Y-91970229D01*
X163410541Y-92026162D01*
X163345077Y-92050579D01*
X163300237Y-92045556D01*
X163236304Y-92026162D01*
X163196130Y-92013975D01*
X163000000Y-91994659D01*
X162803870Y-92013975D01*
X162615266Y-92071188D01*
X162441467Y-92164086D01*
X162441460Y-92164090D01*
X162289116Y-92289116D01*
X162164090Y-92441460D01*
X162164086Y-92441467D01*
X162071188Y-92615266D01*
X162013975Y-92803870D01*
X161994659Y-93000000D01*
X162013975Y-93196129D01*
X162013976Y-93196132D01*
X162052640Y-93323591D01*
X162071188Y-93384733D01*
X162164086Y-93558532D01*
X162164090Y-93558539D01*
X162289116Y-93710883D01*
X162441460Y-93835909D01*
X162441467Y-93835913D01*
X162615266Y-93928811D01*
X162615269Y-93928811D01*
X162615273Y-93928814D01*
X162803868Y-93986024D01*
X163000000Y-94005341D01*
X163196132Y-93986024D01*
X163384727Y-93928814D01*
X163404283Y-93918360D01*
X163472684Y-93904116D01*
X163537929Y-93929114D01*
X163550420Y-93940036D01*
X168527369Y-98916985D01*
X168542790Y-98935775D01*
X168551373Y-98948621D01*
X168551374Y-98948622D01*
X168551376Y-98948624D01*
X168570786Y-98961593D01*
X168571793Y-98962266D01*
X168571803Y-98962273D01*
X168571858Y-98962310D01*
X168574376Y-98963992D01*
X168574378Y-98963994D01*
X168600534Y-98981471D01*
X168642505Y-99009515D01*
X168642507Y-99009515D01*
X168642507Y-99009516D01*
X168728832Y-99026687D01*
X168728839Y-99026687D01*
X168750000Y-99030897D01*
X168765153Y-99027882D01*
X168789344Y-99025500D01*
X184558583Y-99025500D01*
X184625622Y-99045185D01*
X184671377Y-99097989D01*
X184677849Y-99115564D01*
X184687698Y-99150180D01*
X184692597Y-99167395D01*
X184787632Y-99358253D01*
X184916127Y-99528406D01*
X184916128Y-99528407D01*
X185073698Y-99672052D01*
X185254981Y-99784298D01*
X185453802Y-99861321D01*
X185543623Y-99878111D01*
X185605903Y-99909780D01*
X185641176Y-99970092D01*
X185638242Y-100039900D01*
X185598033Y-100097040D01*
X185543623Y-100121888D01*
X185453802Y-100138679D01*
X185453799Y-100138679D01*
X185453799Y-100138680D01*
X185254982Y-100215701D01*
X185254980Y-100215702D01*
X185073699Y-100327947D01*
X184916127Y-100471593D01*
X184787632Y-100641746D01*
X184692596Y-100832605D01*
X184692596Y-100832607D01*
X184692594Y-100832611D01*
X184692595Y-100832611D01*
X184634244Y-101037690D01*
X184614571Y-101250000D01*
X184634244Y-101462310D01*
X184662437Y-101561398D01*
X184692596Y-101667392D01*
X184692596Y-101667394D01*
X184787632Y-101858253D01*
X184916127Y-102028406D01*
X184916128Y-102028407D01*
X185073698Y-102172052D01*
X185254981Y-102284298D01*
X185453802Y-102361321D01*
X185663390Y-102400500D01*
X185663392Y-102400500D01*
X185876608Y-102400500D01*
X185876610Y-102400500D01*
X186086198Y-102361321D01*
X186285019Y-102284298D01*
X186466302Y-102172052D01*
X186611961Y-102039264D01*
X186674766Y-102008648D01*
X186744153Y-102016845D01*
X186798093Y-102061255D01*
X186819461Y-102127777D01*
X186819500Y-102130902D01*
X186819499Y-102655655D01*
X186817117Y-102679842D01*
X186814103Y-102694996D01*
X186814103Y-102695000D01*
X186818640Y-102717807D01*
X186818647Y-102717849D01*
X186835483Y-102802490D01*
X186835484Y-102802493D01*
X186835485Y-102802495D01*
X186854798Y-102831398D01*
X186896373Y-102893621D01*
X186896376Y-102893624D01*
X186909221Y-102902206D01*
X186928011Y-102917627D01*
X194938181Y-110927796D01*
X194971666Y-110989119D01*
X194974500Y-111015477D01*
X194974500Y-111037970D01*
X194954815Y-111105009D01*
X194902011Y-111150764D01*
X194895294Y-111153597D01*
X194734982Y-111215701D01*
X194734980Y-111215702D01*
X194553699Y-111327947D01*
X194396127Y-111471593D01*
X194267632Y-111641746D01*
X194172596Y-111832605D01*
X194172596Y-111832607D01*
X194114244Y-112037689D01*
X194094571Y-112249999D01*
X194094571Y-112250000D01*
X194114244Y-112462310D01*
X194172596Y-112667392D01*
X194172596Y-112667394D01*
X194267632Y-112858253D01*
X194369103Y-112992621D01*
X194396128Y-113028407D01*
X194553698Y-113172052D01*
X194734981Y-113284298D01*
X194933802Y-113361321D01*
X195143390Y-113400500D01*
X195143392Y-113400500D01*
X195356608Y-113400500D01*
X195356610Y-113400500D01*
X195566198Y-113361321D01*
X195765019Y-113284298D01*
X195946302Y-113172052D01*
X196103872Y-113028407D01*
X196232366Y-112858255D01*
X196258877Y-112805013D01*
X196327403Y-112667394D01*
X196327403Y-112667393D01*
X196327405Y-112667389D01*
X196385756Y-112462310D01*
X196405429Y-112250000D01*
X196385756Y-112037690D01*
X196327405Y-111832611D01*
X196327403Y-111832606D01*
X196327403Y-111832605D01*
X196232367Y-111641746D01*
X196103872Y-111471593D01*
X195946302Y-111327948D01*
X195765019Y-111215702D01*
X195765017Y-111215701D01*
X195604706Y-111153597D01*
X195549305Y-111111024D01*
X195525714Y-111045257D01*
X195525500Y-111037970D01*
X195525500Y-110889344D01*
X195527883Y-110865151D01*
X195530897Y-110850000D01*
X195509516Y-110742506D01*
X195463994Y-110674378D01*
X195462283Y-110671817D01*
X195462266Y-110671793D01*
X195448624Y-110651376D01*
X195448622Y-110651374D01*
X195448621Y-110651373D01*
X195435775Y-110642790D01*
X195416985Y-110627369D01*
X192364616Y-107575000D01*
X198344571Y-107575000D01*
X198364244Y-107787310D01*
X198377955Y-107835500D01*
X198422596Y-107992392D01*
X198422596Y-107992394D01*
X198517632Y-108183253D01*
X198556844Y-108235177D01*
X198646128Y-108353407D01*
X198803698Y-108497052D01*
X198984981Y-108609298D01*
X199183802Y-108686321D01*
X199393390Y-108725500D01*
X199393392Y-108725500D01*
X199606608Y-108725500D01*
X199606610Y-108725500D01*
X199816198Y-108686321D01*
X200015019Y-108609298D01*
X200196302Y-108497052D01*
X200353872Y-108353407D01*
X200482366Y-108183255D01*
X200519723Y-108108231D01*
X200577403Y-107992394D01*
X200577403Y-107992393D01*
X200577405Y-107992389D01*
X200635756Y-107787310D01*
X200655429Y-107575000D01*
X200635756Y-107362690D01*
X200577405Y-107157611D01*
X200577403Y-107157606D01*
X200577403Y-107157605D01*
X200482367Y-106966746D01*
X200353872Y-106796593D01*
X200353872Y-106796592D01*
X200196302Y-106652948D01*
X200015019Y-106540702D01*
X200015017Y-106540701D01*
X199837811Y-106472052D01*
X199816198Y-106463679D01*
X199606610Y-106424500D01*
X199393390Y-106424500D01*
X199183802Y-106463679D01*
X199183799Y-106463679D01*
X199183799Y-106463680D01*
X198984982Y-106540701D01*
X198984980Y-106540702D01*
X198803699Y-106652947D01*
X198646127Y-106796593D01*
X198517632Y-106966746D01*
X198422596Y-107157605D01*
X198422596Y-107157607D01*
X198370688Y-107340043D01*
X198364244Y-107362690D01*
X198344571Y-107575000D01*
X192364616Y-107575000D01*
X190339616Y-105550000D01*
X193344571Y-105550000D01*
X193364244Y-105762310D01*
X193422596Y-105967392D01*
X193422596Y-105967394D01*
X193517632Y-106158253D01*
X193639129Y-106319139D01*
X193646128Y-106328407D01*
X193803698Y-106472052D01*
X193984981Y-106584298D01*
X194183802Y-106661321D01*
X194393390Y-106700500D01*
X194393392Y-106700500D01*
X194606608Y-106700500D01*
X194606610Y-106700500D01*
X194816198Y-106661321D01*
X195015019Y-106584298D01*
X195196302Y-106472052D01*
X195353872Y-106328407D01*
X195482366Y-106158255D01*
X195577405Y-105967389D01*
X195635756Y-105762310D01*
X195655429Y-105550000D01*
X195635756Y-105337690D01*
X195577405Y-105132611D01*
X195577403Y-105132606D01*
X195577403Y-105132605D01*
X195482367Y-104941746D01*
X195353872Y-104771593D01*
X195353872Y-104771592D01*
X195196302Y-104627948D01*
X195015019Y-104515702D01*
X195015017Y-104515701D01*
X194974493Y-104500002D01*
X198994723Y-104500002D01*
X199013793Y-104717975D01*
X199013793Y-104717979D01*
X199070422Y-104929322D01*
X199070424Y-104929326D01*
X199070425Y-104929330D01*
X199098716Y-104990000D01*
X199162897Y-105127638D01*
X199166379Y-105132611D01*
X199288402Y-105306877D01*
X199443123Y-105461598D01*
X199622361Y-105587102D01*
X199820670Y-105679575D01*
X200032023Y-105736207D01*
X200214926Y-105752208D01*
X200249998Y-105755277D01*
X200250000Y-105755277D01*
X200250002Y-105755277D01*
X200278254Y-105752805D01*
X200467977Y-105736207D01*
X200679330Y-105679575D01*
X200877639Y-105587102D01*
X201056877Y-105461598D01*
X201211598Y-105306877D01*
X201337102Y-105127639D01*
X201429575Y-104929330D01*
X201486207Y-104717977D01*
X201505277Y-104500002D01*
X203494723Y-104500002D01*
X203513793Y-104717975D01*
X203513793Y-104717979D01*
X203570422Y-104929322D01*
X203570424Y-104929326D01*
X203570425Y-104929330D01*
X203598716Y-104990000D01*
X203662897Y-105127638D01*
X203666379Y-105132611D01*
X203788402Y-105306877D01*
X203943123Y-105461598D01*
X204122361Y-105587102D01*
X204320670Y-105679575D01*
X204532023Y-105736207D01*
X204714926Y-105752208D01*
X204749998Y-105755277D01*
X204750000Y-105755277D01*
X204750002Y-105755277D01*
X204778254Y-105752805D01*
X204967977Y-105736207D01*
X205179330Y-105679575D01*
X205377639Y-105587102D01*
X205556877Y-105461598D01*
X205711598Y-105306877D01*
X205837102Y-105127639D01*
X205929575Y-104929330D01*
X205986207Y-104717977D01*
X206005277Y-104500000D01*
X205986207Y-104282023D01*
X205929575Y-104070670D01*
X205837102Y-103872362D01*
X205837100Y-103872359D01*
X205837099Y-103872357D01*
X205711599Y-103693124D01*
X205711596Y-103693121D01*
X205556877Y-103538402D01*
X205377639Y-103412898D01*
X205377640Y-103412898D01*
X205377638Y-103412897D01*
X205278484Y-103366661D01*
X205179330Y-103320425D01*
X205179326Y-103320424D01*
X205179322Y-103320422D01*
X204967977Y-103263793D01*
X204750002Y-103244723D01*
X204749998Y-103244723D01*
X204604681Y-103257436D01*
X204532023Y-103263793D01*
X204532020Y-103263793D01*
X204320677Y-103320422D01*
X204320668Y-103320426D01*
X204122361Y-103412898D01*
X204122357Y-103412900D01*
X203943121Y-103538402D01*
X203788402Y-103693121D01*
X203662900Y-103872357D01*
X203662898Y-103872361D01*
X203570426Y-104070668D01*
X203570422Y-104070677D01*
X203513793Y-104282020D01*
X203513793Y-104282024D01*
X203494723Y-104499997D01*
X203494723Y-104500002D01*
X201505277Y-104500002D01*
X201505277Y-104500000D01*
X201486207Y-104282023D01*
X201429575Y-104070670D01*
X201337102Y-103872362D01*
X201337100Y-103872359D01*
X201337099Y-103872357D01*
X201211599Y-103693124D01*
X201211596Y-103693121D01*
X201056877Y-103538402D01*
X200877639Y-103412898D01*
X200877640Y-103412898D01*
X200877638Y-103412897D01*
X200778484Y-103366661D01*
X200679330Y-103320425D01*
X200679326Y-103320424D01*
X200679322Y-103320422D01*
X200467977Y-103263793D01*
X200250002Y-103244723D01*
X200249998Y-103244723D01*
X200104681Y-103257436D01*
X200032023Y-103263793D01*
X200032020Y-103263793D01*
X199820677Y-103320422D01*
X199820668Y-103320426D01*
X199622361Y-103412898D01*
X199622357Y-103412900D01*
X199443121Y-103538402D01*
X199288402Y-103693121D01*
X199162900Y-103872357D01*
X199162898Y-103872361D01*
X199070426Y-104070668D01*
X199070422Y-104070677D01*
X199013793Y-104282020D01*
X199013793Y-104282024D01*
X198994723Y-104499997D01*
X198994723Y-104500002D01*
X194974493Y-104500002D01*
X194915608Y-104477190D01*
X194816198Y-104438679D01*
X194606610Y-104399500D01*
X194393390Y-104399500D01*
X194183802Y-104438679D01*
X194183799Y-104438679D01*
X194183799Y-104438680D01*
X193984982Y-104515701D01*
X193984980Y-104515702D01*
X193803699Y-104627947D01*
X193646127Y-104771593D01*
X193517632Y-104941746D01*
X193422596Y-105132605D01*
X193422596Y-105132607D01*
X193364244Y-105337689D01*
X193344571Y-105549999D01*
X193344571Y-105550000D01*
X190339616Y-105550000D01*
X187406818Y-102617202D01*
X187373333Y-102555879D01*
X187370499Y-102529521D01*
X187370499Y-99516845D01*
X187370499Y-96950000D01*
X193344571Y-96950000D01*
X193364244Y-97162310D01*
X193373011Y-97193124D01*
X193422596Y-97367392D01*
X193422596Y-97367394D01*
X193517632Y-97558253D01*
X193646127Y-97728406D01*
X193646128Y-97728407D01*
X193803698Y-97872052D01*
X193984981Y-97984298D01*
X194183802Y-98061321D01*
X194393390Y-98100500D01*
X194393392Y-98100500D01*
X194606608Y-98100500D01*
X194606610Y-98100500D01*
X194816198Y-98061321D01*
X195015019Y-97984298D01*
X195196302Y-97872052D01*
X195353872Y-97728407D01*
X195482366Y-97558255D01*
X195574929Y-97372362D01*
X195577403Y-97367394D01*
X195577403Y-97367393D01*
X195577405Y-97367389D01*
X195635756Y-97162310D01*
X195655429Y-96950000D01*
X195635756Y-96737690D01*
X195577405Y-96532611D01*
X195577403Y-96532606D01*
X195577403Y-96532605D01*
X195482367Y-96341746D01*
X195353872Y-96171593D01*
X195280516Y-96104720D01*
X195196302Y-96027948D01*
X195015019Y-95915702D01*
X195015017Y-95915701D01*
X194872277Y-95860404D01*
X194816198Y-95838679D01*
X194606610Y-95799500D01*
X194393390Y-95799500D01*
X194183802Y-95838679D01*
X194183799Y-95838679D01*
X194183799Y-95838680D01*
X193984982Y-95915701D01*
X193984980Y-95915702D01*
X193803699Y-96027947D01*
X193646127Y-96171593D01*
X193517632Y-96341746D01*
X193422596Y-96532605D01*
X193422596Y-96532607D01*
X193364244Y-96737689D01*
X193356578Y-96820426D01*
X193344571Y-96950000D01*
X187370499Y-96950000D01*
X187370499Y-96459833D01*
X187372882Y-96435657D01*
X187375897Y-96420500D01*
X187375897Y-96420498D01*
X187375897Y-96420497D01*
X187357996Y-96330503D01*
X187354516Y-96313008D01*
X187354513Y-96313001D01*
X187293624Y-96221875D01*
X187280775Y-96213290D01*
X187261985Y-96197869D01*
X186779220Y-95715104D01*
X186745735Y-95653781D01*
X186743962Y-95611237D01*
X186744061Y-95610489D01*
X186755250Y-95525500D01*
X186736330Y-95381791D01*
X186680861Y-95247875D01*
X186592621Y-95132879D01*
X186477625Y-95044639D01*
X186477624Y-95044638D01*
X186477622Y-95044637D01*
X186343712Y-94989171D01*
X186343710Y-94989170D01*
X186343709Y-94989170D01*
X186271854Y-94979709D01*
X186200001Y-94970250D01*
X186199999Y-94970250D01*
X186056291Y-94989170D01*
X186056287Y-94989171D01*
X185922377Y-95044637D01*
X185807379Y-95132879D01*
X185719137Y-95247877D01*
X185663671Y-95381787D01*
X185663670Y-95381791D01*
X185644750Y-95525500D01*
X185662462Y-95660037D01*
X185663670Y-95669208D01*
X185663671Y-95669212D01*
X185719137Y-95803122D01*
X185719138Y-95803124D01*
X185719139Y-95803125D01*
X185807379Y-95918121D01*
X185922375Y-96006361D01*
X186056291Y-96061830D01*
X186183280Y-96078548D01*
X186199999Y-96080750D01*
X186200000Y-96080750D01*
X186200001Y-96080750D01*
X186226133Y-96077309D01*
X186285738Y-96069462D01*
X186354772Y-96080227D01*
X186389604Y-96104720D01*
X186783181Y-96498297D01*
X186816666Y-96559620D01*
X186819500Y-96585978D01*
X186819500Y-97869097D01*
X186799815Y-97936136D01*
X186747011Y-97981891D01*
X186677853Y-97991835D01*
X186614297Y-97962810D01*
X186611962Y-97960734D01*
X186466303Y-97827949D01*
X186466302Y-97827948D01*
X186285019Y-97715702D01*
X186285017Y-97715701D01*
X186102083Y-97644833D01*
X186086198Y-97638679D01*
X185876610Y-97599500D01*
X185663390Y-97599500D01*
X185453802Y-97638679D01*
X185453799Y-97638679D01*
X185453799Y-97638680D01*
X185254982Y-97715701D01*
X185254980Y-97715702D01*
X185073699Y-97827947D01*
X184916127Y-97971593D01*
X184787632Y-98141746D01*
X184692597Y-98332604D01*
X184677849Y-98384436D01*
X184640569Y-98443529D01*
X184577259Y-98473086D01*
X184558583Y-98474500D01*
X168915478Y-98474500D01*
X168848439Y-98454815D01*
X168827797Y-98438181D01*
X165314616Y-94925000D01*
X188344571Y-94925000D01*
X188364244Y-95137310D01*
X188421966Y-95340180D01*
X188422596Y-95342392D01*
X188422596Y-95342394D01*
X188517632Y-95533253D01*
X188637881Y-95692486D01*
X188646128Y-95703407D01*
X188803698Y-95847052D01*
X188984981Y-95959298D01*
X189183802Y-96036321D01*
X189393390Y-96075500D01*
X189393392Y-96075500D01*
X189606608Y-96075500D01*
X189606610Y-96075500D01*
X189816198Y-96036321D01*
X190015019Y-95959298D01*
X190196302Y-95847052D01*
X190353872Y-95703407D01*
X190482366Y-95533255D01*
X190482367Y-95533253D01*
X190577403Y-95342394D01*
X190577403Y-95342393D01*
X190577405Y-95342389D01*
X190635756Y-95137310D01*
X190655429Y-94925000D01*
X198344571Y-94925000D01*
X198364244Y-95137310D01*
X198421966Y-95340180D01*
X198422596Y-95342392D01*
X198422596Y-95342394D01*
X198517632Y-95533253D01*
X198637881Y-95692486D01*
X198646128Y-95703407D01*
X198803698Y-95847052D01*
X198984981Y-95959298D01*
X199183802Y-96036321D01*
X199393390Y-96075500D01*
X199393392Y-96075500D01*
X199606608Y-96075500D01*
X199606610Y-96075500D01*
X199816198Y-96036321D01*
X200015019Y-95959298D01*
X200196302Y-95847052D01*
X200353872Y-95703407D01*
X200482366Y-95533255D01*
X200482367Y-95533253D01*
X200577403Y-95342394D01*
X200577403Y-95342393D01*
X200577405Y-95342389D01*
X200635756Y-95137310D01*
X200655429Y-94925000D01*
X200655299Y-94923602D01*
X200651463Y-94882202D01*
X200635756Y-94712690D01*
X200577405Y-94507611D01*
X200577403Y-94507606D01*
X200577403Y-94507605D01*
X200482367Y-94316746D01*
X200353872Y-94146593D01*
X200258925Y-94060037D01*
X200196302Y-94002948D01*
X200191546Y-94000003D01*
X202594584Y-94000003D01*
X202614229Y-94337298D01*
X202614230Y-94337309D01*
X202672896Y-94670017D01*
X202672899Y-94670031D01*
X202672900Y-94670035D01*
X202689905Y-94726835D01*
X202769801Y-94993710D01*
X202903621Y-95303939D01*
X202903627Y-95303952D01*
X203072560Y-95596553D01*
X203274318Y-95867561D01*
X203274323Y-95867567D01*
X203394069Y-95994489D01*
X203506183Y-96113323D01*
X203506189Y-96113328D01*
X203506191Y-96113330D01*
X203765001Y-96330499D01*
X203808312Y-96358985D01*
X204047292Y-96516164D01*
X204133820Y-96559620D01*
X204264178Y-96625089D01*
X204315252Y-96672767D01*
X204332442Y-96740489D01*
X204310289Y-96806754D01*
X204260932Y-96848281D01*
X204122362Y-96912898D01*
X204122357Y-96912900D01*
X203943121Y-97038402D01*
X203788402Y-97193121D01*
X203662900Y-97372357D01*
X203662898Y-97372361D01*
X203570426Y-97570668D01*
X203570422Y-97570677D01*
X203513793Y-97782020D01*
X203513793Y-97782024D01*
X203494723Y-97999997D01*
X203494723Y-98000002D01*
X203500088Y-98061321D01*
X203508652Y-98159219D01*
X203513793Y-98217975D01*
X203513793Y-98217979D01*
X203570422Y-98429322D01*
X203570424Y-98429326D01*
X203570425Y-98429330D01*
X203582309Y-98454815D01*
X203662897Y-98627638D01*
X203687998Y-98663486D01*
X203788402Y-98806877D01*
X203943123Y-98961598D01*
X204122361Y-99087102D01*
X204320670Y-99179575D01*
X204532023Y-99236207D01*
X204714926Y-99252208D01*
X204749998Y-99255277D01*
X204750000Y-99255277D01*
X204750002Y-99255277D01*
X204778254Y-99252805D01*
X204967977Y-99236207D01*
X205179330Y-99179575D01*
X205377639Y-99087102D01*
X205556877Y-98961598D01*
X205711598Y-98806877D01*
X205837102Y-98627639D01*
X205929575Y-98429330D01*
X205986207Y-98217977D01*
X206005277Y-98000000D01*
X205986207Y-97782023D01*
X205929575Y-97570670D01*
X205837102Y-97372362D01*
X205837100Y-97372359D01*
X205837099Y-97372357D01*
X205711599Y-97193124D01*
X205680785Y-97162310D01*
X205626239Y-97107764D01*
X205592756Y-97046444D01*
X205597740Y-96976752D01*
X205639611Y-96920818D01*
X205699522Y-96896924D01*
X206004520Y-96861276D01*
X206333283Y-96783358D01*
X206650776Y-96667800D01*
X206952708Y-96516164D01*
X207234994Y-96330502D01*
X207255843Y-96313008D01*
X207393059Y-96197869D01*
X207493817Y-96113323D01*
X207725678Y-95867565D01*
X207927440Y-95596552D01*
X208096375Y-95303948D01*
X208230198Y-94993711D01*
X208327100Y-94670035D01*
X208385771Y-94337298D01*
X208403885Y-94026282D01*
X208405416Y-94000003D01*
X208405416Y-93999996D01*
X208401140Y-93926581D01*
X208385771Y-93662702D01*
X208382052Y-93641613D01*
X208327103Y-93329982D01*
X208327102Y-93329981D01*
X208327100Y-93329965D01*
X208230198Y-93006289D01*
X208096375Y-92696052D01*
X207959260Y-92458561D01*
X207927439Y-92403446D01*
X207725681Y-92132438D01*
X207725676Y-92132432D01*
X207517467Y-91911745D01*
X207493817Y-91886677D01*
X207493810Y-91886671D01*
X207493808Y-91886669D01*
X207234998Y-91669500D01*
X207093850Y-91576666D01*
X206952708Y-91483836D01*
X206868538Y-91441564D01*
X206650783Y-91332203D01*
X206650777Y-91332200D01*
X206333284Y-91216642D01*
X206333281Y-91216641D01*
X206106639Y-91162926D01*
X206004520Y-91138724D01*
X205668935Y-91099500D01*
X205331065Y-91099500D01*
X204995479Y-91138723D01*
X204995480Y-91138724D01*
X204666718Y-91216641D01*
X204666715Y-91216642D01*
X204349222Y-91332200D01*
X204349216Y-91332203D01*
X204047295Y-91483834D01*
X203765001Y-91669500D01*
X203506191Y-91886669D01*
X203506181Y-91886679D01*
X203274323Y-92132432D01*
X203274318Y-92132438D01*
X203072560Y-92403446D01*
X202903627Y-92696047D01*
X202903621Y-92696060D01*
X202769801Y-93006289D01*
X202672899Y-93329968D01*
X202672896Y-93329982D01*
X202614230Y-93662690D01*
X202614229Y-93662701D01*
X202594584Y-93999996D01*
X202594584Y-94000003D01*
X200191546Y-94000003D01*
X200015019Y-93890702D01*
X200015017Y-93890701D01*
X199873583Y-93835910D01*
X199816198Y-93813679D01*
X199606610Y-93774500D01*
X199393390Y-93774500D01*
X199183802Y-93813679D01*
X199183799Y-93813679D01*
X199183799Y-93813680D01*
X198984982Y-93890701D01*
X198984980Y-93890702D01*
X198803699Y-94002947D01*
X198646127Y-94146593D01*
X198517632Y-94316746D01*
X198422596Y-94507605D01*
X198422596Y-94507607D01*
X198364244Y-94712689D01*
X198344701Y-94923602D01*
X198344571Y-94925000D01*
X190655429Y-94925000D01*
X190655299Y-94923602D01*
X190651463Y-94882202D01*
X190635756Y-94712690D01*
X190577405Y-94507611D01*
X190577403Y-94507606D01*
X190577403Y-94507605D01*
X190482367Y-94316746D01*
X190353872Y-94146593D01*
X190258925Y-94060037D01*
X190196302Y-94002948D01*
X190015019Y-93890702D01*
X190015017Y-93890701D01*
X189873583Y-93835910D01*
X189816198Y-93813679D01*
X189606610Y-93774500D01*
X189393390Y-93774500D01*
X189183802Y-93813679D01*
X189183799Y-93813679D01*
X189183799Y-93813680D01*
X188984982Y-93890701D01*
X188984980Y-93890702D01*
X188803699Y-94002947D01*
X188646127Y-94146593D01*
X188517632Y-94316746D01*
X188422596Y-94507605D01*
X188422596Y-94507607D01*
X188364244Y-94712689D01*
X188344701Y-94923602D01*
X188344571Y-94925000D01*
X165314616Y-94925000D01*
X165078878Y-94689262D01*
X165045393Y-94627939D01*
X165050377Y-94558247D01*
X165092249Y-94502314D01*
X165157713Y-94477897D01*
X165166559Y-94477581D01*
X168040656Y-94477581D01*
X168064845Y-94479963D01*
X168080000Y-94482978D01*
X168080000Y-94482977D01*
X168080001Y-94482978D01*
X168080002Y-94482978D01*
X168187490Y-94461597D01*
X168187490Y-94461596D01*
X168187495Y-94461596D01*
X168278624Y-94400705D01*
X168339515Y-94309576D01*
X168355500Y-94229214D01*
X168355500Y-94229213D01*
X168360897Y-94202081D01*
X168357883Y-94186928D01*
X168355500Y-94162736D01*
X168355500Y-94053911D01*
X168375185Y-93986872D01*
X168427989Y-93941117D01*
X168443486Y-93935257D01*
X168464727Y-93928814D01*
X168638538Y-93835910D01*
X168790883Y-93710883D01*
X168915910Y-93558538D01*
X169008814Y-93384727D01*
X169066024Y-93196132D01*
X169085341Y-93000000D01*
X169066024Y-92803868D01*
X169008814Y-92615273D01*
X169008811Y-92615269D01*
X169008811Y-92615266D01*
X168957890Y-92520000D01*
X193344571Y-92520000D01*
X193364244Y-92732310D01*
X193422596Y-92937392D01*
X193422596Y-92937394D01*
X193517632Y-93128253D01*
X193609692Y-93250159D01*
X193646128Y-93298407D01*
X193803698Y-93442052D01*
X193984981Y-93554298D01*
X194183802Y-93631321D01*
X194393390Y-93670500D01*
X194393392Y-93670500D01*
X194606608Y-93670500D01*
X194606610Y-93670500D01*
X194816198Y-93631321D01*
X195015019Y-93554298D01*
X195196302Y-93442052D01*
X195353872Y-93298407D01*
X195482366Y-93128255D01*
X195516001Y-93060706D01*
X195577403Y-92937394D01*
X195577403Y-92937393D01*
X195577405Y-92937389D01*
X195630734Y-92749959D01*
X195668014Y-92690867D01*
X195731323Y-92661310D01*
X195800563Y-92670672D01*
X195853749Y-92715982D01*
X195869265Y-92749959D01*
X195913517Y-92905485D01*
X195922596Y-92937392D01*
X195922596Y-92937394D01*
X196017632Y-93128253D01*
X196109692Y-93250159D01*
X196146128Y-93298407D01*
X196303698Y-93442052D01*
X196484981Y-93554298D01*
X196683802Y-93631321D01*
X196893390Y-93670500D01*
X196893392Y-93670500D01*
X197106608Y-93670500D01*
X197106610Y-93670500D01*
X197316198Y-93631321D01*
X197515019Y-93554298D01*
X197696302Y-93442052D01*
X197853872Y-93298407D01*
X197982366Y-93128255D01*
X198016001Y-93060706D01*
X198077403Y-92937394D01*
X198077403Y-92937393D01*
X198077405Y-92937389D01*
X198135756Y-92732310D01*
X198155429Y-92520000D01*
X198135756Y-92307690D01*
X198077405Y-92102611D01*
X198077403Y-92102606D01*
X198077403Y-92102605D01*
X197982367Y-91911746D01*
X197853872Y-91741593D01*
X197787850Y-91681406D01*
X197696302Y-91597948D01*
X197515019Y-91485702D01*
X197515017Y-91485701D01*
X197401085Y-91441564D01*
X197316198Y-91408679D01*
X197106610Y-91369500D01*
X196893390Y-91369500D01*
X196683802Y-91408679D01*
X196683799Y-91408679D01*
X196683799Y-91408680D01*
X196484982Y-91485701D01*
X196484980Y-91485702D01*
X196303699Y-91597947D01*
X196146127Y-91741593D01*
X196017632Y-91911746D01*
X195922596Y-92102605D01*
X195922596Y-92102607D01*
X195869266Y-92290039D01*
X195831986Y-92349132D01*
X195768676Y-92378689D01*
X195699437Y-92369327D01*
X195646251Y-92324017D01*
X195630734Y-92290039D01*
X195619374Y-92250115D01*
X195577405Y-92102611D01*
X195577403Y-92102606D01*
X195577403Y-92102605D01*
X195482367Y-91911746D01*
X195353872Y-91741593D01*
X195287850Y-91681406D01*
X195196302Y-91597948D01*
X195015019Y-91485702D01*
X195015017Y-91485701D01*
X194901085Y-91441564D01*
X194816198Y-91408679D01*
X194606610Y-91369500D01*
X194393390Y-91369500D01*
X194183802Y-91408679D01*
X194183799Y-91408679D01*
X194183799Y-91408680D01*
X193984982Y-91485701D01*
X193984980Y-91485702D01*
X193803699Y-91597947D01*
X193646127Y-91741593D01*
X193517632Y-91911746D01*
X193422596Y-92102605D01*
X193422596Y-92102607D01*
X193364244Y-92307689D01*
X193344571Y-92519999D01*
X193344571Y-92520000D01*
X168957890Y-92520000D01*
X168915913Y-92441467D01*
X168915909Y-92441460D01*
X168790883Y-92289116D01*
X168638539Y-92164090D01*
X168638532Y-92164086D01*
X168464733Y-92071188D01*
X168464727Y-92071186D01*
X168276132Y-92013976D01*
X168276129Y-92013975D01*
X168080000Y-91994659D01*
X167883870Y-92013975D01*
X167695266Y-92071188D01*
X167521467Y-92164086D01*
X167521460Y-92164090D01*
X167369116Y-92289116D01*
X167244090Y-92441460D01*
X167244086Y-92441467D01*
X167151188Y-92615266D01*
X167093975Y-92803870D01*
X167074659Y-93000000D01*
X167093975Y-93196129D01*
X167093976Y-93196132D01*
X167132640Y-93323591D01*
X167151188Y-93384733D01*
X167244086Y-93558532D01*
X167244090Y-93558539D01*
X167369118Y-93710885D01*
X167373133Y-93714900D01*
X167406618Y-93776223D01*
X167401634Y-93845915D01*
X167359762Y-93901848D01*
X167294298Y-93926265D01*
X167285452Y-93926581D01*
X166334548Y-93926581D01*
X166267509Y-93906896D01*
X166221754Y-93854092D01*
X166211810Y-93784934D01*
X166240835Y-93721378D01*
X166246867Y-93714900D01*
X166250881Y-93710885D01*
X166284025Y-93670500D01*
X166375910Y-93558538D01*
X166468814Y-93384727D01*
X166526024Y-93196132D01*
X166545341Y-93000000D01*
X166526024Y-92803868D01*
X166468814Y-92615273D01*
X166468811Y-92615269D01*
X166468811Y-92615266D01*
X166375913Y-92441467D01*
X166375909Y-92441460D01*
X166250883Y-92289116D01*
X166098539Y-92164090D01*
X166098532Y-92164086D01*
X165924733Y-92071188D01*
X165924727Y-92071186D01*
X165736132Y-92013976D01*
X165736129Y-92013975D01*
X165540000Y-91994659D01*
X165343870Y-92013975D01*
X165155270Y-92071187D01*
X165135710Y-92081642D01*
X165067307Y-92095882D01*
X165002064Y-92070880D01*
X164989579Y-92059963D01*
X163237627Y-90308011D01*
X163222205Y-90289219D01*
X163221463Y-90288109D01*
X163213624Y-90276376D01*
X163213621Y-90276373D01*
X163194287Y-90263455D01*
X163194284Y-90263453D01*
X163159911Y-90240486D01*
X163159910Y-90240485D01*
X163140628Y-90227601D01*
X163095824Y-90173991D01*
X163087117Y-90104666D01*
X163117271Y-90041638D01*
X163176714Y-90004918D01*
X163209520Y-90000500D01*
X205498561Y-90000500D01*
X205501424Y-90000566D01*
X205554980Y-90003041D01*
X205672804Y-90008489D01*
X205867535Y-90018056D01*
X205876222Y-90018696D01*
X205880220Y-90019122D01*
X206063387Y-90044673D01*
X206249831Y-90072330D01*
X206254871Y-90073294D01*
X206439357Y-90116685D01*
X206552879Y-90145121D01*
X206620192Y-90161983D01*
X206624833Y-90163339D01*
X206805562Y-90223913D01*
X206952174Y-90276373D01*
X206980337Y-90286450D01*
X206984476Y-90288101D01*
X207059817Y-90321368D01*
X207159454Y-90365363D01*
X207326971Y-90444592D01*
X207330610Y-90446463D01*
X207429135Y-90501341D01*
X207498149Y-90539782D01*
X207656967Y-90634974D01*
X207660115Y-90636993D01*
X207818605Y-90745561D01*
X207967364Y-90855887D01*
X207970009Y-90857964D01*
X208087712Y-90955703D01*
X208118017Y-90980868D01*
X208255315Y-91105308D01*
X208257510Y-91107398D01*
X208392600Y-91242488D01*
X208394693Y-91244686D01*
X208474014Y-91332203D01*
X208519124Y-91381974D01*
X208603709Y-91483836D01*
X208642023Y-91529975D01*
X208644119Y-91532645D01*
X208724562Y-91641110D01*
X208754435Y-91681389D01*
X208863005Y-91839883D01*
X208865035Y-91843048D01*
X208960217Y-92001850D01*
X209053523Y-92169364D01*
X209055406Y-92173027D01*
X209134636Y-92340545D01*
X209211889Y-92515504D01*
X209213548Y-92519661D01*
X209276095Y-92694465D01*
X209336659Y-92875167D01*
X209338015Y-92879806D01*
X209383316Y-93060649D01*
X209426696Y-93245090D01*
X209427672Y-93250189D01*
X209455335Y-93436677D01*
X209480876Y-93619773D01*
X209481302Y-93623772D01*
X209481595Y-93627736D01*
X209481944Y-93632465D01*
X209483813Y-93670500D01*
X209491512Y-93827235D01*
X209499434Y-93998575D01*
X209499500Y-94001439D01*
X209499500Y-135998560D01*
X209499434Y-136001424D01*
X209491512Y-136172764D01*
X209486167Y-136281573D01*
X209481944Y-136367535D01*
X209481676Y-136371155D01*
X209481302Y-136376229D01*
X209480876Y-136380226D01*
X209455335Y-136563322D01*
X209427672Y-136749809D01*
X209426696Y-136754908D01*
X209383316Y-136939350D01*
X209338015Y-137120192D01*
X209336659Y-137124831D01*
X209276095Y-137305534D01*
X209213548Y-137480337D01*
X209211889Y-137484494D01*
X209134636Y-137659454D01*
X209055406Y-137826971D01*
X209053523Y-137830634D01*
X208960217Y-137998149D01*
X208865035Y-138156950D01*
X208863005Y-138160115D01*
X208754435Y-138318610D01*
X208644124Y-138467348D01*
X208642023Y-138470023D01*
X208519127Y-138618022D01*
X208394698Y-138755306D01*
X208392600Y-138757510D01*
X208257510Y-138892600D01*
X208255306Y-138894698D01*
X208118022Y-139019127D01*
X207970023Y-139142023D01*
X207967348Y-139144124D01*
X207818610Y-139254435D01*
X207660115Y-139363005D01*
X207656950Y-139365035D01*
X207498149Y-139460217D01*
X207330634Y-139553523D01*
X207326971Y-139555406D01*
X207159454Y-139634636D01*
X206984494Y-139711889D01*
X206980337Y-139713548D01*
X206805534Y-139776095D01*
X206624831Y-139836659D01*
X206620192Y-139838015D01*
X206439350Y-139883316D01*
X206254908Y-139926696D01*
X206249809Y-139927672D01*
X206063322Y-139955335D01*
X205880226Y-139980876D01*
X205876229Y-139981302D01*
X205871155Y-139981676D01*
X205867535Y-139981944D01*
X205798143Y-139985353D01*
X205672764Y-139991512D01*
X205501424Y-139999434D01*
X205498560Y-139999500D01*
X103501440Y-139999500D01*
X103498576Y-139999434D01*
X103327235Y-139991512D01*
X103192534Y-139984895D01*
X103132465Y-139981944D01*
X103129600Y-139981732D01*
X103123772Y-139981302D01*
X103119773Y-139980876D01*
X102936677Y-139955335D01*
X102750189Y-139927672D01*
X102745090Y-139926696D01*
X102560649Y-139883316D01*
X102379806Y-139838015D01*
X102375167Y-139836659D01*
X102194465Y-139776095D01*
X102019661Y-139713548D01*
X102015504Y-139711889D01*
X101840545Y-139634636D01*
X101673027Y-139555406D01*
X101669364Y-139553523D01*
X101501850Y-139460217D01*
X101343048Y-139365035D01*
X101339883Y-139363005D01*
X101181389Y-139254435D01*
X101032651Y-139144124D01*
X101029975Y-139142023D01*
X100956497Y-139081008D01*
X100881974Y-139019124D01*
X100744686Y-138894693D01*
X100742488Y-138892600D01*
X100607398Y-138757510D01*
X100605299Y-138755306D01*
X100525987Y-138667799D01*
X100480868Y-138618017D01*
X100458577Y-138591173D01*
X100357964Y-138470009D01*
X100355875Y-138467348D01*
X100245561Y-138318605D01*
X100136993Y-138160115D01*
X100134974Y-138156967D01*
X100039782Y-137998149D01*
X100012261Y-137948740D01*
X99946463Y-137830610D01*
X99944592Y-137826971D01*
X99865363Y-137659454D01*
X99821368Y-137559817D01*
X99788101Y-137484476D01*
X99786450Y-137480337D01*
X99759501Y-137405020D01*
X99723904Y-137305534D01*
X99663339Y-137124831D01*
X99661983Y-137120192D01*
X99630300Y-136993710D01*
X99616684Y-136939350D01*
X99573294Y-136754871D01*
X99572330Y-136749831D01*
X99544673Y-136563387D01*
X99519122Y-136380220D01*
X99518696Y-136376216D01*
X99518056Y-136367536D01*
X99516571Y-136337309D01*
X99508483Y-136172679D01*
X99507366Y-136148522D01*
X99500566Y-136001424D01*
X99500533Y-136000003D01*
X100594584Y-136000003D01*
X100614229Y-136337298D01*
X100614230Y-136337309D01*
X100672896Y-136670017D01*
X100672899Y-136670031D01*
X100769801Y-136993710D01*
X100903621Y-137303939D01*
X100903627Y-137303952D01*
X101072560Y-137596553D01*
X101274318Y-137867561D01*
X101274323Y-137867567D01*
X101394069Y-137994489D01*
X101506183Y-138113323D01*
X101506189Y-138113328D01*
X101506191Y-138113330D01*
X101765001Y-138330499D01*
X101765006Y-138330502D01*
X102047292Y-138516164D01*
X102349224Y-138667800D01*
X102666717Y-138783358D01*
X102995480Y-138861276D01*
X103331065Y-138900500D01*
X103331072Y-138900500D01*
X103668928Y-138900500D01*
X103668935Y-138900500D01*
X104004520Y-138861276D01*
X104333283Y-138783358D01*
X104650776Y-138667800D01*
X104952708Y-138516164D01*
X105234994Y-138330502D01*
X105249167Y-138318610D01*
X105383184Y-138206155D01*
X164649500Y-138206155D01*
X164653089Y-138246033D01*
X164664622Y-138374186D01*
X164664623Y-138374192D01*
X164724503Y-138591160D01*
X164724508Y-138591173D01*
X164822167Y-138793966D01*
X164822171Y-138793974D01*
X164954473Y-138976072D01*
X164954474Y-138976074D01*
X165117176Y-139131633D01*
X165305033Y-139255636D01*
X165512004Y-139344100D01*
X165512007Y-139344101D01*
X165512012Y-139344103D01*
X165731463Y-139394191D01*
X165956330Y-139404290D01*
X166179387Y-139374075D01*
X166393464Y-139304517D01*
X166591681Y-139197852D01*
X166767666Y-139057508D01*
X166915765Y-138887996D01*
X166931037Y-138862433D01*
X166982316Y-138814981D01*
X167051113Y-138802784D01*
X167115583Y-138829718D01*
X167140585Y-138857141D01*
X167141496Y-138858504D01*
X167191278Y-138891767D01*
X167191281Y-138891767D01*
X167191282Y-138891768D01*
X167235177Y-138900500D01*
X167235180Y-138900500D01*
X168764822Y-138900500D01*
X168808717Y-138891768D01*
X168808717Y-138891767D01*
X168808722Y-138891767D01*
X168858504Y-138858504D01*
X168891767Y-138808722D01*
X168896655Y-138784148D01*
X168900500Y-138764822D01*
X168900500Y-138313072D01*
X168920185Y-138246033D01*
X168972989Y-138200278D01*
X169042147Y-138190334D01*
X169105703Y-138219359D01*
X169142431Y-138274754D01*
X169172818Y-138368278D01*
X169172821Y-138368284D01*
X169267467Y-138532216D01*
X169389544Y-138667796D01*
X169394129Y-138672888D01*
X169547265Y-138784148D01*
X169547270Y-138784151D01*
X169720192Y-138861142D01*
X169720197Y-138861144D01*
X169905354Y-138900500D01*
X169905355Y-138900500D01*
X170094644Y-138900500D01*
X170094646Y-138900500D01*
X170279803Y-138861144D01*
X170452730Y-138784151D01*
X170605871Y-138672888D01*
X170732533Y-138532216D01*
X170827179Y-138368284D01*
X170882068Y-138199351D01*
X170921506Y-138141675D01*
X170985865Y-138114477D01*
X171054711Y-138126392D01*
X171106187Y-138173636D01*
X171117931Y-138199351D01*
X171172818Y-138368277D01*
X171172821Y-138368284D01*
X171267467Y-138532216D01*
X171389544Y-138667796D01*
X171394129Y-138672888D01*
X171547265Y-138784148D01*
X171547270Y-138784151D01*
X171720192Y-138861142D01*
X171720197Y-138861144D01*
X171905354Y-138900500D01*
X171905355Y-138900500D01*
X172094644Y-138900500D01*
X172094646Y-138900500D01*
X172279803Y-138861144D01*
X172452730Y-138784151D01*
X172605871Y-138672888D01*
X172715872Y-138550719D01*
X172775356Y-138514072D01*
X172845213Y-138515402D01*
X172903262Y-138554289D01*
X172921869Y-138586259D01*
X172922091Y-138586153D01*
X172923452Y-138588979D01*
X172924106Y-138590103D01*
X172924505Y-138591166D01*
X173022167Y-138793966D01*
X173022171Y-138793974D01*
X173154473Y-138976072D01*
X173154474Y-138976074D01*
X173317176Y-139131633D01*
X173505033Y-139255636D01*
X173712004Y-139344100D01*
X173712007Y-139344101D01*
X173712012Y-139344103D01*
X173931463Y-139394191D01*
X174156330Y-139404290D01*
X174379387Y-139374075D01*
X174593464Y-139304517D01*
X174791681Y-139197852D01*
X174967666Y-139057508D01*
X175115765Y-138887996D01*
X175231215Y-138694764D01*
X175310307Y-138484024D01*
X175331312Y-138368278D01*
X175350500Y-138262549D01*
X175350500Y-136793852D01*
X175350500Y-136793845D01*
X175335377Y-136625812D01*
X175299065Y-136494240D01*
X175275496Y-136408839D01*
X175275491Y-136408826D01*
X175255606Y-136367535D01*
X175177829Y-136206027D01*
X175175041Y-136202190D01*
X175045526Y-136023927D01*
X175045525Y-136023925D01*
X175036536Y-136015331D01*
X175020504Y-136000003D01*
X202594584Y-136000003D01*
X202614229Y-136337298D01*
X202614230Y-136337309D01*
X202672896Y-136670017D01*
X202672899Y-136670031D01*
X202769801Y-136993710D01*
X202903621Y-137303939D01*
X202903627Y-137303952D01*
X203072560Y-137596553D01*
X203274318Y-137867561D01*
X203274323Y-137867567D01*
X203394069Y-137994489D01*
X203506183Y-138113323D01*
X203506189Y-138113328D01*
X203506191Y-138113330D01*
X203765001Y-138330499D01*
X203765006Y-138330502D01*
X204047292Y-138516164D01*
X204349224Y-138667800D01*
X204666717Y-138783358D01*
X204995480Y-138861276D01*
X205331065Y-138900500D01*
X205331072Y-138900500D01*
X205668928Y-138900500D01*
X205668935Y-138900500D01*
X206004520Y-138861276D01*
X206333283Y-138783358D01*
X206650776Y-138667800D01*
X206952708Y-138516164D01*
X207234994Y-138330502D01*
X207249167Y-138318610D01*
X207402039Y-138190334D01*
X207493817Y-138113323D01*
X207725678Y-137867565D01*
X207927440Y-137596552D01*
X208096375Y-137303948D01*
X208230198Y-136993711D01*
X208327100Y-136670035D01*
X208385771Y-136337298D01*
X208402493Y-136050171D01*
X208405416Y-136000003D01*
X208405416Y-135999996D01*
X208401519Y-135933104D01*
X208385771Y-135662702D01*
X208384571Y-135655899D01*
X208327103Y-135329982D01*
X208327102Y-135329981D01*
X208327100Y-135329965D01*
X208230198Y-135006289D01*
X208096375Y-134696052D01*
X208010891Y-134547989D01*
X207927439Y-134403446D01*
X207725681Y-134132438D01*
X207725676Y-134132432D01*
X207581119Y-133979212D01*
X207493817Y-133886677D01*
X207493810Y-133886671D01*
X207493808Y-133886669D01*
X207234998Y-133669500D01*
X207030140Y-133534764D01*
X206952708Y-133483836D01*
X206822689Y-133418538D01*
X206650783Y-133332203D01*
X206650777Y-133332200D01*
X206333284Y-133216642D01*
X206333281Y-133216641D01*
X206106639Y-133162926D01*
X206004520Y-133138724D01*
X205668935Y-133099500D01*
X205331065Y-133099500D01*
X204995479Y-133138723D01*
X204995480Y-133138724D01*
X204666718Y-133216641D01*
X204666715Y-133216642D01*
X204349222Y-133332200D01*
X204349216Y-133332203D01*
X204047295Y-133483834D01*
X203765001Y-133669500D01*
X203506191Y-133886669D01*
X203506181Y-133886679D01*
X203274323Y-134132432D01*
X203274318Y-134132438D01*
X203072560Y-134403446D01*
X202903627Y-134696047D01*
X202903621Y-134696060D01*
X202769801Y-135006289D01*
X202672899Y-135329968D01*
X202672896Y-135329982D01*
X202614230Y-135662690D01*
X202614229Y-135662701D01*
X202594584Y-135999996D01*
X202594584Y-136000003D01*
X175020504Y-136000003D01*
X174882825Y-135868368D01*
X174882823Y-135868366D01*
X174694966Y-135744363D01*
X174487995Y-135655899D01*
X174487982Y-135655895D01*
X174268542Y-135605810D01*
X174268538Y-135605809D01*
X174268537Y-135605809D01*
X174268536Y-135605808D01*
X174268531Y-135605808D01*
X174043674Y-135595710D01*
X174043673Y-135595710D01*
X174043670Y-135595710D01*
X173820613Y-135625925D01*
X173820610Y-135625925D01*
X173820609Y-135625926D01*
X173606534Y-135695483D01*
X173408321Y-135802146D01*
X173408318Y-135802148D01*
X173232336Y-135942489D01*
X173161186Y-136023927D01*
X173084235Y-136112004D01*
X173061455Y-136150132D01*
X172968787Y-136305232D01*
X172968785Y-136305234D01*
X172927924Y-136414109D01*
X172885938Y-136469957D01*
X172820424Y-136494240D01*
X172752182Y-136479248D01*
X172719681Y-136453510D01*
X172615052Y-136337309D01*
X172605871Y-136327112D01*
X172605870Y-136327111D01*
X172452734Y-136215851D01*
X172452729Y-136215848D01*
X172279807Y-136138857D01*
X172279802Y-136138855D01*
X172134001Y-136107865D01*
X172094646Y-136099500D01*
X171905354Y-136099500D01*
X171872897Y-136106398D01*
X171720197Y-136138855D01*
X171720192Y-136138857D01*
X171547270Y-136215848D01*
X171547265Y-136215851D01*
X171394129Y-136327111D01*
X171267466Y-136467785D01*
X171172821Y-136631715D01*
X171172818Y-136631722D01*
X171117931Y-136800648D01*
X171078493Y-136858324D01*
X171014135Y-136885522D01*
X170945288Y-136873607D01*
X170893813Y-136826363D01*
X170882069Y-136800648D01*
X170827181Y-136631722D01*
X170827180Y-136631721D01*
X170827179Y-136631716D01*
X170732533Y-136467784D01*
X170605871Y-136327112D01*
X170605870Y-136327111D01*
X170452734Y-136215851D01*
X170452729Y-136215848D01*
X170279807Y-136138857D01*
X170279802Y-136138855D01*
X170134001Y-136107865D01*
X170094646Y-136099500D01*
X169905354Y-136099500D01*
X169872897Y-136106398D01*
X169720197Y-136138855D01*
X169720192Y-136138857D01*
X169547270Y-136215848D01*
X169547265Y-136215851D01*
X169394129Y-136327111D01*
X169267466Y-136467785D01*
X169172821Y-136631715D01*
X169172818Y-136631722D01*
X169142431Y-136725245D01*
X169102993Y-136782921D01*
X169038635Y-136810119D01*
X168969788Y-136798204D01*
X168918313Y-136750960D01*
X168900500Y-136686927D01*
X168900500Y-136235177D01*
X168891768Y-136191282D01*
X168891767Y-136191281D01*
X168891767Y-136191278D01*
X168858504Y-136141496D01*
X168858503Y-136141495D01*
X168808724Y-136108234D01*
X168808717Y-136108231D01*
X168764822Y-136099500D01*
X168764820Y-136099500D01*
X167235180Y-136099500D01*
X167235178Y-136099500D01*
X167191282Y-136108231D01*
X167191275Y-136108234D01*
X167141496Y-136141495D01*
X167141492Y-136141499D01*
X167139464Y-136144535D01*
X167133338Y-136149653D01*
X167132860Y-136150132D01*
X167132817Y-136150089D01*
X167085849Y-136189336D01*
X167016523Y-136198039D01*
X166953498Y-136167880D01*
X166936049Y-136148522D01*
X166934339Y-136146169D01*
X166890374Y-136085655D01*
X166845526Y-136023927D01*
X166845525Y-136023925D01*
X166836536Y-136015331D01*
X166682825Y-135868368D01*
X166682823Y-135868366D01*
X166494966Y-135744363D01*
X166287995Y-135655899D01*
X166287982Y-135655895D01*
X166068542Y-135605810D01*
X166068538Y-135605809D01*
X166068537Y-135605809D01*
X166068536Y-135605808D01*
X166068531Y-135605808D01*
X165843674Y-135595710D01*
X165843673Y-135595710D01*
X165843670Y-135595710D01*
X165620613Y-135625925D01*
X165620610Y-135625925D01*
X165620609Y-135625926D01*
X165406534Y-135695483D01*
X165208321Y-135802146D01*
X165208318Y-135802148D01*
X165032336Y-135942489D01*
X164961186Y-136023927D01*
X164884235Y-136112004D01*
X164861455Y-136150132D01*
X164793912Y-136263181D01*
X164768785Y-136305236D01*
X164758664Y-136332204D01*
X164689692Y-136515976D01*
X164649500Y-136737450D01*
X164649500Y-136737452D01*
X164649500Y-136737453D01*
X164649500Y-138206155D01*
X105383184Y-138206155D01*
X105402039Y-138190334D01*
X105493817Y-138113323D01*
X105725678Y-137867565D01*
X105927440Y-137596552D01*
X106096375Y-137303948D01*
X106230198Y-136993711D01*
X106327100Y-136670035D01*
X106385771Y-136337298D01*
X106402493Y-136050171D01*
X106405416Y-136000003D01*
X106405416Y-135999996D01*
X106401519Y-135933104D01*
X106385771Y-135662702D01*
X106384571Y-135655899D01*
X106327103Y-135329982D01*
X106327102Y-135329981D01*
X106327100Y-135329965D01*
X106230198Y-135006289D01*
X106096375Y-134696052D01*
X106010891Y-134547989D01*
X105927439Y-134403446D01*
X105725681Y-134132438D01*
X105725676Y-134132432D01*
X105581119Y-133979212D01*
X105493817Y-133886677D01*
X105493810Y-133886671D01*
X105493808Y-133886669D01*
X105234998Y-133669500D01*
X105030140Y-133534764D01*
X104952708Y-133483836D01*
X104822689Y-133418538D01*
X104650783Y-133332203D01*
X104650777Y-133332200D01*
X104333284Y-133216642D01*
X104333281Y-133216641D01*
X104106639Y-133162926D01*
X104004520Y-133138724D01*
X103668935Y-133099500D01*
X103331065Y-133099500D01*
X102995480Y-133138723D01*
X102995480Y-133138724D01*
X102666718Y-133216641D01*
X102666715Y-133216642D01*
X102349222Y-133332200D01*
X102349216Y-133332203D01*
X102047295Y-133483834D01*
X101765001Y-133669500D01*
X101506191Y-133886669D01*
X101506181Y-133886679D01*
X101274323Y-134132432D01*
X101274318Y-134132438D01*
X101072560Y-134403446D01*
X100903627Y-134696047D01*
X100903621Y-134696060D01*
X100769801Y-135006289D01*
X100672899Y-135329968D01*
X100672896Y-135329982D01*
X100614230Y-135662690D01*
X100614229Y-135662701D01*
X100594584Y-135999996D01*
X100594584Y-136000003D01*
X99500533Y-136000003D01*
X99500500Y-135998561D01*
X99500500Y-107575000D01*
X108344570Y-107575000D01*
X108360205Y-107743722D01*
X108364244Y-107787310D01*
X108377955Y-107835500D01*
X108422596Y-107992392D01*
X108422596Y-107992394D01*
X108517632Y-108183253D01*
X108556844Y-108235177D01*
X108646128Y-108353407D01*
X108803698Y-108497052D01*
X108984981Y-108609298D01*
X109183802Y-108686321D01*
X109393390Y-108725500D01*
X109393392Y-108725500D01*
X109606608Y-108725500D01*
X109606610Y-108725500D01*
X109816198Y-108686321D01*
X110015019Y-108609298D01*
X110196302Y-108497052D01*
X110353872Y-108353407D01*
X110482366Y-108183255D01*
X110519723Y-108108231D01*
X110577403Y-107992394D01*
X110577403Y-107992393D01*
X110577405Y-107992389D01*
X110635756Y-107787310D01*
X110655429Y-107575000D01*
X118344570Y-107575000D01*
X118360205Y-107743722D01*
X118364244Y-107787310D01*
X118377955Y-107835500D01*
X118422596Y-107992392D01*
X118422596Y-107992394D01*
X118517632Y-108183253D01*
X118556844Y-108235177D01*
X118646128Y-108353407D01*
X118803698Y-108497052D01*
X118984981Y-108609298D01*
X119183802Y-108686321D01*
X119393390Y-108725500D01*
X119393392Y-108725500D01*
X119606608Y-108725500D01*
X119606610Y-108725500D01*
X119816198Y-108686321D01*
X120015019Y-108609298D01*
X120196302Y-108497052D01*
X120353872Y-108353407D01*
X120482366Y-108183255D01*
X120519723Y-108108231D01*
X120577403Y-107992394D01*
X120577403Y-107992393D01*
X120577405Y-107992389D01*
X120635756Y-107787310D01*
X120655429Y-107575000D01*
X120635756Y-107362690D01*
X120577405Y-107157611D01*
X120577403Y-107157606D01*
X120577403Y-107157605D01*
X120482367Y-106966746D01*
X120353872Y-106796593D01*
X120353872Y-106796592D01*
X120196302Y-106652948D01*
X120015019Y-106540702D01*
X120015017Y-106540701D01*
X119837811Y-106472052D01*
X119816198Y-106463679D01*
X119606610Y-106424500D01*
X119393390Y-106424500D01*
X119183802Y-106463679D01*
X119183799Y-106463679D01*
X119183799Y-106463680D01*
X118984982Y-106540701D01*
X118984980Y-106540702D01*
X118803699Y-106652947D01*
X118646127Y-106796593D01*
X118517632Y-106966746D01*
X118422596Y-107157605D01*
X118422596Y-107157607D01*
X118364244Y-107362689D01*
X118344570Y-107574999D01*
X118344570Y-107575000D01*
X110655429Y-107575000D01*
X110635756Y-107362690D01*
X110577405Y-107157611D01*
X110577403Y-107157606D01*
X110577403Y-107157605D01*
X110482367Y-106966746D01*
X110353872Y-106796593D01*
X110353872Y-106796592D01*
X110196302Y-106652948D01*
X110015019Y-106540702D01*
X110015017Y-106540701D01*
X109837811Y-106472052D01*
X109816198Y-106463679D01*
X109606610Y-106424500D01*
X109393390Y-106424500D01*
X109183802Y-106463679D01*
X109183799Y-106463679D01*
X109183799Y-106463680D01*
X108984982Y-106540701D01*
X108984980Y-106540702D01*
X108803699Y-106652947D01*
X108646127Y-106796593D01*
X108517632Y-106966746D01*
X108422596Y-107157605D01*
X108422596Y-107157607D01*
X108364244Y-107362689D01*
X108344570Y-107574999D01*
X108344570Y-107575000D01*
X99500500Y-107575000D01*
X99500500Y-105550000D01*
X113344570Y-105550000D01*
X113364244Y-105762310D01*
X113422596Y-105967392D01*
X113422596Y-105967394D01*
X113517632Y-106158253D01*
X113639129Y-106319139D01*
X113646128Y-106328407D01*
X113803698Y-106472052D01*
X113984981Y-106584298D01*
X114183802Y-106661321D01*
X114393390Y-106700500D01*
X114393392Y-106700500D01*
X114606608Y-106700500D01*
X114606610Y-106700500D01*
X114816198Y-106661321D01*
X115015019Y-106584298D01*
X115196302Y-106472052D01*
X115353872Y-106328407D01*
X115482366Y-106158255D01*
X115577405Y-105967389D01*
X115635756Y-105762310D01*
X115655429Y-105550000D01*
X115635756Y-105337690D01*
X115577405Y-105132611D01*
X115577403Y-105132606D01*
X115577403Y-105132605D01*
X115482367Y-104941746D01*
X115353872Y-104771593D01*
X115196302Y-104627948D01*
X115015019Y-104515702D01*
X115015017Y-104515701D01*
X114974493Y-104500002D01*
X118994723Y-104500002D01*
X119013793Y-104717975D01*
X119013793Y-104717979D01*
X119070422Y-104929322D01*
X119070424Y-104929326D01*
X119070425Y-104929330D01*
X119098716Y-104990000D01*
X119162897Y-105127638D01*
X119166379Y-105132611D01*
X119288402Y-105306877D01*
X119443123Y-105461598D01*
X119622361Y-105587102D01*
X119820670Y-105679575D01*
X120032023Y-105736207D01*
X120214926Y-105752208D01*
X120249998Y-105755277D01*
X120250000Y-105755277D01*
X120250002Y-105755277D01*
X120278254Y-105752805D01*
X120467977Y-105736207D01*
X120679330Y-105679575D01*
X120877639Y-105587102D01*
X121056877Y-105461598D01*
X121211598Y-105306877D01*
X121337102Y-105127639D01*
X121429575Y-104929330D01*
X121486207Y-104717977D01*
X121505277Y-104500002D01*
X123494723Y-104500002D01*
X123513793Y-104717975D01*
X123513793Y-104717979D01*
X123570422Y-104929322D01*
X123570424Y-104929326D01*
X123570425Y-104929330D01*
X123598716Y-104990000D01*
X123662897Y-105127638D01*
X123666379Y-105132611D01*
X123788402Y-105306877D01*
X123943123Y-105461598D01*
X124122361Y-105587102D01*
X124320670Y-105679575D01*
X124532023Y-105736207D01*
X124714926Y-105752208D01*
X124749998Y-105755277D01*
X124750000Y-105755277D01*
X124750002Y-105755277D01*
X124778254Y-105752805D01*
X124967977Y-105736207D01*
X125179330Y-105679575D01*
X125377639Y-105587102D01*
X125556877Y-105461598D01*
X125711598Y-105306877D01*
X125837102Y-105127639D01*
X125929575Y-104929330D01*
X125986207Y-104717977D01*
X126005277Y-104500000D01*
X125986207Y-104282023D01*
X125929575Y-104070670D01*
X125837102Y-103872362D01*
X125837100Y-103872359D01*
X125837099Y-103872357D01*
X125711599Y-103693124D01*
X125711596Y-103693121D01*
X125556877Y-103538402D01*
X125377639Y-103412898D01*
X125377640Y-103412898D01*
X125377638Y-103412897D01*
X125278484Y-103366661D01*
X125179330Y-103320425D01*
X125179326Y-103320424D01*
X125179322Y-103320422D01*
X124967977Y-103263793D01*
X124750002Y-103244723D01*
X124749998Y-103244723D01*
X124604681Y-103257436D01*
X124532023Y-103263793D01*
X124532020Y-103263793D01*
X124320677Y-103320422D01*
X124320668Y-103320426D01*
X124122361Y-103412898D01*
X124122357Y-103412900D01*
X123943121Y-103538402D01*
X123788402Y-103693121D01*
X123662900Y-103872357D01*
X123662898Y-103872361D01*
X123570426Y-104070668D01*
X123570422Y-104070677D01*
X123513793Y-104282020D01*
X123513793Y-104282024D01*
X123494723Y-104499997D01*
X123494723Y-104500002D01*
X121505277Y-104500002D01*
X121505277Y-104500000D01*
X121486207Y-104282023D01*
X121429575Y-104070670D01*
X121337102Y-103872362D01*
X121337100Y-103872359D01*
X121337099Y-103872357D01*
X121211599Y-103693124D01*
X121211596Y-103693121D01*
X121056877Y-103538402D01*
X120877639Y-103412898D01*
X120877640Y-103412898D01*
X120877638Y-103412897D01*
X120778484Y-103366661D01*
X120679330Y-103320425D01*
X120679326Y-103320424D01*
X120679322Y-103320422D01*
X120467977Y-103263793D01*
X120250002Y-103244723D01*
X120249998Y-103244723D01*
X120104681Y-103257436D01*
X120032023Y-103263793D01*
X120032020Y-103263793D01*
X119820677Y-103320422D01*
X119820668Y-103320426D01*
X119622361Y-103412898D01*
X119622357Y-103412900D01*
X119443121Y-103538402D01*
X119288402Y-103693121D01*
X119162900Y-103872357D01*
X119162898Y-103872361D01*
X119070426Y-104070668D01*
X119070422Y-104070677D01*
X119013793Y-104282020D01*
X119013793Y-104282024D01*
X118994723Y-104499997D01*
X118994723Y-104500002D01*
X114974493Y-104500002D01*
X114915608Y-104477190D01*
X114816198Y-104438679D01*
X114606610Y-104399500D01*
X114393390Y-104399500D01*
X114183802Y-104438679D01*
X114183799Y-104438679D01*
X114183799Y-104438680D01*
X113984982Y-104515701D01*
X113984980Y-104515702D01*
X113803699Y-104627947D01*
X113646127Y-104771593D01*
X113517632Y-104941746D01*
X113422596Y-105132605D01*
X113422596Y-105132607D01*
X113364244Y-105337689D01*
X113344570Y-105549999D01*
X113344570Y-105550000D01*
X99500500Y-105550000D01*
X99500500Y-101250000D01*
X104614570Y-101250000D01*
X104632501Y-101443504D01*
X104634244Y-101462310D01*
X104662437Y-101561398D01*
X104692596Y-101667392D01*
X104692596Y-101667394D01*
X104787632Y-101858253D01*
X104916127Y-102028406D01*
X104916128Y-102028407D01*
X105073698Y-102172052D01*
X105254981Y-102284298D01*
X105453802Y-102361321D01*
X105663390Y-102400500D01*
X105663392Y-102400500D01*
X105876608Y-102400500D01*
X105876610Y-102400500D01*
X106086198Y-102361321D01*
X106285019Y-102284298D01*
X106466302Y-102172052D01*
X106623872Y-102028407D01*
X106752366Y-101858255D01*
X106752367Y-101858253D01*
X106847403Y-101667394D01*
X106847403Y-101667393D01*
X106847405Y-101667389D01*
X106905756Y-101462310D01*
X106925429Y-101250000D01*
X106905756Y-101037690D01*
X106847405Y-100832611D01*
X106847403Y-100832606D01*
X106847403Y-100832605D01*
X106752367Y-100641746D01*
X106623872Y-100471593D01*
X106567475Y-100420180D01*
X106466302Y-100327948D01*
X106285019Y-100215702D01*
X106285017Y-100215701D01*
X106176092Y-100173504D01*
X106086198Y-100138679D01*
X105996375Y-100121888D01*
X105934096Y-100090221D01*
X105898823Y-100029908D01*
X105901757Y-99960100D01*
X105941966Y-99902960D01*
X105996374Y-99878111D01*
X106086198Y-99861321D01*
X106285019Y-99784298D01*
X106466302Y-99672052D01*
X106623872Y-99528407D01*
X106752366Y-99358255D01*
X106764392Y-99334103D01*
X106847403Y-99167394D01*
X106847403Y-99167393D01*
X106847405Y-99167389D01*
X106905756Y-98962310D01*
X106925429Y-98750000D01*
X106905756Y-98537690D01*
X106847405Y-98332611D01*
X106847403Y-98332606D01*
X106847403Y-98332605D01*
X106752367Y-98141746D01*
X106623872Y-97971593D01*
X106514681Y-97872052D01*
X106466302Y-97827948D01*
X106285019Y-97715702D01*
X106285017Y-97715701D01*
X106102083Y-97644833D01*
X106086198Y-97638679D01*
X105876610Y-97599500D01*
X105663390Y-97599500D01*
X105453802Y-97638679D01*
X105453799Y-97638679D01*
X105453799Y-97638680D01*
X105254982Y-97715701D01*
X105254980Y-97715702D01*
X105073699Y-97827947D01*
X104916127Y-97971593D01*
X104787632Y-98141746D01*
X104692596Y-98332605D01*
X104692596Y-98332607D01*
X104634244Y-98537689D01*
X104614570Y-98749999D01*
X104614570Y-98750000D01*
X104632976Y-98948623D01*
X104634244Y-98962310D01*
X104679078Y-99119884D01*
X104692596Y-99167392D01*
X104692596Y-99167394D01*
X104787632Y-99358253D01*
X104916127Y-99528406D01*
X104916128Y-99528407D01*
X105073698Y-99672052D01*
X105254981Y-99784298D01*
X105453802Y-99861321D01*
X105543623Y-99878111D01*
X105605903Y-99909780D01*
X105641176Y-99970092D01*
X105638242Y-100039900D01*
X105598033Y-100097040D01*
X105543623Y-100121888D01*
X105453802Y-100138679D01*
X105453799Y-100138679D01*
X105453799Y-100138680D01*
X105254982Y-100215701D01*
X105254980Y-100215702D01*
X105073699Y-100327947D01*
X104916127Y-100471593D01*
X104787632Y-100641746D01*
X104692596Y-100832605D01*
X104692596Y-100832607D01*
X104634244Y-101037689D01*
X104614570Y-101249999D01*
X104614570Y-101250000D01*
X99500500Y-101250000D01*
X99500500Y-96950000D01*
X113344570Y-96950000D01*
X113359190Y-97107767D01*
X113364244Y-97162310D01*
X113373011Y-97193124D01*
X113422596Y-97367392D01*
X113422596Y-97367394D01*
X113517632Y-97558253D01*
X113646127Y-97728406D01*
X113646128Y-97728407D01*
X113803698Y-97872052D01*
X113984981Y-97984298D01*
X114183802Y-98061321D01*
X114393390Y-98100500D01*
X114393392Y-98100500D01*
X114606608Y-98100500D01*
X114606610Y-98100500D01*
X114816198Y-98061321D01*
X114974482Y-98000002D01*
X123494723Y-98000002D01*
X123500088Y-98061321D01*
X123508652Y-98159219D01*
X123513793Y-98217975D01*
X123513793Y-98217979D01*
X123570422Y-98429322D01*
X123570424Y-98429326D01*
X123570425Y-98429330D01*
X123582309Y-98454815D01*
X123662897Y-98627638D01*
X123687998Y-98663486D01*
X123788402Y-98806877D01*
X123943123Y-98961598D01*
X124122361Y-99087102D01*
X124320670Y-99179575D01*
X124532023Y-99236207D01*
X124714926Y-99252208D01*
X124749998Y-99255277D01*
X124750000Y-99255277D01*
X124750002Y-99255277D01*
X124778254Y-99252805D01*
X124967977Y-99236207D01*
X125179330Y-99179575D01*
X125377639Y-99087102D01*
X125556877Y-98961598D01*
X125711598Y-98806877D01*
X125837102Y-98627639D01*
X125929575Y-98429330D01*
X125986207Y-98217977D01*
X126005277Y-98000000D01*
X125986207Y-97782023D01*
X125929575Y-97570670D01*
X125837102Y-97372362D01*
X125837100Y-97372359D01*
X125837099Y-97372357D01*
X125711599Y-97193124D01*
X125680785Y-97162310D01*
X125556877Y-97038402D01*
X125377639Y-96912898D01*
X125377640Y-96912898D01*
X125377638Y-96912897D01*
X125239067Y-96848281D01*
X125179330Y-96820425D01*
X125179326Y-96820424D01*
X125179322Y-96820422D01*
X124967977Y-96763793D01*
X124750002Y-96744723D01*
X124749998Y-96744723D01*
X124604681Y-96757436D01*
X124532023Y-96763793D01*
X124532020Y-96763793D01*
X124320677Y-96820422D01*
X124320668Y-96820426D01*
X124122361Y-96912898D01*
X124122357Y-96912900D01*
X123943121Y-97038402D01*
X123788402Y-97193121D01*
X123662900Y-97372357D01*
X123662898Y-97372361D01*
X123570426Y-97570668D01*
X123570422Y-97570677D01*
X123513793Y-97782020D01*
X123513793Y-97782024D01*
X123494723Y-97999997D01*
X123494723Y-98000002D01*
X114974482Y-98000002D01*
X115015019Y-97984298D01*
X115196302Y-97872052D01*
X115353872Y-97728407D01*
X115482366Y-97558255D01*
X115574929Y-97372362D01*
X115577403Y-97367394D01*
X115577403Y-97367393D01*
X115577405Y-97367389D01*
X115635756Y-97162310D01*
X115655429Y-96950000D01*
X115635756Y-96737690D01*
X115577405Y-96532611D01*
X115577403Y-96532606D01*
X115577403Y-96532605D01*
X115482367Y-96341746D01*
X115353872Y-96171593D01*
X115280516Y-96104720D01*
X115196302Y-96027948D01*
X115015019Y-95915702D01*
X115015017Y-95915701D01*
X114872277Y-95860404D01*
X114816198Y-95838679D01*
X114606610Y-95799500D01*
X114393390Y-95799500D01*
X114183802Y-95838679D01*
X114183799Y-95838679D01*
X114183799Y-95838680D01*
X113984982Y-95915701D01*
X113984980Y-95915702D01*
X113803699Y-96027947D01*
X113646127Y-96171593D01*
X113517632Y-96341746D01*
X113422596Y-96532605D01*
X113422596Y-96532607D01*
X113364244Y-96737689D01*
X113344570Y-96949999D01*
X113344570Y-96950000D01*
X99500500Y-96950000D01*
X99500500Y-94001438D01*
X99500533Y-94000003D01*
X100594584Y-94000003D01*
X100614229Y-94337298D01*
X100614230Y-94337309D01*
X100672896Y-94670017D01*
X100672899Y-94670031D01*
X100672900Y-94670035D01*
X100689905Y-94726835D01*
X100769801Y-94993710D01*
X100903621Y-95303939D01*
X100903627Y-95303952D01*
X101072560Y-95596553D01*
X101274318Y-95867561D01*
X101274323Y-95867567D01*
X101394069Y-95994489D01*
X101506183Y-96113323D01*
X101506189Y-96113328D01*
X101506191Y-96113330D01*
X101765001Y-96330499D01*
X101808312Y-96358985D01*
X102047292Y-96516164D01*
X102349224Y-96667800D01*
X102666717Y-96783358D01*
X102995480Y-96861276D01*
X103331065Y-96900500D01*
X103331072Y-96900500D01*
X103668928Y-96900500D01*
X103668935Y-96900500D01*
X104004520Y-96861276D01*
X104333283Y-96783358D01*
X104650776Y-96667800D01*
X104952708Y-96516164D01*
X105234994Y-96330502D01*
X105255843Y-96313008D01*
X105393059Y-96197869D01*
X105493817Y-96113323D01*
X105725678Y-95867565D01*
X105927440Y-95596552D01*
X106096375Y-95303948D01*
X106230198Y-94993711D01*
X106250769Y-94925000D01*
X108344570Y-94925000D01*
X108363008Y-95123967D01*
X108364244Y-95137310D01*
X108421966Y-95340180D01*
X108422596Y-95342392D01*
X108422596Y-95342394D01*
X108517632Y-95533253D01*
X108637881Y-95692486D01*
X108646128Y-95703407D01*
X108803698Y-95847052D01*
X108984981Y-95959298D01*
X109183802Y-96036321D01*
X109393390Y-96075500D01*
X109393392Y-96075500D01*
X109606608Y-96075500D01*
X109606610Y-96075500D01*
X109816198Y-96036321D01*
X110015019Y-95959298D01*
X110196302Y-95847052D01*
X110353872Y-95703407D01*
X110482366Y-95533255D01*
X110482367Y-95533253D01*
X110577403Y-95342394D01*
X110577403Y-95342393D01*
X110577405Y-95342389D01*
X110635756Y-95137310D01*
X110655429Y-94925000D01*
X118344570Y-94925000D01*
X118363008Y-95123967D01*
X118364244Y-95137310D01*
X118421966Y-95340180D01*
X118422596Y-95342392D01*
X118422596Y-95342394D01*
X118517632Y-95533253D01*
X118637881Y-95692486D01*
X118646128Y-95703407D01*
X118803698Y-95847052D01*
X118984981Y-95959298D01*
X119183802Y-96036321D01*
X119393390Y-96075500D01*
X119393392Y-96075500D01*
X119606608Y-96075500D01*
X119606610Y-96075500D01*
X119816198Y-96036321D01*
X120015019Y-95959298D01*
X120196302Y-95847052D01*
X120353872Y-95703407D01*
X120482366Y-95533255D01*
X120482367Y-95533253D01*
X120577403Y-95342394D01*
X120577403Y-95342393D01*
X120577405Y-95342389D01*
X120635756Y-95137310D01*
X120655429Y-94925000D01*
X120655299Y-94923602D01*
X120651463Y-94882202D01*
X120635756Y-94712690D01*
X120577405Y-94507611D01*
X120577403Y-94507606D01*
X120577403Y-94507605D01*
X120482367Y-94316746D01*
X120353872Y-94146593D01*
X120258925Y-94060037D01*
X120196302Y-94002948D01*
X120015019Y-93890702D01*
X120015017Y-93890701D01*
X119873583Y-93835910D01*
X119816198Y-93813679D01*
X119606610Y-93774500D01*
X119393390Y-93774500D01*
X119183802Y-93813679D01*
X119183799Y-93813679D01*
X119183799Y-93813680D01*
X118984982Y-93890701D01*
X118984980Y-93890702D01*
X118803699Y-94002947D01*
X118646127Y-94146593D01*
X118517632Y-94316746D01*
X118422596Y-94507605D01*
X118422596Y-94507607D01*
X118364244Y-94712689D01*
X118344570Y-94924999D01*
X118344570Y-94925000D01*
X110655429Y-94925000D01*
X110655299Y-94923602D01*
X110651463Y-94882202D01*
X110635756Y-94712690D01*
X110577405Y-94507611D01*
X110577403Y-94507606D01*
X110577403Y-94507605D01*
X110482367Y-94316746D01*
X110353872Y-94146593D01*
X110258925Y-94060037D01*
X110196302Y-94002948D01*
X110015019Y-93890702D01*
X110015017Y-93890701D01*
X109873583Y-93835910D01*
X109816198Y-93813679D01*
X109606610Y-93774500D01*
X109393390Y-93774500D01*
X109183802Y-93813679D01*
X109183799Y-93813679D01*
X109183799Y-93813680D01*
X108984982Y-93890701D01*
X108984980Y-93890702D01*
X108803699Y-94002947D01*
X108646127Y-94146593D01*
X108517632Y-94316746D01*
X108422596Y-94507605D01*
X108422596Y-94507607D01*
X108364244Y-94712689D01*
X108344570Y-94924999D01*
X108344570Y-94925000D01*
X106250769Y-94925000D01*
X106327100Y-94670035D01*
X106385771Y-94337298D01*
X106403885Y-94026282D01*
X106405416Y-94000003D01*
X106405416Y-93999996D01*
X106401140Y-93926581D01*
X106385771Y-93662702D01*
X106382052Y-93641613D01*
X106327103Y-93329982D01*
X106327102Y-93329981D01*
X106327100Y-93329965D01*
X106230198Y-93006289D01*
X106096375Y-92696052D01*
X105994732Y-92520000D01*
X113344570Y-92520000D01*
X113364244Y-92732310D01*
X113422596Y-92937392D01*
X113422596Y-92937394D01*
X113517632Y-93128253D01*
X113609692Y-93250159D01*
X113646128Y-93298407D01*
X113803698Y-93442052D01*
X113984981Y-93554298D01*
X114183802Y-93631321D01*
X114393390Y-93670500D01*
X114393392Y-93670500D01*
X114606608Y-93670500D01*
X114606610Y-93670500D01*
X114816198Y-93631321D01*
X115015019Y-93554298D01*
X115196302Y-93442052D01*
X115353872Y-93298407D01*
X115482366Y-93128255D01*
X115516001Y-93060706D01*
X115577403Y-92937394D01*
X115577403Y-92937393D01*
X115577405Y-92937389D01*
X115630734Y-92749959D01*
X115668014Y-92690867D01*
X115731323Y-92661310D01*
X115800563Y-92670672D01*
X115853749Y-92715982D01*
X115869265Y-92749959D01*
X115913517Y-92905485D01*
X115922596Y-92937392D01*
X115922596Y-92937394D01*
X116017632Y-93128253D01*
X116109692Y-93250159D01*
X116146128Y-93298407D01*
X116303698Y-93442052D01*
X116484981Y-93554298D01*
X116683802Y-93631321D01*
X116893390Y-93670500D01*
X116893392Y-93670500D01*
X117106608Y-93670500D01*
X117106610Y-93670500D01*
X117316198Y-93631321D01*
X117515019Y-93554298D01*
X117696302Y-93442052D01*
X117853872Y-93298407D01*
X117982366Y-93128255D01*
X118016001Y-93060706D01*
X118077403Y-92937394D01*
X118077403Y-92937393D01*
X118077405Y-92937389D01*
X118135756Y-92732310D01*
X118155429Y-92520000D01*
X118135756Y-92307690D01*
X118077405Y-92102611D01*
X118077403Y-92102606D01*
X118077403Y-92102605D01*
X117982367Y-91911746D01*
X117853872Y-91741593D01*
X117787850Y-91681406D01*
X117696302Y-91597948D01*
X117515019Y-91485702D01*
X117515017Y-91485701D01*
X117401085Y-91441564D01*
X117316198Y-91408679D01*
X117106610Y-91369500D01*
X116893390Y-91369500D01*
X116683802Y-91408679D01*
X116683799Y-91408679D01*
X116683799Y-91408680D01*
X116484982Y-91485701D01*
X116484980Y-91485702D01*
X116303699Y-91597947D01*
X116146127Y-91741593D01*
X116017632Y-91911746D01*
X115922596Y-92102605D01*
X115922596Y-92102607D01*
X115869266Y-92290039D01*
X115831986Y-92349132D01*
X115768676Y-92378689D01*
X115699437Y-92369327D01*
X115646251Y-92324017D01*
X115630734Y-92290039D01*
X115619374Y-92250115D01*
X115577405Y-92102611D01*
X115577403Y-92102606D01*
X115577403Y-92102605D01*
X115482367Y-91911746D01*
X115353872Y-91741593D01*
X115287850Y-91681406D01*
X115196302Y-91597948D01*
X115015019Y-91485702D01*
X115015017Y-91485701D01*
X114901085Y-91441564D01*
X114816198Y-91408679D01*
X114606610Y-91369500D01*
X114393390Y-91369500D01*
X114183802Y-91408679D01*
X114183799Y-91408679D01*
X114183799Y-91408680D01*
X113984982Y-91485701D01*
X113984980Y-91485702D01*
X113803699Y-91597947D01*
X113646127Y-91741593D01*
X113517632Y-91911746D01*
X113422596Y-92102605D01*
X113422596Y-92102607D01*
X113364244Y-92307689D01*
X113344570Y-92519999D01*
X113344570Y-92520000D01*
X105994732Y-92520000D01*
X105959260Y-92458561D01*
X105927439Y-92403446D01*
X105725681Y-92132438D01*
X105725676Y-92132432D01*
X105517467Y-91911745D01*
X105493817Y-91886677D01*
X105493810Y-91886671D01*
X105493808Y-91886669D01*
X105234998Y-91669500D01*
X105093851Y-91576667D01*
X104952708Y-91483836D01*
X104868538Y-91441564D01*
X104650783Y-91332203D01*
X104650777Y-91332200D01*
X104333284Y-91216642D01*
X104333281Y-91216641D01*
X104106639Y-91162926D01*
X104004520Y-91138724D01*
X103668935Y-91099500D01*
X103331065Y-91099500D01*
X102995479Y-91138723D01*
X102995480Y-91138724D01*
X102666718Y-91216641D01*
X102666715Y-91216642D01*
X102349222Y-91332200D01*
X102349216Y-91332203D01*
X102047295Y-91483834D01*
X101765001Y-91669500D01*
X101506191Y-91886669D01*
X101506181Y-91886679D01*
X101274323Y-92132432D01*
X101274318Y-92132438D01*
X101072560Y-92403446D01*
X100903627Y-92696047D01*
X100903621Y-92696060D01*
X100769801Y-93006289D01*
X100672899Y-93329968D01*
X100672896Y-93329982D01*
X100614230Y-93662690D01*
X100614229Y-93662701D01*
X100594584Y-93999996D01*
X100594584Y-94000003D01*
X99500533Y-94000003D01*
X99500566Y-93998575D01*
X99507122Y-93856767D01*
X99508491Y-93827135D01*
X99510566Y-93784934D01*
X99518056Y-93632465D01*
X99518699Y-93623743D01*
X99519123Y-93619772D01*
X99521882Y-93600000D01*
X99544666Y-93436658D01*
X99545193Y-93433110D01*
X99572331Y-93250159D01*
X99573292Y-93245137D01*
X99616693Y-93060609D01*
X99661983Y-92879803D01*
X99663332Y-92875187D01*
X99723913Y-92694438D01*
X99786456Y-92519643D01*
X99788089Y-92515552D01*
X99857263Y-92358889D01*
X99865363Y-92340545D01*
X99901177Y-92264822D01*
X99944601Y-92173008D01*
X99946449Y-92169413D01*
X100039788Y-92001838D01*
X100134992Y-91843002D01*
X100136972Y-91839914D01*
X100245568Y-91681383D01*
X100355914Y-91532599D01*
X100357934Y-91530025D01*
X100480880Y-91381967D01*
X100605345Y-91244642D01*
X100607357Y-91242530D01*
X100742530Y-91107357D01*
X100744642Y-91105345D01*
X100881967Y-90980880D01*
X101030025Y-90857934D01*
X101032599Y-90855914D01*
X101181383Y-90745568D01*
X101339914Y-90636972D01*
X101343002Y-90634992D01*
X101501828Y-90539794D01*
X101669413Y-90446449D01*
X101673008Y-90444601D01*
X101804624Y-90382352D01*
X101840545Y-90365363D01*
X101877797Y-90348913D01*
X102015552Y-90288089D01*
X102019643Y-90286456D01*
X102194438Y-90223913D01*
X102375187Y-90163332D01*
X102379806Y-90161983D01*
X102560609Y-90116693D01*
X102745137Y-90073292D01*
X102750159Y-90072331D01*
X102936637Y-90044669D01*
X103119786Y-90019121D01*
X103123743Y-90018699D01*
X103132465Y-90018056D01*
X103327105Y-90008493D01*
X103472753Y-90001759D01*
X103498575Y-90000566D01*
X103501438Y-90000500D01*
X148300480Y-90000500D01*
X148367519Y-90020185D01*
G37*
%TD.AperFunction*%
%TA.AperFunction,Conductor*%
G36*
X133598901Y-133630664D02*
G01*
X133605379Y-133636696D01*
X134335669Y-134366986D01*
X134351090Y-134385776D01*
X134359674Y-134398624D01*
X134366892Y-134403446D01*
X134379828Y-134412090D01*
X134379834Y-134412094D01*
X134382649Y-134413975D01*
X134382675Y-134413992D01*
X134382677Y-134413994D01*
X134440313Y-134452504D01*
X134440313Y-134452505D01*
X134450804Y-134459515D01*
X134450805Y-134459516D01*
X134537132Y-134476687D01*
X134537148Y-134476689D01*
X134558298Y-134480896D01*
X134558299Y-134480896D01*
X134558300Y-134480896D01*
X134573454Y-134477882D01*
X134597642Y-134475500D01*
X136623371Y-134475500D01*
X136690410Y-134495185D01*
X136736165Y-134547989D01*
X136746109Y-134617147D01*
X136717084Y-134680703D01*
X136711052Y-134687181D01*
X136709118Y-134689114D01*
X136584090Y-134841460D01*
X136584086Y-134841467D01*
X136491188Y-135015266D01*
X136433975Y-135203870D01*
X136414659Y-135400000D01*
X136433975Y-135596129D01*
X136491187Y-135784730D01*
X136501640Y-135804285D01*
X136515882Y-135872688D01*
X136490882Y-135937932D01*
X136479963Y-135950420D01*
X136167203Y-136263181D01*
X136105880Y-136296666D01*
X136079522Y-136299500D01*
X133870478Y-136299500D01*
X133803439Y-136279815D01*
X133782797Y-136263181D01*
X133430017Y-135910401D01*
X133396532Y-135849078D01*
X133393698Y-135822720D01*
X133393698Y-133724377D01*
X133413383Y-133657338D01*
X133466187Y-133611583D01*
X133535345Y-133601639D01*
X133598901Y-133630664D01*
G37*
%TD.AperFunction*%
%TA.AperFunction,Conductor*%
G36*
X141318834Y-124373296D02*
G01*
X141374767Y-124415168D01*
X141399184Y-124480632D01*
X141399500Y-124489478D01*
X141399500Y-128835655D01*
X141397117Y-128859847D01*
X141394103Y-128874999D01*
X141394103Y-128875000D01*
X141398640Y-128897807D01*
X141398647Y-128897849D01*
X141415483Y-128982490D01*
X141415484Y-128982493D01*
X141415485Y-128982495D01*
X141439940Y-129019094D01*
X141476373Y-129073621D01*
X141476376Y-129073624D01*
X141489221Y-129082206D01*
X141508011Y-129097627D01*
X142067739Y-129657355D01*
X142101224Y-129718677D01*
X142096240Y-129788368D01*
X142054369Y-129844302D01*
X141988904Y-129868719D01*
X141947972Y-129864812D01*
X141943710Y-129863670D01*
X141800001Y-129844750D01*
X141799999Y-129844750D01*
X141656291Y-129863670D01*
X141656287Y-129863671D01*
X141522377Y-129919137D01*
X141407379Y-130007379D01*
X141319137Y-130122377D01*
X141263671Y-130256287D01*
X141263670Y-130256291D01*
X141244750Y-130399999D01*
X141244750Y-130400002D01*
X141256037Y-130485737D01*
X141245271Y-130554772D01*
X141220779Y-130589603D01*
X140387203Y-131423181D01*
X140325880Y-131456666D01*
X140299522Y-131459500D01*
X136044344Y-131459500D01*
X136020153Y-131457117D01*
X136005000Y-131454103D01*
X136004999Y-131454103D01*
X136004998Y-131454103D01*
X135897507Y-131475483D01*
X135897506Y-131475484D01*
X135858247Y-131501715D01*
X135829378Y-131521006D01*
X135829376Y-131521007D01*
X135815069Y-131530567D01*
X135806374Y-131536377D01*
X135797791Y-131549222D01*
X135782372Y-131568010D01*
X135430419Y-131919963D01*
X135369096Y-131953448D01*
X135299404Y-131948464D01*
X135284283Y-131941639D01*
X135264732Y-131931188D01*
X135264729Y-131931187D01*
X135264727Y-131931186D01*
X135076132Y-131873976D01*
X135076129Y-131873975D01*
X134880000Y-131854659D01*
X134683870Y-131873975D01*
X134495266Y-131931188D01*
X134321467Y-132024086D01*
X134321460Y-132024090D01*
X134169116Y-132149116D01*
X134095353Y-132238997D01*
X134037607Y-132278331D01*
X133967762Y-132280202D01*
X133907994Y-132244014D01*
X133877278Y-132181258D01*
X133875500Y-132160332D01*
X133875500Y-131765478D01*
X133895185Y-131698439D01*
X133911819Y-131677797D01*
X141187819Y-124401797D01*
X141249142Y-124368312D01*
X141318834Y-124373296D01*
G37*
%TD.AperFunction*%
%TA.AperFunction,Conductor*%
G36*
X149170167Y-92351029D02*
G01*
X149173891Y-92353422D01*
X149181495Y-92358502D01*
X149181496Y-92358504D01*
X149231278Y-92391767D01*
X149231281Y-92391767D01*
X149231282Y-92391768D01*
X149275177Y-92400500D01*
X149275180Y-92400500D01*
X149365500Y-92400500D01*
X149432539Y-92420185D01*
X149478294Y-92472989D01*
X149489500Y-92524500D01*
X149489500Y-93493111D01*
X149487118Y-93517300D01*
X149484592Y-93530000D01*
X149484592Y-93530002D01*
X149504032Y-93627736D01*
X149504033Y-93627739D01*
X149504033Y-93627740D01*
X149504034Y-93627741D01*
X149513303Y-93641613D01*
X149559399Y-93710601D01*
X149570168Y-93717796D01*
X149588957Y-93733217D01*
X150323181Y-94467441D01*
X150356666Y-94528764D01*
X150359500Y-94555122D01*
X150359500Y-104234877D01*
X150339815Y-104301916D01*
X150323181Y-104322558D01*
X149820845Y-104824893D01*
X149759522Y-104858378D01*
X149716979Y-104860150D01*
X149638512Y-104849820D01*
X149600001Y-104844750D01*
X149599999Y-104844750D01*
X149456291Y-104863670D01*
X149456287Y-104863671D01*
X149322377Y-104919137D01*
X149207379Y-105007379D01*
X149119137Y-105122377D01*
X149063671Y-105256287D01*
X149063670Y-105256291D01*
X149048516Y-105371398D01*
X149044750Y-105400000D01*
X149061399Y-105526463D01*
X149063670Y-105543708D01*
X149063671Y-105543712D01*
X149119137Y-105677622D01*
X149119138Y-105677624D01*
X149119139Y-105677625D01*
X149207379Y-105792621D01*
X149322375Y-105880861D01*
X149456291Y-105936330D01*
X149583280Y-105953048D01*
X149599999Y-105955250D01*
X149600000Y-105955250D01*
X149600001Y-105955250D01*
X149614977Y-105953278D01*
X149743709Y-105936330D01*
X149877625Y-105880861D01*
X149992621Y-105792621D01*
X150001625Y-105780886D01*
X150058050Y-105739685D01*
X150127796Y-105735529D01*
X150188717Y-105769740D01*
X150198367Y-105780876D01*
X150207379Y-105792621D01*
X150322375Y-105880861D01*
X150456291Y-105936330D01*
X150583280Y-105953048D01*
X150599999Y-105955250D01*
X150600000Y-105955250D01*
X150600001Y-105955250D01*
X150614977Y-105953278D01*
X150743709Y-105936330D01*
X150877625Y-105880861D01*
X150992621Y-105792621D01*
X151080861Y-105677625D01*
X151120938Y-105580867D01*
X151164779Y-105526463D01*
X151231073Y-105504398D01*
X151298773Y-105521677D01*
X151346384Y-105572814D01*
X151359500Y-105628319D01*
X151359500Y-106429820D01*
X151359500Y-106429822D01*
X151359499Y-106429822D01*
X151368231Y-106473717D01*
X151368232Y-106473720D01*
X151406578Y-106531110D01*
X151427455Y-106597788D01*
X151408970Y-106665168D01*
X151406578Y-106668890D01*
X151368232Y-106726279D01*
X151368231Y-106726282D01*
X151359500Y-106770177D01*
X151359500Y-106770179D01*
X151359500Y-106770180D01*
X151359500Y-107699820D01*
X151359500Y-107699822D01*
X151359499Y-107699822D01*
X151368231Y-107743717D01*
X151368232Y-107743721D01*
X151368233Y-107743722D01*
X151401496Y-107793504D01*
X151451278Y-107826767D01*
X151451281Y-107826767D01*
X151451282Y-107826768D01*
X151495177Y-107835500D01*
X152935500Y-107835500D01*
X153002539Y-107855185D01*
X153048294Y-107907989D01*
X153059500Y-107959500D01*
X153059500Y-111699521D01*
X153039815Y-111766560D01*
X153023181Y-111787202D01*
X133605379Y-131205004D01*
X133544056Y-131238489D01*
X133474364Y-131233505D01*
X133418431Y-131191633D01*
X133394014Y-131126169D01*
X133393698Y-131117323D01*
X133393698Y-112600000D01*
X134044750Y-112600000D01*
X134053622Y-112667392D01*
X134063670Y-112743708D01*
X134063671Y-112743712D01*
X134119137Y-112877622D01*
X134119138Y-112877624D01*
X134119139Y-112877625D01*
X134207379Y-112992621D01*
X134322375Y-113080861D01*
X134456291Y-113136330D01*
X134583280Y-113153048D01*
X134599999Y-113155250D01*
X134600000Y-113155250D01*
X134600001Y-113155250D01*
X134614977Y-113153278D01*
X134743709Y-113136330D01*
X134877625Y-113080861D01*
X134992621Y-112992621D01*
X135045267Y-112924011D01*
X135101693Y-112882811D01*
X135143641Y-112875500D01*
X148370656Y-112875500D01*
X148394846Y-112877882D01*
X148410000Y-112880897D01*
X148437132Y-112875500D01*
X148437133Y-112875500D01*
X148460734Y-112870805D01*
X148517493Y-112859516D01*
X148517494Y-112859515D01*
X148517495Y-112859515D01*
X148559465Y-112831471D01*
X148585622Y-112813994D01*
X148585621Y-112813994D01*
X148599053Y-112805020D01*
X148599055Y-112805017D01*
X148608624Y-112798624D01*
X148617208Y-112785775D01*
X148632624Y-112766990D01*
X151176989Y-110222625D01*
X151195774Y-110207209D01*
X151208624Y-110198624D01*
X151269515Y-110107495D01*
X151273079Y-110089576D01*
X151286689Y-110021159D01*
X151286689Y-110021151D01*
X151290836Y-110000303D01*
X151323225Y-109938393D01*
X151383942Y-109903822D01*
X151412453Y-109900500D01*
X151474822Y-109900500D01*
X151518717Y-109891768D01*
X151518717Y-109891767D01*
X151518722Y-109891767D01*
X151568504Y-109858504D01*
X151601767Y-109808722D01*
X151610500Y-109764820D01*
X151610500Y-108235180D01*
X151610500Y-108235177D01*
X151601768Y-108191282D01*
X151601767Y-108191281D01*
X151601767Y-108191278D01*
X151568504Y-108141496D01*
X151568503Y-108141495D01*
X151518724Y-108108234D01*
X151518717Y-108108231D01*
X151474822Y-108099500D01*
X151474820Y-108099500D01*
X150545180Y-108099500D01*
X150545178Y-108099500D01*
X150501282Y-108108231D01*
X150501279Y-108108232D01*
X150443890Y-108146578D01*
X150377212Y-108167455D01*
X150309832Y-108148970D01*
X150306110Y-108146578D01*
X150248723Y-108108234D01*
X150248722Y-108108233D01*
X150248721Y-108108232D01*
X150248720Y-108108232D01*
X150248717Y-108108231D01*
X150204822Y-108099500D01*
X150204820Y-108099500D01*
X149275180Y-108099500D01*
X149275178Y-108099500D01*
X149231282Y-108108231D01*
X149231279Y-108108232D01*
X149173890Y-108146578D01*
X149107212Y-108167455D01*
X149039832Y-108148970D01*
X149036110Y-108146578D01*
X148978723Y-108108234D01*
X148978722Y-108108233D01*
X148978721Y-108108232D01*
X148978720Y-108108232D01*
X148978717Y-108108231D01*
X148934822Y-108099500D01*
X148934820Y-108099500D01*
X148005180Y-108099500D01*
X148005178Y-108099500D01*
X147961282Y-108108231D01*
X147961279Y-108108232D01*
X147903890Y-108146578D01*
X147837212Y-108167455D01*
X147769832Y-108148970D01*
X147766110Y-108146578D01*
X147708723Y-108108234D01*
X147708722Y-108108233D01*
X147708721Y-108108232D01*
X147708720Y-108108232D01*
X147708717Y-108108231D01*
X147664822Y-108099500D01*
X147664820Y-108099500D01*
X146735180Y-108099500D01*
X146735178Y-108099500D01*
X146691282Y-108108231D01*
X146691279Y-108108232D01*
X146633890Y-108146578D01*
X146567212Y-108167455D01*
X146499832Y-108148970D01*
X146496110Y-108146578D01*
X146438723Y-108108234D01*
X146438722Y-108108233D01*
X146438721Y-108108232D01*
X146438720Y-108108232D01*
X146438717Y-108108231D01*
X146394822Y-108099500D01*
X146394820Y-108099500D01*
X145465180Y-108099500D01*
X145465178Y-108099500D01*
X145421282Y-108108231D01*
X145421279Y-108108232D01*
X145363890Y-108146578D01*
X145297212Y-108167455D01*
X145229832Y-108148970D01*
X145226110Y-108146578D01*
X145168723Y-108108234D01*
X145168722Y-108108233D01*
X145168721Y-108108232D01*
X145168720Y-108108232D01*
X145168717Y-108108231D01*
X145124822Y-108099500D01*
X145124820Y-108099500D01*
X144195180Y-108099500D01*
X144195178Y-108099500D01*
X144151282Y-108108231D01*
X144151279Y-108108232D01*
X144093890Y-108146578D01*
X144027212Y-108167455D01*
X143959832Y-108148970D01*
X143956110Y-108146578D01*
X143898723Y-108108234D01*
X143898722Y-108108233D01*
X143898721Y-108108232D01*
X143898720Y-108108232D01*
X143898717Y-108108231D01*
X143854822Y-108099500D01*
X143854820Y-108099500D01*
X142925180Y-108099500D01*
X142925178Y-108099500D01*
X142881282Y-108108231D01*
X142881279Y-108108232D01*
X142823890Y-108146578D01*
X142757212Y-108167455D01*
X142689832Y-108148970D01*
X142686110Y-108146578D01*
X142628723Y-108108234D01*
X142628722Y-108108233D01*
X142628721Y-108108232D01*
X142628720Y-108108232D01*
X142628717Y-108108231D01*
X142584822Y-108099500D01*
X142584820Y-108099500D01*
X141655180Y-108099500D01*
X141655178Y-108099500D01*
X141611282Y-108108231D01*
X141611279Y-108108232D01*
X141553890Y-108146578D01*
X141487212Y-108167455D01*
X141419832Y-108148970D01*
X141416110Y-108146578D01*
X141358723Y-108108234D01*
X141358722Y-108108233D01*
X141358721Y-108108232D01*
X141358720Y-108108232D01*
X141358717Y-108108231D01*
X141314822Y-108099500D01*
X141314820Y-108099500D01*
X140385180Y-108099500D01*
X140385178Y-108099500D01*
X140341282Y-108108231D01*
X140341279Y-108108232D01*
X140283890Y-108146578D01*
X140217212Y-108167455D01*
X140149832Y-108148970D01*
X140146110Y-108146578D01*
X140088723Y-108108234D01*
X140088722Y-108108233D01*
X140088721Y-108108232D01*
X140088720Y-108108232D01*
X140088717Y-108108231D01*
X140044822Y-108099500D01*
X140044820Y-108099500D01*
X139115180Y-108099500D01*
X139115178Y-108099500D01*
X139071282Y-108108231D01*
X139071279Y-108108232D01*
X139013890Y-108146578D01*
X138947212Y-108167455D01*
X138879832Y-108148970D01*
X138876110Y-108146578D01*
X138818723Y-108108234D01*
X138818722Y-108108233D01*
X138818721Y-108108232D01*
X138818720Y-108108232D01*
X138818717Y-108108231D01*
X138774822Y-108099500D01*
X138774820Y-108099500D01*
X137845180Y-108099500D01*
X137845178Y-108099500D01*
X137801282Y-108108231D01*
X137801279Y-108108232D01*
X137743890Y-108146578D01*
X137677212Y-108167455D01*
X137609832Y-108148970D01*
X137606110Y-108146578D01*
X137548723Y-108108234D01*
X137548722Y-108108233D01*
X137548721Y-108108232D01*
X137548720Y-108108232D01*
X137548717Y-108108231D01*
X137504822Y-108099500D01*
X137504820Y-108099500D01*
X137439500Y-108099500D01*
X137372461Y-108079815D01*
X137326706Y-108027011D01*
X137315500Y-107975500D01*
X137315500Y-107430869D01*
X137335185Y-107363830D01*
X137387989Y-107318075D01*
X137392048Y-107316308D01*
X137475500Y-107281741D01*
X137477625Y-107280861D01*
X137592621Y-107192621D01*
X137680861Y-107077625D01*
X137736330Y-106943709D01*
X137755250Y-106800000D01*
X137754801Y-106796593D01*
X137751324Y-106770177D01*
X137736330Y-106656291D01*
X137680861Y-106522375D01*
X137592621Y-106407379D01*
X137477625Y-106319139D01*
X137477624Y-106319138D01*
X137477622Y-106319137D01*
X137343712Y-106263671D01*
X137343710Y-106263670D01*
X137343709Y-106263670D01*
X137271854Y-106254210D01*
X137200001Y-106244750D01*
X137199999Y-106244750D01*
X137056291Y-106263670D01*
X137056287Y-106263671D01*
X136922377Y-106319137D01*
X136807379Y-106407379D01*
X136719137Y-106522377D01*
X136663671Y-106656287D01*
X136663670Y-106656291D01*
X136644750Y-106799999D01*
X136644750Y-106800000D01*
X136663670Y-106943708D01*
X136663671Y-106943712D01*
X136719137Y-107077622D01*
X136719138Y-107077624D01*
X136719139Y-107077625D01*
X136738875Y-107103346D01*
X136764070Y-107168513D01*
X136764500Y-107178832D01*
X136764500Y-107975500D01*
X136744815Y-108042539D01*
X136692011Y-108088294D01*
X136640500Y-108099500D01*
X136575178Y-108099500D01*
X136531282Y-108108231D01*
X136531279Y-108108232D01*
X136473890Y-108146578D01*
X136407212Y-108167455D01*
X136339832Y-108148970D01*
X136336110Y-108146578D01*
X136278723Y-108108234D01*
X136278722Y-108108233D01*
X136278721Y-108108232D01*
X136278720Y-108108232D01*
X136278717Y-108108231D01*
X136234822Y-108099500D01*
X136234820Y-108099500D01*
X135999500Y-108099500D01*
X135932461Y-108079815D01*
X135886706Y-108027011D01*
X135875500Y-107975500D01*
X135875500Y-107343641D01*
X135895185Y-107276602D01*
X135924009Y-107245268D01*
X135992621Y-107192621D01*
X136080861Y-107077625D01*
X136136330Y-106943709D01*
X136155250Y-106800000D01*
X136154801Y-106796593D01*
X136151324Y-106770177D01*
X136136330Y-106656291D01*
X136080861Y-106522375D01*
X135992621Y-106407379D01*
X135877625Y-106319139D01*
X135877624Y-106319138D01*
X135877622Y-106319137D01*
X135743712Y-106263671D01*
X135743710Y-106263670D01*
X135743709Y-106263670D01*
X135671854Y-106254210D01*
X135600001Y-106244750D01*
X135599999Y-106244750D01*
X135456291Y-106263670D01*
X135456287Y-106263671D01*
X135322377Y-106319137D01*
X135207379Y-106407379D01*
X135119137Y-106522377D01*
X135063671Y-106656287D01*
X135063670Y-106656291D01*
X135044750Y-106799999D01*
X135044750Y-106800000D01*
X135063670Y-106943708D01*
X135063671Y-106943712D01*
X135119137Y-107077622D01*
X135119138Y-107077624D01*
X135119139Y-107077625D01*
X135207379Y-107192621D01*
X135275988Y-107245267D01*
X135317189Y-107301693D01*
X135324500Y-107343641D01*
X135324500Y-107999710D01*
X135304815Y-108066749D01*
X135269391Y-108102812D01*
X135211495Y-108141496D01*
X135178234Y-108191275D01*
X135178231Y-108191282D01*
X135169500Y-108235177D01*
X135169500Y-108235180D01*
X135169500Y-109764820D01*
X135169500Y-109764822D01*
X135169499Y-109764822D01*
X135178231Y-109808717D01*
X135178232Y-109808721D01*
X135178233Y-109808722D01*
X135211496Y-109858504D01*
X135261278Y-109891767D01*
X135261281Y-109891767D01*
X135261282Y-109891768D01*
X135305177Y-109900500D01*
X135305180Y-109900500D01*
X136234822Y-109900500D01*
X136278717Y-109891768D01*
X136278717Y-109891767D01*
X136278722Y-109891767D01*
X136328504Y-109858504D01*
X136328504Y-109858502D01*
X136336109Y-109853422D01*
X136402787Y-109832544D01*
X136470167Y-109851029D01*
X136473891Y-109853422D01*
X136481495Y-109858502D01*
X136481496Y-109858504D01*
X136531278Y-109891767D01*
X136531281Y-109891767D01*
X136531282Y-109891768D01*
X136575177Y-109900500D01*
X136575180Y-109900500D01*
X137504822Y-109900500D01*
X137548717Y-109891768D01*
X137548717Y-109891767D01*
X137548722Y-109891767D01*
X137598504Y-109858504D01*
X137598504Y-109858502D01*
X137606109Y-109853422D01*
X137672787Y-109832544D01*
X137740167Y-109851029D01*
X137743891Y-109853422D01*
X137751495Y-109858502D01*
X137751496Y-109858504D01*
X137801278Y-109891767D01*
X137801281Y-109891767D01*
X137801282Y-109891768D01*
X137845177Y-109900500D01*
X137845180Y-109900500D01*
X138774822Y-109900500D01*
X138818717Y-109891768D01*
X138818717Y-109891767D01*
X138818722Y-109891767D01*
X138868504Y-109858504D01*
X138868504Y-109858502D01*
X138876109Y-109853422D01*
X138942787Y-109832544D01*
X139010167Y-109851029D01*
X139013891Y-109853422D01*
X139021495Y-109858502D01*
X139021496Y-109858504D01*
X139071278Y-109891767D01*
X139071281Y-109891767D01*
X139071282Y-109891768D01*
X139115177Y-109900500D01*
X139115180Y-109900500D01*
X140044822Y-109900500D01*
X140088717Y-109891768D01*
X140088717Y-109891767D01*
X140088722Y-109891767D01*
X140138504Y-109858504D01*
X140138504Y-109858502D01*
X140146109Y-109853422D01*
X140212787Y-109832544D01*
X140280167Y-109851029D01*
X140283891Y-109853422D01*
X140291495Y-109858502D01*
X140291496Y-109858504D01*
X140341278Y-109891767D01*
X140341281Y-109891767D01*
X140341282Y-109891768D01*
X140385177Y-109900500D01*
X140385180Y-109900500D01*
X141314822Y-109900500D01*
X141358717Y-109891768D01*
X141358717Y-109891767D01*
X141358722Y-109891767D01*
X141408504Y-109858504D01*
X141408504Y-109858502D01*
X141416109Y-109853422D01*
X141482787Y-109832544D01*
X141550167Y-109851029D01*
X141553891Y-109853422D01*
X141561495Y-109858502D01*
X141561496Y-109858504D01*
X141611278Y-109891767D01*
X141611281Y-109891767D01*
X141611282Y-109891768D01*
X141655177Y-109900500D01*
X141655180Y-109900500D01*
X142584822Y-109900500D01*
X142628717Y-109891768D01*
X142628717Y-109891767D01*
X142628722Y-109891767D01*
X142678504Y-109858504D01*
X142678504Y-109858502D01*
X142686109Y-109853422D01*
X142752787Y-109832544D01*
X142820167Y-109851029D01*
X142823891Y-109853422D01*
X142831495Y-109858502D01*
X142831496Y-109858504D01*
X142881278Y-109891767D01*
X142881281Y-109891767D01*
X142881282Y-109891768D01*
X142925177Y-109900500D01*
X142925180Y-109900500D01*
X143854822Y-109900500D01*
X143898717Y-109891768D01*
X143898717Y-109891767D01*
X143898722Y-109891767D01*
X143948504Y-109858504D01*
X143948504Y-109858502D01*
X143956109Y-109853422D01*
X144022787Y-109832544D01*
X144090167Y-109851029D01*
X144093891Y-109853422D01*
X144101495Y-109858502D01*
X144101496Y-109858504D01*
X144151278Y-109891767D01*
X144151281Y-109891767D01*
X144151282Y-109891768D01*
X144195177Y-109900500D01*
X144195180Y-109900500D01*
X145124822Y-109900500D01*
X145168717Y-109891768D01*
X145168717Y-109891767D01*
X145168722Y-109891767D01*
X145218504Y-109858504D01*
X145218504Y-109858502D01*
X145226109Y-109853422D01*
X145292787Y-109832544D01*
X145360167Y-109851029D01*
X145363891Y-109853422D01*
X145371495Y-109858502D01*
X145371496Y-109858504D01*
X145421278Y-109891767D01*
X145421281Y-109891767D01*
X145421282Y-109891768D01*
X145465177Y-109900500D01*
X145465180Y-109900500D01*
X146394822Y-109900500D01*
X146438717Y-109891768D01*
X146438717Y-109891767D01*
X146438722Y-109891767D01*
X146488504Y-109858504D01*
X146488504Y-109858502D01*
X146496109Y-109853422D01*
X146562787Y-109832544D01*
X146630167Y-109851029D01*
X146633891Y-109853422D01*
X146641495Y-109858502D01*
X146641496Y-109858504D01*
X146691278Y-109891767D01*
X146691281Y-109891767D01*
X146691282Y-109891768D01*
X146735177Y-109900500D01*
X146735180Y-109900500D01*
X147664822Y-109900500D01*
X147708717Y-109891768D01*
X147708717Y-109891767D01*
X147708722Y-109891767D01*
X147758504Y-109858504D01*
X147758504Y-109858502D01*
X147766109Y-109853422D01*
X147832787Y-109832544D01*
X147900167Y-109851029D01*
X147903891Y-109853422D01*
X147911495Y-109858502D01*
X147911496Y-109858504D01*
X147961278Y-109891767D01*
X147961281Y-109891767D01*
X147961282Y-109891768D01*
X148005177Y-109900500D01*
X148005180Y-109900500D01*
X148934822Y-109900500D01*
X148978717Y-109891768D01*
X148978717Y-109891767D01*
X148978722Y-109891767D01*
X149028504Y-109858504D01*
X149028504Y-109858502D01*
X149036109Y-109853422D01*
X149102787Y-109832544D01*
X149170167Y-109851029D01*
X149173891Y-109853422D01*
X149181495Y-109858502D01*
X149181496Y-109858504D01*
X149231278Y-109891767D01*
X149231281Y-109891767D01*
X149231282Y-109891768D01*
X149275177Y-109900500D01*
X149275180Y-109900500D01*
X150204822Y-109900500D01*
X150248717Y-109891768D01*
X150248717Y-109891767D01*
X150248722Y-109891767D01*
X150298504Y-109858504D01*
X150298504Y-109858502D01*
X150306109Y-109853422D01*
X150372787Y-109832544D01*
X150440167Y-109851029D01*
X150443891Y-109853422D01*
X150451495Y-109858503D01*
X150451496Y-109858504D01*
X150501278Y-109891767D01*
X150511433Y-109898552D01*
X150508997Y-109902196D01*
X150544889Y-109931041D01*
X150567041Y-109997306D01*
X150549851Y-110065028D01*
X150530807Y-110089576D01*
X148332203Y-112288181D01*
X148270880Y-112321666D01*
X148244522Y-112324500D01*
X135143641Y-112324500D01*
X135076602Y-112304815D01*
X135045268Y-112275990D01*
X134992621Y-112207379D01*
X134877625Y-112119139D01*
X134877624Y-112119138D01*
X134877622Y-112119137D01*
X134743712Y-112063671D01*
X134743710Y-112063670D01*
X134743709Y-112063670D01*
X134671854Y-112054210D01*
X134600001Y-112044750D01*
X134599999Y-112044750D01*
X134456291Y-112063670D01*
X134456287Y-112063671D01*
X134322377Y-112119137D01*
X134207379Y-112207379D01*
X134119137Y-112322377D01*
X134063671Y-112456287D01*
X134063670Y-112456291D01*
X134044750Y-112600000D01*
X133393698Y-112600000D01*
X133393698Y-99683675D01*
X133413383Y-99616636D01*
X133430012Y-99595999D01*
X138476990Y-94549020D01*
X138495774Y-94533605D01*
X138508624Y-94525020D01*
X138526852Y-94497741D01*
X138551003Y-94461596D01*
X138569515Y-94433891D01*
X138585500Y-94353529D01*
X138585500Y-94353528D01*
X138590897Y-94326396D01*
X138587883Y-94311243D01*
X138585500Y-94287051D01*
X138585500Y-92524500D01*
X138605185Y-92457461D01*
X138657989Y-92411706D01*
X138709500Y-92400500D01*
X138774822Y-92400500D01*
X138818717Y-92391768D01*
X138818717Y-92391767D01*
X138818722Y-92391767D01*
X138868504Y-92358504D01*
X138868504Y-92358502D01*
X138876109Y-92353422D01*
X138942787Y-92332544D01*
X139010167Y-92351029D01*
X139013891Y-92353422D01*
X139021495Y-92358502D01*
X139021496Y-92358504D01*
X139071278Y-92391767D01*
X139071281Y-92391767D01*
X139071282Y-92391768D01*
X139115177Y-92400500D01*
X139115180Y-92400500D01*
X139177547Y-92400500D01*
X139244586Y-92420185D01*
X139290341Y-92472989D01*
X139299164Y-92500308D01*
X139303081Y-92520000D01*
X139303640Y-92522807D01*
X139303647Y-92522849D01*
X139320483Y-92607490D01*
X139320484Y-92607493D01*
X139320485Y-92607495D01*
X139332515Y-92625499D01*
X139381373Y-92698621D01*
X139381376Y-92698624D01*
X139394221Y-92707206D01*
X139413011Y-92722627D01*
X142382870Y-95692486D01*
X142398290Y-95711275D01*
X142406876Y-95724124D01*
X142427528Y-95737923D01*
X142427545Y-95737936D01*
X142446213Y-95750409D01*
X142498002Y-95785013D01*
X142498005Y-95785015D01*
X142498008Y-95785015D01*
X142498009Y-95785016D01*
X142584332Y-95802187D01*
X142584339Y-95802187D01*
X142605500Y-95806397D01*
X142620653Y-95803382D01*
X142644844Y-95801000D01*
X147456359Y-95801000D01*
X147523398Y-95820685D01*
X147554731Y-95849509D01*
X147607379Y-95918121D01*
X147722375Y-96006361D01*
X147856291Y-96061830D01*
X147983280Y-96078548D01*
X147999999Y-96080750D01*
X148000000Y-96080750D01*
X148000001Y-96080750D01*
X148014977Y-96078778D01*
X148143709Y-96061830D01*
X148277625Y-96006361D01*
X148392621Y-95918121D01*
X148480861Y-95803125D01*
X148536330Y-95669209D01*
X148555250Y-95525500D01*
X148536330Y-95381791D01*
X148480861Y-95247875D01*
X148392621Y-95132879D01*
X148277625Y-95044639D01*
X148277624Y-95044638D01*
X148277622Y-95044637D01*
X148143712Y-94989171D01*
X148143710Y-94989170D01*
X148143709Y-94989170D01*
X148071854Y-94979709D01*
X148000001Y-94970250D01*
X147999999Y-94970250D01*
X147856291Y-94989170D01*
X147856287Y-94989171D01*
X147722377Y-95044637D01*
X147658693Y-95093504D01*
X147607379Y-95132879D01*
X147554732Y-95201488D01*
X147498307Y-95242689D01*
X147456359Y-95250000D01*
X142770978Y-95250000D01*
X142703939Y-95230315D01*
X142683297Y-95213681D01*
X140059192Y-92589576D01*
X140025707Y-92528253D01*
X140030691Y-92458561D01*
X140072563Y-92402628D01*
X140078888Y-92399033D01*
X140078567Y-92398552D01*
X140088721Y-92391767D01*
X140088722Y-92391767D01*
X140138504Y-92358504D01*
X140138504Y-92358503D01*
X140146109Y-92353422D01*
X140212787Y-92332544D01*
X140280167Y-92351029D01*
X140283891Y-92353422D01*
X140291495Y-92358502D01*
X140291496Y-92358504D01*
X140341278Y-92391767D01*
X140341281Y-92391767D01*
X140341282Y-92391768D01*
X140385177Y-92400500D01*
X140385180Y-92400500D01*
X141314822Y-92400500D01*
X141358717Y-92391768D01*
X141358717Y-92391767D01*
X141358722Y-92391767D01*
X141408504Y-92358504D01*
X141408504Y-92358502D01*
X141416109Y-92353422D01*
X141482787Y-92332544D01*
X141550167Y-92351029D01*
X141553891Y-92353422D01*
X141561495Y-92358502D01*
X141561496Y-92358504D01*
X141611278Y-92391767D01*
X141611281Y-92391767D01*
X141611282Y-92391768D01*
X141655177Y-92400500D01*
X141655180Y-92400500D01*
X142584822Y-92400500D01*
X142628717Y-92391768D01*
X142628717Y-92391767D01*
X142628722Y-92391767D01*
X142678504Y-92358504D01*
X142678504Y-92358502D01*
X142686109Y-92353422D01*
X142752787Y-92332544D01*
X142820167Y-92351029D01*
X142823891Y-92353422D01*
X142831495Y-92358502D01*
X142831496Y-92358504D01*
X142881278Y-92391767D01*
X142881281Y-92391767D01*
X142881282Y-92391768D01*
X142925177Y-92400500D01*
X142925180Y-92400500D01*
X143854822Y-92400500D01*
X143898717Y-92391768D01*
X143898717Y-92391767D01*
X143898722Y-92391767D01*
X143948504Y-92358504D01*
X143948504Y-92358502D01*
X143956109Y-92353422D01*
X144022787Y-92332544D01*
X144090167Y-92351029D01*
X144093891Y-92353422D01*
X144101495Y-92358502D01*
X144101496Y-92358504D01*
X144151278Y-92391767D01*
X144151281Y-92391767D01*
X144151282Y-92391768D01*
X144195177Y-92400500D01*
X144195180Y-92400500D01*
X145124822Y-92400500D01*
X145168717Y-92391768D01*
X145168717Y-92391767D01*
X145168722Y-92391767D01*
X145218504Y-92358504D01*
X145218504Y-92358502D01*
X145226109Y-92353422D01*
X145292787Y-92332544D01*
X145360167Y-92351029D01*
X145363891Y-92353422D01*
X145371495Y-92358502D01*
X145371496Y-92358504D01*
X145421278Y-92391767D01*
X145421281Y-92391767D01*
X145421282Y-92391768D01*
X145465177Y-92400500D01*
X145465180Y-92400500D01*
X146394822Y-92400500D01*
X146438717Y-92391768D01*
X146438717Y-92391767D01*
X146438722Y-92391767D01*
X146488504Y-92358504D01*
X146488504Y-92358502D01*
X146496109Y-92353422D01*
X146562787Y-92332544D01*
X146630167Y-92351029D01*
X146633891Y-92353422D01*
X146641495Y-92358502D01*
X146641496Y-92358504D01*
X146691278Y-92391767D01*
X146691281Y-92391767D01*
X146691282Y-92391768D01*
X146735177Y-92400500D01*
X146735180Y-92400500D01*
X147664822Y-92400500D01*
X147708717Y-92391768D01*
X147708717Y-92391767D01*
X147708722Y-92391767D01*
X147758504Y-92358504D01*
X147758504Y-92358502D01*
X147766109Y-92353422D01*
X147832787Y-92332544D01*
X147900167Y-92351029D01*
X147903891Y-92353422D01*
X147911495Y-92358502D01*
X147911496Y-92358504D01*
X147961278Y-92391767D01*
X147961281Y-92391767D01*
X147961282Y-92391768D01*
X148005177Y-92400500D01*
X148005180Y-92400500D01*
X148934822Y-92400500D01*
X148978717Y-92391768D01*
X148978717Y-92391767D01*
X148978722Y-92391767D01*
X149028504Y-92358504D01*
X149028504Y-92358502D01*
X149036109Y-92353422D01*
X149102787Y-92332544D01*
X149170167Y-92351029D01*
G37*
%TD.AperFunction*%
%TA.AperFunction,Conductor*%
G36*
X157172561Y-90770185D02*
G01*
X157218316Y-90822989D01*
X157228260Y-90892147D01*
X157199235Y-90955703D01*
X157193203Y-90962181D01*
X153372181Y-94783203D01*
X153310858Y-94816688D01*
X153241166Y-94811704D01*
X153185233Y-94769832D01*
X153160816Y-94704368D01*
X153160500Y-94695522D01*
X153160500Y-94070177D01*
X153151768Y-94026282D01*
X153151767Y-94026279D01*
X153151767Y-94026278D01*
X153118504Y-93976496D01*
X153118503Y-93976495D01*
X153113421Y-93968889D01*
X153092544Y-93902211D01*
X153111029Y-93834831D01*
X153113422Y-93831108D01*
X153118501Y-93823505D01*
X153118504Y-93823504D01*
X153151767Y-93773722D01*
X153157737Y-93743709D01*
X153160500Y-93729822D01*
X153160500Y-92800177D01*
X153151768Y-92756282D01*
X153151767Y-92756281D01*
X153151767Y-92756278D01*
X153118504Y-92706496D01*
X153106723Y-92698624D01*
X153068724Y-92673234D01*
X153068717Y-92673231D01*
X153024822Y-92664500D01*
X153024820Y-92664500D01*
X151495180Y-92664500D01*
X151495178Y-92664500D01*
X151451282Y-92673231D01*
X151439998Y-92677906D01*
X151439304Y-92676232D01*
X151386708Y-92692699D01*
X151319329Y-92674212D01*
X151272641Y-92622231D01*
X151260500Y-92568719D01*
X151260500Y-92524500D01*
X151280185Y-92457461D01*
X151332989Y-92411706D01*
X151384500Y-92400500D01*
X151474822Y-92400500D01*
X151518717Y-92391768D01*
X151518717Y-92391767D01*
X151518722Y-92391767D01*
X151568504Y-92358504D01*
X151601767Y-92308722D01*
X151601972Y-92307689D01*
X151610500Y-92264822D01*
X151610500Y-90874500D01*
X151630185Y-90807461D01*
X151682989Y-90761706D01*
X151734500Y-90750500D01*
X157105522Y-90750500D01*
X157172561Y-90770185D01*
G37*
%TD.AperFunction*%
%TD*%
M02*
